<?xml version="1.0" encoding="utf-8"?>
<!-- Generator: Adobe Illustrator 15.0.0, SVG Export Plug-In . SVG Version: 6.00 Build 0)  -->
<!DOCTYPE svg PUBLIC "-//W3C//DTD SVG 1.1//EN" "http://www.w3.org/Graphics/SVG/1.1/DTD/svg11.dtd">
<svg version="1.1" id="Layer_1" xmlns="http://www.w3.org/2000/svg" xmlns:xlink="http://www.w3.org/1999/xlink" x="0px" y="0px"
	 width="218px" height="258px" viewBox="0 0 218 258" enable-background="new 0 0 218 258" xml:space="preserve">
<circle fill="none" stroke="#544F4A" stroke-width="15.7702" stroke-miterlimit="10" cx="109.166" cy="125.891" r="86.16"/>
<path fill="#5B5752" d="M108,123.717c0,0.708-0.575,1.283-1.283,1.283H87.283c-0.708,0-1.283-0.575-1.283-1.283v-19.434
	c0-0.708,0.575-1.283,1.283-1.283h19.434c0.708,0,1.283,0.575,1.283,1.283V123.717z"/>
<path fill="#736F6B" d="M156,123.717c0,0.708-0.575,1.283-1.283,1.283h-19.434c-0.708,0-1.283-0.575-1.283-1.283v-19.434
	c0-0.708,0.575-1.283,1.283-1.283h19.434c0.708,0,1.283,0.575,1.283,1.283V123.717z"/>
<path fill="#E0F5FA" d="M132,123.717c0,0.708-0.575,1.283-1.283,1.283h-19.434c-0.708,0-1.283-0.575-1.283-1.283v-19.434
	c0-0.708,0.575-1.283,1.283-1.283h19.434c0.708,0,1.283,0.575,1.283,1.283V123.717z"/>
<path fill="#64CCE6" d="M132,99.717c0,0.708-0.575,1.283-1.283,1.283h-19.434c-0.708,0-1.283-0.575-1.283-1.283V80.283
	c0-0.708,0.575-1.283,1.283-1.283h19.434c0.708,0,1.283,0.575,1.283,1.283V99.717z"/>
<path fill="#1FAECE" d="M132,147.717c0,0.708-0.575,1.283-1.283,1.283h-19.434c-0.708,0-1.283-0.574-1.283-1.283v-19.435
	c0-0.708,0.575-1.283,1.283-1.283h19.434c0.708,0,1.283,0.574,1.283,1.283V147.717z"/>
<path fill="#A6E2F2" d="M108,147.717c0,0.708-0.575,1.283-1.283,1.283H87.283c-0.708,0-1.283-0.574-1.283-1.283v-19.435
	c0-0.708,0.575-1.283,1.283-1.283h19.434c0.708,0,1.283,0.574,1.283,1.283V147.717z"/>
<path fill="#FFFFFF" d="M108,171.717c0,0.708-0.575,1.283-1.283,1.283H87.283c-0.708,0-1.283-0.575-1.283-1.283v-19.434
	c0-0.708,0.575-1.283,1.283-1.283h19.434c0.708,0,1.283,0.575,1.283,1.283V171.717z"/>
<path fill="#625E5A" d="M84,147.717c0,0.708-0.574,1.283-1.282,1.283H63.282c-0.708,0-1.282-0.574-1.282-1.283v-19.435
	c0-0.708,0.574-1.283,1.282-1.283h19.436c0.708,0,1.282,0.574,1.282,1.283V147.717z"/>
<g>
	<line fill="none" stroke="#7D7A76" stroke-miterlimit="10" stroke-dasharray="1,1" x1="67" y1="24.5" x2="101" y2="24.5"/>
	<line fill="none" stroke="#7D7A76" stroke-miterlimit="10" stroke-dasharray="1,1" x1="116" y1="24.5" x2="149" y2="24.5"/>
	
		<circle fill="none" stroke="#00A2C7" stroke-width="0.8987" stroke-miterlimit="10" stroke-dasharray="0.8987,0.8987" cx="108.515" cy="25.538" r="2.696"/>
</g>
<g>
	<line fill="none" stroke="#7D7A76" stroke-miterlimit="10" stroke-dasharray="1,1" x1="69" y1="228.5" x2="102" y2="228.5"/>
	<line fill="none" stroke="#7D7A76" stroke-miterlimit="10" stroke-dasharray="1,1" x1="116" y1="228.5" x2="150" y2="228.5"/>
	
		<circle fill="none" stroke="#00A2C7" stroke-width="0.8987" stroke-miterlimit="10" stroke-dasharray="0.8987,0.8987" cx="109.63" cy="228.92" r="2.696"/>
</g>
</svg>
