<?xml version="1.0" encoding="utf-8"?>
<!-- Generator: Adobe Illustrator 15.0.0, SVG Export Plug-In . SVG Version: 6.00 Build 0)  -->
<!DOCTYPE svg PUBLIC "-//W3C//DTD SVG 1.1//EN" "http://www.w3.org/Graphics/SVG/1.1/DTD/svg11.dtd">
<svg version="1.1" id="Layer_1" xmlns="http://www.w3.org/2000/svg" xmlns:xlink="http://www.w3.org/1999/xlink" x="0px" y="0px"
	 width="218px" height="258px" viewBox="0 0 218 258" enable-background="new 0 0 218 258" xml:space="preserve">
<circle fill="none" stroke="#635F5D" stroke-width="17.8544" stroke-miterlimit="10" cx="109.167" cy="125.891" r="97.547"/>
<path fill="#5B5752" d="M107,122.289c0,0.945-0.766,1.711-1.711,1.711H79.711c-0.945,0-1.711-0.766-1.711-1.711V96.711
	C78,95.766,78.766,95,79.711,95h25.578c0.945,0,1.711,0.766,1.711,1.711V122.289z"/>
<path fill="#736F6B" d="M171,122.289c0,0.945-0.766,1.711-1.711,1.711h-25.578c-0.945,0-1.711-0.766-1.711-1.711V96.711
	c0-0.945,0.766-1.711,1.711-1.711h25.578c0.945,0,1.711,0.766,1.711,1.711V122.289z"/>
<path fill="#E0F5FA" d="M139,122.289c0,0.945-0.766,1.711-1.711,1.711h-25.578c-0.945,0-1.711-0.766-1.711-1.711V96.711
	c0-0.945,0.766-1.711,1.711-1.711h25.578c0.945,0,1.711,0.766,1.711,1.711V122.289z"/>
<path fill="#64CCE6" d="M139,90.289c0,0.945-0.766,1.711-1.711,1.711h-25.578c-0.945,0-1.711-0.766-1.711-1.711V64.711
	c0-0.945,0.766-1.711,1.711-1.711h25.578c0.945,0,1.711,0.766,1.711,1.711V90.289z"/>
<path fill="#1FAECE" d="M139,154.29c0,0.945-0.766,1.71-1.711,1.71h-25.578c-0.945,0-1.711-0.766-1.711-1.71V128.71
	c0-0.945,0.766-1.71,1.711-1.71h25.578c0.945,0,1.711,0.766,1.711,1.71V154.29z"/>
<path fill="#A6E2F2" d="M107,154.29c0,0.945-0.766,1.71-1.711,1.71H79.711c-0.945,0-1.711-0.766-1.711-1.71V128.71
	c0-0.945,0.766-1.71,1.711-1.71h25.578c0.945,0,1.711,0.766,1.711,1.71V154.29z"/>
<path fill="#FFFFFF" d="M107,186.289c0,0.945-0.766,1.711-1.711,1.711H79.711c-0.945,0-1.711-0.766-1.711-1.711v-25.578
	c0-0.945,0.766-1.711,1.711-1.711h25.578c0.945,0,1.711,0.766,1.711,1.711V186.289z"/>
<path fill="#625E5A" d="M75,154.29c0,0.945-0.766,1.71-1.71,1.71H47.71c-0.944,0-1.71-0.766-1.71-1.71V128.71
	c0-0.945,0.766-1.71,1.71-1.71h25.58c0.944,0,1.71,0.766,1.71,1.71V154.29z"/>
<g>
	<line fill="none" stroke="#7D7A76" stroke-miterlimit="10" stroke-dasharray="1,1" x1="67" y1="3.5" x2="101" y2="3.5"/>
	<line fill="none" stroke="#7D7A76" stroke-miterlimit="10" stroke-dasharray="1,1" x1="116" y1="3.5" x2="149" y2="3.5"/>
	
		<circle fill="none" stroke="#00A2C7" stroke-width="0.8987" stroke-miterlimit="10" stroke-dasharray="0.8987,0.8987" cx="108.515" cy="4.538" r="2.696"/>
</g>
<g>
	<line fill="none" stroke="#7D7A76" stroke-miterlimit="10" stroke-dasharray="1,1" x1="69" y1="250.5" x2="102" y2="250.5"/>
	<line fill="none" stroke="#7D7A76" stroke-miterlimit="10" stroke-dasharray="1,1" x1="116" y1="250.5" x2="150" y2="250.5"/>
	
		<circle fill="none" stroke="#00A2C7" stroke-width="0.8987" stroke-miterlimit="10" stroke-dasharray="0.8987,0.8987" cx="109.63" cy="250.92" r="2.696"/>
</g>
</svg>
