<?xml version="1.0" encoding="utf-8"?>
<!-- Generator: Adobe Illustrator 15.0.0, SVG Export Plug-In . SVG Version: 6.00 Build 0)  -->
<!DOCTYPE svg PUBLIC "-//W3C//DTD SVG 1.1//EN" "http://www.w3.org/Graphics/SVG/1.1/DTD/svg11.dtd">
<svg version="1.1" xmlns="http://www.w3.org/2000/svg" xmlns:xlink="http://www.w3.org/1999/xlink" x="0px" y="0px" width="449px"
	 height="135px" viewBox="0 0 449 135" enable-background="new 0 0 449 135" xml:space="preserve">
<g id="Layer_2" display="none">
	<rect display="inline" width="449" height="135"/>
</g>
<g id="Layer_5">
	<path fill="#534741" d="M130,87.308C130,93.766,124.765,99,118.308,99H13.692C7.235,99,2,93.766,2,87.308V51.692
		C2,45.235,7.235,40,13.692,40h104.615C124.765,40,130,45.235,130,51.692V87.308z"/>
</g>
<g id="Layer_4" display="none">
	<g display="inline">
		<g>
			<g>
				<g>
					<path fill="#FFFFFF" d="M91.375,95.869c2.314-2.855,4.926-5.217,7.6-7.518c-0.094,2.705-0.056,5.289,0.254,7.488
						c0.242,1.712,0.639,3.146,1.207,4.333c0.568,1.189,1.319,2.213,2.397,3.257c1.078,1.034,2.475,2.049,4.085,2.997
						c0.786,0.464,1.699,0.958,2.504,1.355c0.621,0.308,1.36,0.6,2.167,0.862c3.27,1.061,7.427,1.604,11.652,1.883
						c4.259,0.282,8.687,0.311,13.243,0.306c2.284,0,4.599-0.014,7.021,0.025l3.516,0.096c1.094,0.029,2.177,0.046,3.246,0.047
						c4.236,0.009,8.433-0.256,11.333-1.155c0.712-0.221,1.328-0.472,1.828-0.736c0.513-0.274,0.833-0.505,1.197-0.829
						c0.344-0.314,0.644-0.677,0.893-1.07c0.26-0.409,0.528-0.951,0.761-1.586c0.116-0.32,0.226-0.666,0.328-1.032l0.096-0.366
						l0.126-0.531l0.268-1.245l-5.222-1.069c2.517-1.388,5.034-3.112,7.528-4.858c2.495-1.762,4.977-3.59,7.437-5.463
						c1.875,2.464,3.719,4.965,5.528,7.525c1.803,2.574,3.585,5.164,5.228,8.064l-5.22-1.069l-0.339,1.573l-0.208,0.872l-0.189,0.72
						c-0.206,0.739-0.441,1.488-0.718,2.247c-0.559,1.519-1.277,3.063-2.247,4.593c-0.98,1.544-2.16,2.963-3.51,4.196
						c-1.33,1.225-2.914,2.31-4.43,3.107c-1.529,0.81-3.059,1.402-4.538,1.86c-2.963,0.903-5.725,1.302-8.354,1.548
						c-2.63,0.238-5.139,0.301-7.593,0.301c-1.226-0.002-2.438-0.021-3.639-0.052l-3.367-0.093c-2.167-0.035-4.443-0.024-6.75-0.023
						c-4.623,0.002-9.383-0.018-14.287-0.34c-4.916-0.357-9.958-0.877-15.452-2.616c-1.375-0.449-2.781-0.989-4.22-1.697
						c-1.251-0.621-2.358-1.222-3.55-1.921c-2.339-1.384-4.718-3.035-6.959-5.179c-2.234-2.13-4.282-4.839-5.676-7.805
						c-1.414-2.964-2.167-6.029-2.565-8.857c-0.503-3.659-0.499-7.01-0.397-10.205C85.888,90.7,88.51,93.552,91.375,95.869z"/>
				</g>
			</g>
		</g>
	</g>
	<text transform="matrix(1 0 0 1 110.7598 121.5928)" display="inline" font-family="'Georgia'" font-size="13.5047">bottom</text>
</g>
<g id="Layer_1">
	<g>
		<path fill="#A6E2F2" d="M69,70.876C69,74.258,66.258,77,62.875,77H27.125C23.742,77,21,74.258,21,70.876v-3.752
			C21,63.742,23.742,61,27.125,61h35.751C66.258,61,69,63.742,69,67.124V70.876z"/>
		<path fill="#FFBB33" d="M118,70.876c0,3.382-2.742,6.124-6.125,6.124H82.125C78.742,77,76,74.258,76,70.876v-3.752
			C76,63.742,78.742,61,82.125,61h29.751c3.382,0,6.125,2.742,6.125,6.124V70.876z"/>
		<text transform="matrix(1 0 0 1 26.3203 72.8936)" font-family="'Georgia'" font-size="10.6749">myVar</text>
		<text transform="matrix(1 0 0 1 85.3721 72.8936)" fill="#FFFFFF" font-family="'Georgia'" font-size="10.6749">hello</text>
	</g>
	<text transform="matrix(1 0 0 1 62.3491 36.0679)" fill="#FFFFFF" font-family="'Georgia'" font-size="10.6749">src</text>
	<text transform="matrix(1 0 0 1 11.3379 57.6211)" fill="#FFFFFF" font-family="'Georgia'" font-size="10.6749">{</text>
	<text transform="matrix(1 0 0 1 13.3394 87.916)" fill="#FFFFFF" font-family="'Georgia'" font-size="10.6749">}</text>
	<text transform="matrix(1 0 0 1 195.668 36.0679)" fill="#FFFFFF" font-family="'Georgia'" font-size="10.6749">target</text>
	<g>
		<g>
			<g>
				<polygon fill="#FFFFFF" points="284.085,69.001 277.073,62 285.044,62 299.48,62 302,62 302,57.559 313.805,69.366 302,81.168 
					302,76 299.48,76 285.044,76 277.073,76 				"/>
			</g>
		</g>
	</g>
	<path fill="#534741" d="M270,87.308C270,93.766,264.766,99,258.309,99H153.691C147.234,99,142,93.766,142,87.308V51.692
		C142,45.235,147.234,40,153.691,40h104.617C264.766,40,270,45.235,270,51.692V87.308z"/>
	<text transform="matrix(1 0 0 1 151.1787 57.6211)" fill="#FFFFFF" font-family="'Georgia'" font-size="10.6749">{</text>
	<text transform="matrix(1 0 0 1 153.1802 87.916)" fill="#FFFFFF" font-family="'Georgia'" font-size="10.6749">}</text>
	<g>
		<path fill="#A6E2F2" d="M209,70.876c0,3.382-2.742,6.124-6.125,6.124h-35.751c-3.382,0-6.125-2.742-6.125-6.124v-3.752
			c0-3.382,2.742-6.124,6.125-6.124h35.751c3.382,0,6.125,2.742,6.125,6.124V70.876z"/>
		<path fill="#E46C26" d="M258,70.876c0,3.382-2.742,6.124-6.125,6.124h-29.751c-3.382,0-6.125-2.742-6.125-6.124v-3.752
			c0-3.382,2.742-6.124,6.125-6.124h29.751c3.382,0,6.125,2.742,6.125,6.124V70.876z"/>
		<text transform="matrix(1 0 0 1 165.9106 72.8936)" font-family="'Georgia'" font-size="10.6749">myVar</text>
		<text transform="matrix(1 0 0 1 225.8311 72.8936)" fill="#FFFFFF" font-family="'Georgia'" font-size="10.6749">true</text>
	</g>
	<text transform="matrix(1 0 0 1 371.668 36.0679)" fill="#FFFFFF" font-family="'Georgia'" font-size="10.6749">target</text>
	<path fill="#534741" d="M446,87.308C446,93.766,440.766,99,434.309,99H329.691C323.234,99,318,93.766,318,87.308V51.692
		C318,45.235,323.234,40,329.691,40h104.617C440.766,40,446,45.235,446,51.692V87.308z"/>
	<g>
		<path fill="#A6E2F2" d="M385,70.876c0,3.382-2.742,6.124-6.125,6.124h-35.75c-3.383,0-6.125-2.742-6.125-6.124v-3.752
			c0-3.382,2.742-6.124,6.125-6.124h35.75c3.383,0,6.125,2.742,6.125,6.124V70.876z"/>
		<path fill="#FFBB33" d="M434,70.876c0,3.382-2.742,6.124-6.125,6.124h-29.75c-3.383,0-6.125-2.742-6.125-6.124v-3.752
			c0-3.382,2.742-6.124,6.125-6.124h29.75c3.383,0,6.125,2.742,6.125,6.124V70.876z"/>
		<text transform="matrix(1 0 0 1 342.3203 72.8936)" font-family="'Georgia'" font-size="10.6749">myVar</text>
		<text transform="matrix(1 0 0 1 401.3721 72.8936)" fill="#FFFFFF" font-family="'Georgia'" font-size="10.6749">hello</text>
	</g>
	<text transform="matrix(1 0 0 1 327.1787 57.6211)" fill="#FFFFFF" font-family="'Georgia'" font-size="10.6749">{</text>
	<text transform="matrix(1 0 0 1 329.1797 87.916)" fill="#FFFFFF" font-family="'Georgia'" font-size="10.6749">}</text>
</g>
<g id="Layer_3">
	<g>
		<g>
			<g>
				<g>
					<path fill="#FFFFFF" d="M99.896,44.785c-2.504,2.16-4.875,4.626-7.122,7.251c-0.099-2.893-0.06-5.842,0.218-8.853
						c0.485-5.107,1.614-10.506,4.352-15.675c1.365-2.566,3.15-5.036,5.324-7.15c2.173-2.125,4.677-3.858,7.344-5.17
						c2.841-1.38,5.53-2.106,8.119-2.654c2.589-0.533,5.086-0.844,7.536-1.061c4.891-0.421,9.608-0.458,14.188-0.46
						c2.284-0.001,4.539,0.013,6.681-0.02l1.572-0.039c0.633-0.02,1.307-0.034,1.965-0.03c1.326,0.007,2.667,0.062,4.022,0.192
						c2.708,0.254,5.481,0.783,8.227,1.708c2.741,0.923,5.453,2.264,7.907,4.049c2.456,1.781,4.627,4,6.353,6.462
						c1.732,2.462,3.028,5.144,3.938,7.86c0.228,0.68,0.433,1.362,0.616,2.046l0.164,0.637l0.181,0.761l0.304,1.415l4.696-0.962
						c-1.478,2.608-3.082,4.938-4.703,7.253c-1.627,2.303-3.286,4.551-4.973,6.767c-2.211-1.685-4.442-3.329-6.685-4.913
						c-2.243-1.571-4.505-3.122-6.768-4.369l4.694-0.962l-0.241-1.12l-0.119-0.501l-0.099-0.384c-0.11-0.41-0.231-0.812-0.363-1.207
						c-1.062-3.168-2.825-5.691-5.241-7.44c-2.41-1.762-5.593-2.806-9.201-3.139c-0.899-0.086-1.824-0.125-2.762-0.13
						c-0.474-0.002-0.933,0.007-1.432,0.022l-1.824,0.044c-2.387,0.037-4.663,0.021-6.908,0.022c-4.477,0-8.83,0.048-12.968,0.407
						c-2.062,0.181-4.066,0.44-5.915,0.823c-1.839,0.377-3.545,0.897-4.78,1.509c-2.822,1.396-4.95,3.463-6.472,6.328
						c-1.532,2.855-2.408,6.485-2.763,10.37c-0.211,2.282-0.25,4.657-0.167,7.074C104.381,49.502,102.055,47.287,99.896,44.785z"/>
				</g>
			</g>
		</g>
		<text transform="matrix(1 0 0 1 132.1304 20.5381)" font-family="'Georgia'" font-size="10.6749">up</text>
	</g>
</g>
</svg>
