<?xml version="1.0" encoding="utf-8"?>
<!-- Generator: Adobe Illustrator 15.0.0, SVG Export Plug-In . SVG Version: 6.00 Build 0)  -->
<!DOCTYPE svg PUBLIC "-//W3C//DTD SVG 1.1//EN" "http://www.w3.org/Graphics/SVG/1.1/DTD/svg11.dtd">
<svg version="1.1" xmlns="http://www.w3.org/2000/svg" xmlns:xlink="http://www.w3.org/1999/xlink" x="0px" y="0px" width="449px"
	 height="135px" viewBox="0 0 449 135" enable-background="new 0 0 449 135" xml:space="preserve">
<g id="Layer_2" display="none">
	<rect y="11" display="inline" width="449" height="119"/>
</g>
<g id="Layer_1">
	<path fill="#534741" d="M130,96.308c0,6.458-5.235,11.692-11.692,11.692H13.692C7.235,108,2,102.766,2,96.308V60.692
		C2,54.235,7.235,49,13.692,49h104.615C124.765,49,130,54.235,130,60.692V96.308z"/>
	<g>
		<path fill="#A6E2F2" d="M69,79.876C69,83.258,66.258,86,62.875,86H27.125C23.742,86,21,83.258,21,79.876v-3.752
			C21,72.742,23.742,70,27.125,70h35.751C66.258,70,69,72.742,69,76.124V79.876z"/>
		<path fill="#FFBB33" d="M118,79.876c0,3.382-2.742,6.124-6.125,6.124H82.125C78.742,86,76,83.258,76,79.876v-3.752
			C76,72.742,78.742,70,82.125,70h29.751c3.382,0,6.125,2.742,6.125,6.124V79.876z"/>
		<text transform="matrix(1 0 0 1 26.3203 81.8936)" font-family="'Georgia'" font-size="10.6749">myVar</text>
		<text transform="matrix(1 0 0 1 85.3721 81.8936)" fill="#FFFFFF" font-family="'Georgia'" font-size="10.6749">hello</text>
	</g>
	<text transform="matrix(1 0 0 1 62.3491 45.0679)" fill="#FFFFFF" font-family="'Georgia'" font-size="10.6749">src</text>
	<text transform="matrix(1 0 0 1 11.3379 66.6211)" fill="#FFFFFF" font-family="'Georgia'" font-size="10.6749">{</text>
	<text transform="matrix(1 0 0 1 13.3394 96.916)" fill="#FFFFFF" font-family="'Georgia'" font-size="10.6749">}</text>
	<path fill="#534741" d="M270,96.308c0,6.458-5.234,11.692-11.691,11.692H153.691C147.234,108,142,102.766,142,96.308V60.692
		C142,54.235,147.234,49,153.691,49h104.617C264.766,49,270,54.235,270,60.692V96.308z"/>
	<text transform="matrix(1 0 0 1 151.1787 66.6211)" fill="#FFFFFF" font-family="'Georgia'" font-size="10.6749">{</text>
	<text transform="matrix(1 0 0 1 153.1802 96.916)" fill="#FFFFFF" font-family="'Georgia'" font-size="10.6749">}</text>
	<path fill="#534741" d="M446,103.308c0,6.458-5.234,11.692-11.692,11.692H329.692c-6.458,0-11.692-5.234-11.692-11.692V52.692
		C318,46.235,323.234,41,329.692,41h104.615C440.766,41,446,46.235,446,52.692V103.308z"/>
	<path fill="#A6E2F2" d="M390,89.875c0,3.383-2.742,6.125-6.124,6.125h-35.752c-3.382,0-6.124-2.742-6.124-6.125v-3.75
		c0-3.383,2.742-6.125,6.124-6.125h35.752c3.382,0,6.124,2.742,6.124,6.125V89.875z"/>
	<path fill="#FFBB33" d="M438,89.875c0,3.383-2.742,6.125-6.125,6.125h-29.75c-3.383,0-6.125-2.742-6.125-6.125v-3.75
		c0-3.383,2.742-6.125,6.125-6.125h29.75c3.383,0,6.125,2.742,6.125,6.125V89.875z"/>
	<text transform="matrix(1 0 0 1 347.2031 92.1035)" font-family="'Georgia'" font-size="10.6749">myVar</text>
	<text transform="matrix(1 0 0 1 406.2559 92.1016)" fill="#FFFFFF" font-family="'Georgia'" font-size="10.6749">hello</text>
	<text transform="matrix(1 0 0 1 371.623 37.2603)" fill="#FFFFFF" font-family="'Georgia'" font-size="10.6749">target</text>
	<text transform="matrix(1 0 0 1 326.8848 57.7461)" fill="#FFFFFF" font-family="'Georgia'" font-size="10.6749">{</text>
	<text transform="matrix(1 0 0 1 328.8867 105.3887)" fill="#FFFFFF" font-family="'Georgia'" font-size="10.6749">}</text>
	<path fill="#A6E2F2" d="M389,71.875c0,3.383-2.742,6.125-6.125,6.125h-35.75c-3.383,0-6.125-2.742-6.125-6.125v-3.75
		c0-3.383,2.742-6.125,6.125-6.125h35.75c3.383,0,6.125,2.742,6.125,6.125V71.875z"/>
	<path fill="#E46C26" d="M438,71.875c0,3.383-2.742,6.125-6.124,6.125h-29.752c-3.382,0-6.124-2.742-6.124-6.125v-3.75
		c0-3.383,2.742-6.125,6.124-6.125h29.752c3.382,0,6.124,2.742,6.124,6.125V71.875z"/>
	<text transform="matrix(1 0 0 1 346.3379 73.02)" font-family="'Georgia'" font-size="10.6749">myBool</text>
	<text transform="matrix(1 0 0 1 406.2559 73.019)" fill="#FFFFFF" font-family="'Georgia'" font-size="10.6749">true</text>
	<g>
		<path fill="#A6E2F2" d="M209,79.876c0,3.382-2.742,6.124-6.125,6.124h-35.751c-3.382,0-6.125-2.742-6.125-6.124v-3.752
			c0-3.382,2.742-6.124,6.125-6.124h35.751c3.382,0,6.125,2.742,6.125,6.124V79.876z"/>
		<path fill="#E46C26" d="M258,79.876c0,3.382-2.742,6.124-6.125,6.124h-29.751c-3.382,0-6.125-2.742-6.125-6.124v-3.752
			c0-3.382,2.742-6.124,6.125-6.124h29.751c3.382,0,6.125,2.742,6.125,6.124V79.876z"/>
		<text transform="matrix(1 0 0 1 165.9106 81.8936)" font-family="'Georgia'" font-size="10.6749">myBool</text>
		<text transform="matrix(1 0 0 1 225.8311 81.8936)" fill="#FFFFFF" font-family="'Georgia'" font-size="10.6749">true</text>
	</g>
	<text transform="matrix(1 0 0 1 195.668 45.0679)" fill="#FFFFFF" font-family="'Georgia'" font-size="10.6749">target</text>
	<g>
		<g>
			<g>
				<polygon fill="#FFFFFF" points="284.085,78.001 277.073,71 285.044,71 299.48,71 302,71 302,66.559 313.805,78.366 302,90.169 
					302,85 299.48,85 285.044,85 277.073,85 				"/>
			</g>
		</g>
	</g>
	<g>
		<g>
			<g>
				<g>
					<path fill="#FFFFFF" d="M99.896,53.785c-2.504,2.16-4.875,4.626-7.122,7.251c-0.099-2.893-0.06-5.842,0.218-8.853
						c0.485-5.107,1.614-10.506,4.352-15.675c1.365-2.566,3.15-5.036,5.324-7.15c2.173-2.125,4.677-3.858,7.344-5.17
						c2.841-1.38,5.53-2.106,8.119-2.654c2.589-0.533,5.086-0.844,7.536-1.061c4.891-0.421,9.608-0.458,14.188-0.46
						c2.284-0.001,4.539,0.013,6.681-0.02l1.572-0.039c0.633-0.02,1.307-0.034,1.965-0.03c1.326,0.007,2.667,0.062,4.022,0.192
						c2.708,0.254,5.481,0.783,8.227,1.708c2.741,0.923,5.453,2.264,7.907,4.049c2.456,1.781,4.627,4,6.353,6.462
						c1.732,2.462,3.028,5.144,3.938,7.86c0.228,0.68,0.433,1.362,0.616,2.046l0.164,0.637l0.181,0.761l0.304,1.415l4.696-0.962
						c-1.478,2.608-3.082,4.938-4.703,7.253c-1.627,2.303-3.286,4.551-4.973,6.767c-2.211-1.685-4.442-3.329-6.685-4.913
						c-2.243-1.571-4.505-3.122-6.768-4.369l4.694-0.962l-0.241-1.12l-0.119-0.501l-0.099-0.384c-0.11-0.41-0.231-0.812-0.363-1.207
						c-1.062-3.168-2.825-5.691-5.241-7.44c-2.41-1.762-5.593-2.806-9.201-3.139c-0.899-0.086-1.824-0.125-2.762-0.13
						c-0.474-0.002-0.933,0.007-1.432,0.022l-1.824,0.044c-2.387,0.037-4.663,0.021-6.908,0.022c-4.477,0-8.83,0.048-12.968,0.407
						c-2.062,0.181-4.066,0.44-5.915,0.823c-1.839,0.377-3.545,0.897-4.78,1.509c-2.822,1.396-4.95,3.463-6.472,6.328
						c-1.532,2.855-2.408,6.485-2.763,10.37c-0.211,2.282-0.25,4.657-0.167,7.074C104.381,58.502,102.055,56.287,99.896,53.785z"/>
				</g>
			</g>
		</g>
		<text transform="matrix(1 0 0 1 132.1304 29.5381)" font-family="'Georgia'" font-size="10.6749">up</text>
	</g>
</g>
</svg>
