<?xml version="1.0" encoding="utf-8"?>
<!-- Generator: Adobe Illustrator 15.0.0, SVG Export Plug-In . SVG Version: 6.00 Build 0)  -->
<!DOCTYPE svg PUBLIC "-//W3C//DTD SVG 1.1//EN" "http://www.w3.org/Graphics/SVG/1.1/DTD/svg11.dtd">
<svg version="1.1" xmlns="http://www.w3.org/2000/svg" xmlns:xlink="http://www.w3.org/1999/xlink" x="0px" y="0px" width="618px"
	 height="626px" viewBox="0 0 618 626" enable-background="new 0 0 618 626" xml:space="preserve">
<g id="Layer_2">
	<rect fill="#393532" width="618" height="626"/>
</g>
<g id="Layer_6" display="none">
	<rect x="-208" y="92" display="inline" fill="#393532" width="60" height="60"/>
	<rect x="-281" y="222" display="inline" fill="#24ABCA" width="66" height="60"/>
	<rect x="-208" y="159" display="inline" fill="#4B4641" width="60" height="56"/>
	<rect x="-142" y="158" display="inline" fill="#E08E14" width="60" height="56"/>
	<rect x="-142" y="93" display="inline" fill="#DF3000" width="60" height="56"/>
	<rect x="-208" y="222" display="inline" fill="#64CCE6" width="60" height="61"/>
	<rect x="-208" y="290" display="inline" fill="#BBC755" width="60" height="63"/>
</g>
<g id="Layer_4">
	<line fill="none" stroke="#ABA79D" stroke-miterlimit="10" stroke-dasharray="4,4" x1="41.5" y1="262" x2="41.5" y2="529"/>
	<line fill="none" stroke="#ABA79D" stroke-miterlimit="10" stroke-dasharray="4,4" x1="593.5" y1="262" x2="593.5" y2="529"/>
	<line fill="none" stroke="#ABA79D" stroke-miterlimit="10" stroke-dasharray="4,4" x1="489.5" y1="262" x2="489.5" y2="529"/>
	<line fill="none" stroke="#ABA79D" stroke-miterlimit="10" stroke-dasharray="4,4" x1="320.5" y1="262" x2="320.5" y2="530"/>
	<line fill="none" stroke="#ABA79D" stroke-miterlimit="10" stroke-dasharray="4,4" x1="434.5" y1="262" x2="434.5" y2="529"/>
	<line fill="none" stroke="#ABA79D" stroke-miterlimit="10" stroke-dasharray="4,4" x1="208.5" y1="262" x2="208.5" y2="530"/>
	<line fill="none" stroke="#54534D" stroke-miterlimit="10" stroke-dasharray="2,2" x1="15" y1="352.5" x2="610" y2="352.5"/>
	<line fill="none" stroke="#54534D" stroke-miterlimit="10" stroke-dasharray="2,2" x1="15" y1="262.5" x2="610" y2="262.5"/>
	<line fill="none" stroke="#54534D" stroke-miterlimit="10" stroke-dasharray="2,2" x1="15" y1="468.5" x2="610" y2="468.5"/>
	<line fill="none" stroke="#54534D" stroke-miterlimit="10" stroke-dasharray="2,2" x1="15" y1="529.5" x2="610" y2="529.5"/>
</g>
<g id="Layer_5">
	<path fill="#24ABCA" d="M143,334.63c0,4.07-3.299,7.37-7.37,7.37H106.37c-4.07,0-7.37-3.299-7.37-7.37v-4.261
		c0-4.07,3.299-7.37,7.37-7.37h29.261c4.07,0,7.37,3.299,7.37,7.37V334.63z"/>
	<path fill="#64CCE6" d="M257,309.63c0,4.07-3.299,7.37-7.37,7.37H220.37c-4.07,0-7.37-3.299-7.37-7.37v-4.261
		c0-4.07,3.299-7.37,7.37-7.37h29.261c4.07,0,7.37,3.299,7.37,7.37V309.63z"/>
	<path fill="#64CCE6" d="M315,309.63c0,4.07-3.299,7.37-7.369,7.37h-29.262c-4.07,0-7.369-3.299-7.369-7.37v-4.261
		c0-4.07,3.299-7.37,7.369-7.37h29.262c4.07,0,7.369,3.299,7.369,7.37V309.63z"/>
	<path fill="#24ABCA" d="M537,333.63c0,4.07-3.299,7.37-7.369,7.37h-29.262c-4.07,0-7.369-3.299-7.369-7.37v-4.261
		c0-4.07,3.299-7.37,7.369-7.37h29.262c4.07,0,7.369,3.299,7.369,7.37V333.63z"/>
	<path fill="#24ABCA" d="M593,333.63c0,4.07-3.299,7.37-7.369,7.37h-29.262c-4.07,0-7.369-3.299-7.369-7.37v-4.261
		c0-4.07,3.299-7.37,7.369-7.37h29.262c4.07,0,7.369,3.299,7.369,7.37V333.63z"/>
	<path fill="#24ABCA" d="M86,334.63c0,4.07-3.299,7.37-7.37,7.37H49.37c-4.07,0-7.37-3.299-7.37-7.37v-4.261
		c0-4.07,3.299-7.37,7.37-7.37H78.63c4.07,0,7.37,3.299,7.37,7.37V334.63z"/>
	<path fill="#24ABCA" d="M202,334.63c0,4.07-3.299,7.37-7.37,7.37H165.37c-4.07,0-7.37-3.299-7.37-7.37v-4.261
		c0-4.07,3.299-7.37,7.37-7.37h29.261c4.07,0,7.37,3.299,7.37,7.37V334.63z"/>
	<path fill="#A6E2F2" d="M370,285.631c0,4.07-3.3,7.369-7.37,7.369h-29.26c-4.07,0-7.37-3.299-7.37-7.369v-4.262
		c0-4.07,3.3-7.369,7.37-7.369h29.26c4.07,0,7.37,3.299,7.37,7.369V285.631z"/>
	<path fill="#A6E2F2" d="M428,285.631c0,4.07-3.299,7.369-7.369,7.369h-29.262c-4.07,0-7.369-3.299-7.369-7.369v-4.262
		c0-4.07,3.299-7.369,7.369-7.369h29.262c4.07,0,7.369,3.299,7.369,7.369V285.631z"/>
	<path fill="#64CCE6" d="M483,309.63c0,4.07-3.299,7.37-7.369,7.37h-29.262c-4.07,0-7.369-3.299-7.369-7.37v-4.261
		c0-4.07,3.299-7.37,7.369-7.37h29.262c4.07,0,7.369,3.299,7.369,7.37V309.63z"/>
</g>
<g id="Layer_1">
	<g>
		<path fill="none" stroke="#FFFFFF" stroke-miterlimit="10" d="M253.051,307.109c5.425-2.968,15.66-5.425,23.336,0.614"/>
		<polygon fill="#FFFFFF" stroke="#FFFFFF" stroke-miterlimit="10" points="275.645,307.172 271.315,308.104 273.119,303.534 
			275.645,307.172 		"/>
	</g>
	<path fill="#24ABCA" d="M209,457H54.5c-6.627,0-12-5.373-12-12l0,0c0-6.627,5.373-12,11-11H209"/>
	<path fill="#24ABCA" d="M490,434h89.5c7.627-1,13,4.373,13,11l0,0c0,6.627-5.373,12-12,12H490"/>
	<line fill="none" stroke="#969696" stroke-miterlimit="10" stroke-dasharray="3,3" x1="490" y1="456.5" x2="209" y2="456.5"/>
	<line fill="none" stroke="#969696" stroke-miterlimit="10" stroke-dasharray="3,3" x1="209" y1="433.5" x2="490" y2="433.5"/>
	<line fill="none" stroke="#969696" stroke-miterlimit="10" stroke-dasharray="3,3" x1="321" y1="402.5" x2="434" y2="402.5"/>
	<path fill="#64CCE6" d="M321,427H220.5c-6.627,0-12-5.373-12-12l0,0c0-6.627,5.373-12,12-12H321"/>
	<line fill="none" stroke="#969696" stroke-miterlimit="10" stroke-dasharray="3,3" x1="434" y1="426.5" x2="325" y2="426.5"/>
	<path fill="#64CCE6" d="M434,403h43.5c6.627,0,12,5.373,12,12l0,0c0,6.627-5.373,12-12,12H434"/>
	<path fill="#A6E2F2" d="M434,384c0,6.627-5.373,12-12,12h-90c-6.627,0-12-5.373-12-12l0,0c0-6.627,5.373-12,12-12h90
		C428.627,372,434,377.373,434,384L434,384z"/>
	<path fill="#BBC755" d="M593,505c0,6.627-5.373,12-12,12H54c-6.627,0-12-5.373-12-12l0,0c0-6.627,5.373-12,12-12h527
		C587.627,493,593,498.373,593,505L593,505z"/>
	<g>
		<path fill="none" stroke="#FFFFFF" stroke-miterlimit="10" d="M532.295,330.811c5.425-2.968,15.661-5.424,23.337,0.614"/>
		<polygon fill="#FFFFFF" stroke="#FFFFFF" stroke-miterlimit="10" points="554.89,330.874 550.561,331.806 552.364,327.236 
			554.89,330.874 		"/>
	</g>
	<text transform="matrix(1 0 0 1 74.6079 431.5)" fill="#E3DED0" font-family="'MyriadPro-Regular'" font-size="12">local to FS identity</text>
	<text transform="matrix(1 0 0 1 220.6079 400.5)" fill="#E3DED0" font-family="'MyriadPro-Regular'" font-size="12">local to Restful id.</text>
	<text transform="matrix(1 0 0 1 330.6079 369.5)" fill="#E3DED0" font-family="'MyriadPro-Regular'" font-size="12">local to deep chain</text>
	<text transform="matrix(1 0 0 1 47.6079 489.0981)" fill="#E3DED0" font-family="'MyriadPro-Regular'" font-size="12">“state” shared between different identities</text>
	<text transform="matrix(1 0 0 1 53.6074 448.5)" fill="#1A1917" font-family="'MyriadPro-Regular'" font-size="12">• cwd</text>
	<text transform="matrix(1 0 0 1 220.6074 418.5)" fill="#1A1917" font-family="'MyriadPro-Regular'" font-size="12">• store</text>
	<text transform="matrix(1 0 0 1 335.5 387.002)" fill="#1A1917" font-family="'MyriadPro-Regular'" font-size="12">• ...</text>
	<text transform="matrix(1 0 0 1 539.4424 255.1143)" fill="#E3DED0" font-family="'MyriadPro-Regular'" font-size="12">chain’s end</text>
	<text transform="matrix(1 0 0 1 39 254.6147)" fill="#E3DED0" font-family="'MyriadPro-Regular'" font-size="12">chain’s start</text>
	<text transform="matrix(1 0 0 1 55.6074 508.5967)" font-family="'MyriadPro-Regular'" font-size="12">• success</text>
	<text transform="matrix(1 0 0 1 119.1011 508.5)" font-family="'MyriadPro-Regular'" font-size="12">• error</text>
	<text transform="matrix(1 0 0 1 167.1011 509.5)" font-family="'MyriadPro-Regular'" font-size="12">• identities stack</text>
	<text transform="matrix(1 0 0 1 46 73.5947)"><tspan x="0" y="0" fill="#E3DED0" font-family="'MyriadPro-Bold'" font-size="12">deep</tspan><tspan x="27" y="0" fill="#E3DED0" font-family="'MyriadPro-Regular'" font-size="12">.fs(</tspan><tspan x="41.147" y="0" fill="#F78B3E" font-family="'MyriadPro-Regular'" font-size="12">”/home/myuser”</tspan><tspan x="124.101" y="0" fill="#E3DED0" font-family="'MyriadPro-Regular'" font-size="12">)</tspan><tspan x="127.509" y="0" fill="#E3DED0" font-family="'MyriadPro-Regular'" font-size="12" letter-spacing="13">	</tspan><tspan x="143.999" y="0" fill="#99968C" font-family="'MyriadPro-Regular'" font-size="12">// FS chain API, place cwd in ‘locals’</tspan><tspan x="0" y="16" fill="#E3DED0" font-family="'MyriadPro-Regular'" font-size="12">.from(</tspan><tspan x="29.915" y="16" fill="#F78B3E" font-family="'MyriadPro-Regular'" font-size="12">”./pathto/myfile.json”</tspan><tspan x="137.108" y="16" fill="#E3DED0" font-family="'MyriadPro-Regular'" font-size="12">)</tspan><tspan x="140.517" y="16" fill="#E3DED0" font-family="'MyriadPro-Regular'" font-size="12">	</tspan><tspan x="143.999" y="16" fill="#E3DED0" font-family="'MyriadPro-Regular'" font-size="12" letter-spacing="33">		</tspan><tspan x="215.999" y="16" fill="#99968C" font-family="'MyriadPro-Regular'" font-size="12">// read a json file</tspan><tspan x="0" y="32" fill="#E3DED0" font-family="'MyriadPro-Regular'" font-size="12">.rest(</tspan><tspan x="24.552" y="32" fill="#F78B3E" font-family="'MyriadPro-Regular'" font-size="12">”mystore”</tspan><tspan x="73.955" y="32" fill="#E3DED0" font-family="'MyriadPro-Regular'" font-size="12">)</tspan><tspan x="77.363" y="32" fill="#E3DED0" font-family="'MyriadPro-Regular'" font-size="12" letter-spacing="28">	</tspan><tspan x="108" y="32" fill="#E3DED0" font-family="'MyriadPro-Regular'" font-size="12" letter-spacing="33">	</tspan><tspan x="144" y="32" fill="#99968C" font-family="'MyriadPro-Regular'" font-size="12">// Restful chain API, place retrieved store in ‘locals’</tspan><tspan x="0" y="48" fill="#E3DED0" font-family="'MyriadPro-Regular'" font-size="12">.post()</tspan><tspan x="31.439" y="48" fill="#E3DED0" font-family="'MyriadPro-Regular'" font-size="12" letter-spacing="2">	</tspan><tspan x="36" y="48" fill="#E3DED0" font-family="'MyriadPro-Regular'" font-size="12" letter-spacing="33">					</tspan><tspan x="216" y="48" fill="#99968C" font-family="'MyriadPro-Regular'" font-size="12">// post the result from “myfile.json” to “mystore”</tspan><tspan x="0" y="64" fill="#E3DED0" font-family="'MyriadPro-Regular'" font-size="12">.deep()</tspan><tspan x="34.919" y="64" fill="#E3DED0" font-family="'MyriadPro-Regular'" font-size="12" letter-spacing="-1">	</tspan><tspan x="36" y="64" fill="#E3DED0" font-family="'MyriadPro-Regular'" font-size="12" letter-spacing="33">			</tspan><tspan x="144" y="64" fill="#99968C" font-family="'MyriadPro-Regular'" font-size="12">// deep chain API</tspan><tspan x="0" y="80" fill="#E3DED0" font-family="'MyriadPro-Regular'" font-size="12">.query(</tspan><tspan x="34.847" y="80" fill="#F78B3E" font-family="'MyriadPro-Regular'" font-size="12">”.//?street&amp;zip”</tspan><tspan x="109.604" y="80" fill="#E3DED0" font-family="'MyriadPro-Regular'" font-size="12">)</tspan><tspan x="113.013" y="80" fill="#E3DED0" font-family="'MyriadPro-Regular'" font-size="12" letter-spacing="28">	</tspan><tspan x="143.999" y="80" fill="#E3DED0" font-family="'MyriadPro-Regular'" font-size="12" letter-spacing="33">		</tspan><tspan x="215.999" y="80" fill="#99968C" font-family="'MyriadPro-Regular'" font-size="12">// select all adresses found in post result</tspan><tspan x="0" y="96" fill="#E3DED0" font-family="'MyriadPro-Regular'" font-size="12">.close()</tspan><tspan x="34.859" y="96" fill="#E3DED0" font-family="'MyriadPro-Regular'" font-size="12" letter-spacing="-1">	</tspan><tspan x="36" y="96" fill="#E3DED0" font-family="'MyriadPro-Regular'" font-size="12" letter-spacing="33">			</tspan><tspan x="144" y="96" fill="#99968C" font-family="'MyriadPro-Regular'" font-size="12">// close deep chain, back to Restful API</tspan><tspan x="0" y="112" fill="#E3DED0" font-family="'MyriadPro-Regular'" font-size="12">.close()</tspan><tspan x="34.859" y="112" fill="#E3DED0" font-family="'MyriadPro-Regular'" font-size="12" letter-spacing="-1">	</tspan><tspan x="36" y="112" fill="#E3DED0" font-family="'MyriadPro-Regular'" font-size="12" letter-spacing="33">			</tspan><tspan x="144" y="112" fill="#99968C" font-family="'MyriadPro-Regular'" font-size="12">// close Restful chain, back to fs API</tspan><tspan x="0" y="128" fill="#E3DED0" font-family="'MyriadPro-Regular'" font-size="12">.to(</tspan><tspan x="16.452" y="128" fill="#F78B3E" font-family="'MyriadPro-Regular'" font-size="12">”./datas/adresses.json”</tspan><tspan x="128.878" y="128" fill="#E3DED0" font-family="'MyriadPro-Regular'" font-size="12">)</tspan><tspan x="132.286" y="128" fill="#E3DED0" font-family="'MyriadPro-Regular'" font-size="12" letter-spacing="9">	</tspan><tspan x="144" y="128" fill="#E3DED0" font-family="'MyriadPro-Regular'" font-size="12" letter-spacing="33">	</tspan><tspan x="180" y="128" fill="#99968C" font-family="'MyriadPro-Regular'" font-size="12">// write adresses to files</tspan><tspan x="0" y="144" fill="#E3DED0" font-family="'MyriadPro-Regular'" font-size="12">.log();</tspan><tspan x="27.912" y="144" fill="#E3DED0" font-family="'MyriadPro-Regular'" font-size="12" letter-spacing="5">	</tspan><tspan x="36" y="144" fill="#E3DED0" font-family="'MyriadPro-Regular'" font-size="12" letter-spacing="33">				</tspan><tspan x="180" y="144" fill="#99968C" font-family="'MyriadPro-Regular'" font-size="12">// print final success or any error from any handlers</tspan></text>
	<g>
		<path fill="none" stroke="#FFFFFF" stroke-miterlimit="10" d="M81.803,331.674c5.425-2.968,15.661-5.424,23.337,0.614"/>
		<polygon fill="#FFFFFF" stroke="#FFFFFF" stroke-miterlimit="10" points="104.397,331.736 100.068,332.668 101.872,328.099 
			104.397,331.736 		"/>
	</g>
	<g>
		<path fill="none" stroke="#FFFFFF" stroke-miterlimit="10" d="M141.281,331.674c5.425-2.968,15.66-5.424,23.336,0.614"/>
		<polygon fill="#FFFFFF" stroke="#FFFFFF" stroke-miterlimit="10" points="163.875,331.736 159.546,332.668 161.35,328.099 
			163.875,331.736 		"/>
	</g>
	<g>
		<path fill="none" stroke="#FFFFFF" stroke-miterlimit="10" d="M199.623,331.674c7.062,0,2.763-26.436,20.199-23.88"/>
		<polygon fill="#FFFFFF" stroke="#FFFFFF" stroke-miterlimit="10" points="218.92,307.58 215.313,310.148 215.162,305.238 
			218.92,307.58 		"/>
	</g>
	<g>
		<path fill="none" stroke="#FFFFFF" stroke-miterlimit="10" d="M365.298,282.544c5.425-2.968,15.66-5.424,23.335,0.614"/>
		<polygon fill="#FFFFFF" stroke="#FFFFFF" stroke-miterlimit="10" points="387.892,282.607 383.562,283.539 385.366,278.969 
			387.892,282.607 		"/>
	</g>
	<g>
		<path fill="none" stroke="#FFFFFF" stroke-miterlimit="10" d="M312.87,307.109c7.062,0,2.764-26.437,20.199-23.881"/>
		<polygon fill="#FFFFFF" stroke="#FFFFFF" stroke-miterlimit="10" points="332.167,283.016 328.561,285.584 328.408,280.673 
			332.167,283.016 		"/>
	</g>
	<g>
		<path fill="none" stroke="#FFFFFF" stroke-miterlimit="10" d="M425.229,282.237c7.062,0,2.764,26.436,20.199,23.88"/>
		<polygon fill="#FFFFFF" stroke="#FFFFFF" stroke-miterlimit="10" points="444.526,306.331 440.92,303.762 440.768,308.673 
			444.526,306.331 		"/>
	</g>
	<g>
		<path fill="none" stroke="#FFFFFF" stroke-miterlimit="10" d="M481.684,305.939c7.063,0,2.765,26.436,20.199,23.881"/>
		<polygon fill="#FFFFFF" stroke="#FFFFFF" stroke-miterlimit="10" points="500.982,330.033 497.376,327.464 497.223,332.375 
			500.982,330.033 		"/>
	</g>
	<polyline fill="none" stroke="#FFFFFF" stroke-miterlimit="10" stroke-dasharray="2,2" points="37,267.5 28.5,267.5 28.5,345.5 
		37,345.5 	"/>
	<polyline fill="none" stroke="#FFFFFF" stroke-miterlimit="10" stroke-dasharray="2,2" points="37,55.5 28.5,55.5 28.5,227.5 
		37,227.5 	"/>
	<polyline fill="none" stroke="#FFFFFF" stroke-miterlimit="10" stroke-dasharray="2,2" points="37,362.5 28.5,362.5 28.5,462.5 
		37,462.5 	"/>
	<polyline fill="none" stroke="#FFFFFF" stroke-miterlimit="10" stroke-dasharray="2,2" points="37,475.5 28.5,475.5 28.5,522.5 
		37,522.5 	"/>
	<g>
		<text transform="matrix(1 0 0 1 25 573)" fill="#FFFFFF" font-family="'MyriadPro-Regular'" font-size="11">2. chain’s handlers</text>
		<text transform="matrix(1 0 0 1 25 556)" fill="#FFFFFF" font-family="'MyriadPro-Regular'" font-size="11">1. single sentence using 3 chain’s identites</text>
		<text transform="matrix(1 0 0 1 25 589)" fill="#FFFFFF" font-family="'MyriadPro-Regular'" font-size="11">3. locals variables belonging to current identity</text>
		<text transform="matrix(1 0 0 1 25 605)" fill="#FFFFFF" font-family="'MyriadPro-Regular'" font-size="11">4. common state’s variables shared by identities</text>
	</g>
	<text transform="matrix(1 0 0 1 264.75 509.5)" font-family="'MyriadPro-Regular'" font-size="12">• ...</text>
	<g>
		<text transform="matrix(1 0 0 1 191.2812 31.541)" fill="#E3DED0" font-family="'MyriadPro-Regular'" font-size="20">Chain’s identities stack by image</text>
	</g>
</g>
<g id="Layer_3">
	<text transform="matrix(1 0 0 1 106.6177 335.8018)" font-family="'MyriadPro-Regular'" font-size="11">.from()</text>
	<text transform="matrix(1 0 0 1 390.1123 286.5356)" font-family="'MyriadPro-Regular'" font-size="11">.close()</text>
	<text transform="matrix(1 0 0 1 46.5 335.665)" font-family="'MyriadPro-Regular'" font-size="11">deep.fs</text>
	<text transform="matrix(1 0 0 1 167.6177 335.8018)" font-family="'MyriadPro-Regular'" font-size="11">.rest()</text>
	<text transform="matrix(1 0 0 1 221.8213 311.1001)" font-family="'MyriadPro-Regular'" font-size="11">.post()</text>
	<text transform="matrix(1 0 0 1 278.1011 311.1484)" font-family="'MyriadPro-Regular'" font-size="11">.deep()</text>
	<text transform="matrix(1 0 0 1 332.0684 286.5356)" font-family="'MyriadPro-Regular'" font-size="11">.query()</text>
	<text transform="matrix(1 0 0 1 446.1123 310.5356)" font-family="'MyriadPro-Regular'" font-size="11">.close()</text>
	<text transform="matrix(1 0 0 1 560.667 334.8018)" font-family="'MyriadPro-Regular'" font-size="11">.log()</text>
	<text transform="matrix(1 0 0 1 505.8828 334.665)" font-family="'MyriadPro-Regular'" font-size="11">.to()</text>
	<text transform="matrix(1 0 0 1 15.4365 280.6729)" fill="#FFFFFF" font-family="'MyriadPro-Regular'" font-size="18.2997">2</text>
	<text transform="matrix(1 0 0 1 15.4365 66.6729)" fill="#FFFFFF" font-family="'MyriadPro-Regular'" font-size="18.2997">1</text>
	<text transform="matrix(1 0 0 1 15.4365 373.6729)" fill="#FFFFFF" font-family="'MyriadPro-Regular'" font-size="18.2997">3</text>
	<text transform="matrix(1 0 0 1 15.4365 487.6729)" fill="#FFFFFF" font-family="'MyriadPro-Regular'" font-size="18.2997">4</text>
</g>
</svg>
