<?xml version="1.0" encoding="utf-8"?>
<!-- Generator: Adobe Illustrator 15.0.0, SVG Export Plug-In . SVG Version: 6.00 Build 0)  -->
<!DOCTYPE svg PUBLIC "-//W3C//DTD SVG 1.1//EN" "http://www.w3.org/Graphics/SVG/1.1/DTD/svg11.dtd">
<svg version="1.1" xmlns="http://www.w3.org/2000/svg" xmlns:xlink="http://www.w3.org/1999/xlink" x="0px" y="0px" width="420px"
	 height="188px" viewBox="0 0 420 188" enable-background="new 0 0 420 188" xml:space="preserve">
<g id="Layer_1">
	<rect fill="#393532" width="420" height="188"/>
</g>
<g id="Layer_2">
	<g>
		<path fill="#FFFFFF" d="M25.142,69.289c-0.597,0.342-1.079,0.636-1.447,0.883c-0.368,0.247-0.743,0.573-1.124,0.978
			c-0.355,0.379-0.628,0.778-0.819,1.196c-0.19,0.418-0.324,0.956-0.4,1.613h0.914c0.787,0,1.406,0.194,1.856,0.581
			c0.451,0.388,0.676,0.956,0.676,1.705c0,0.533-0.2,1.032-0.6,1.495c-0.399,0.464-0.949,0.695-1.647,0.695
			c-1.092,0-1.873-0.358-2.342-1.074s-0.705-1.657-0.705-2.823c0-0.824,0.178-1.575,0.533-2.252s0.787-1.283,1.295-1.815
			c0.521-0.544,1.073-1.007,1.657-1.387s1.073-0.69,1.466-0.932L25.142,69.289z M32.188,69.289
			c-0.597,0.342-1.079,0.636-1.447,0.883c-0.368,0.247-0.743,0.573-1.124,0.978c-0.368,0.392-0.645,0.794-0.828,1.205
			c-0.185,0.412-0.314,0.946-0.391,1.604h0.914c0.787,0,1.406,0.194,1.856,0.581c0.451,0.388,0.676,0.956,0.676,1.705
			c0,0.533-0.2,1.032-0.6,1.495c-0.399,0.464-0.949,0.695-1.647,0.695c-1.092,0-1.873-0.358-2.342-1.074s-0.705-1.657-0.705-2.823
			c0-0.824,0.178-1.575,0.533-2.252s0.787-1.283,1.295-1.815c0.521-0.544,1.073-1.007,1.657-1.387s1.073-0.69,1.466-0.932
			L32.188,69.289z"/>
		<path fill="#21D7FF" d="M55.934,96.867l-6.569,0.419l-0.287-0.267v-1.752l-0.152-0.038c-0.66,0.736-1.474,1.339-2.444,1.809
			c-0.97,0.47-1.968,0.705-2.995,0.705c-1.065,0-2.095-0.238-3.09-0.714c-0.995-0.477-1.861-1.146-2.596-2.009
			c-0.748-0.876-1.341-1.93-1.778-3.161c-0.438-1.231-0.656-2.59-0.656-4.075c0-1.358,0.234-2.647,0.704-3.866
			c0.469-1.219,1.116-2.285,1.94-3.199c0.773-0.851,1.721-1.53,2.843-2.038c1.122-0.508,2.266-0.762,3.432-0.762
			c0.875,0,1.734,0.111,2.577,0.333c0.843,0.222,1.568,0.504,2.177,0.847v-6.544c0-0.534-0.089-1.021-0.267-1.459
			s-0.425-0.773-0.743-1.002c-0.355-0.242-0.835-0.416-1.438-0.524s-1.253-0.188-1.952-0.239V68.15l7.693-0.419l0.286,0.285v25.31
			c0,0.444,0.086,0.822,0.257,1.132c0.172,0.311,0.422,0.574,0.752,0.79c0.241,0.152,0.59,0.247,1.047,0.285
			s0.876,0.063,1.257,0.076V96.867z M49.041,93.573V82.585c-0.102-0.33-0.266-0.686-0.494-1.066s-0.513-0.73-0.855-1.047
			c-0.367-0.317-0.798-0.581-1.292-0.791c-0.494-0.209-1.07-0.314-1.729-0.314c-0.761,0-1.461,0.197-2.101,0.59
			s-1.207,0.958-1.701,1.695c-0.469,0.711-0.839,1.616-1.112,2.713c-0.273,1.099-0.409,2.314-0.409,3.647
			c0,1.066,0.101,2.035,0.304,2.904c0.203,0.87,0.545,1.679,1.026,2.428c0.443,0.711,1.01,1.282,1.701,1.714
			s1.511,0.647,2.461,0.647c1.014,0,1.853-0.222,2.518-0.667C48.024,94.595,48.584,94.106,49.041,93.573z"/>
		<path fill="#21D7FF" d="M78.367,105.665H68.198v-1.257c0.394-0.025,0.781-0.058,1.162-0.095c0.381-0.039,0.724-0.102,1.028-0.191
			c0.394-0.127,0.667-0.35,0.819-0.668c0.152-0.318,0.229-0.693,0.229-1.126v-6.946l-0.114-0.038
			c-0.203,0.229-0.492,0.492-0.866,0.79c-0.374,0.299-0.764,0.543-1.169,0.733c-0.507,0.267-0.995,0.473-1.464,0.619
			c-0.469,0.146-1.059,0.219-1.769,0.219c-1.141,0-2.215-0.238-3.223-0.714c-1.008-0.477-1.886-1.152-2.634-2.028
			c-0.748-0.863-1.341-1.926-1.778-3.189c-0.438-1.263-0.656-2.65-0.656-4.161c0-1.435,0.253-2.739,0.761-3.913
			c0.507-1.174,1.179-2.2,2.017-3.076c0.799-0.825,1.76-1.482,2.882-1.971c1.123-0.488,2.236-0.733,3.339-0.733
			c0.824,0,1.557,0.08,2.197,0.238c0.641,0.159,1.189,0.346,1.646,0.562c0.393,0.165,0.786,0.378,1.18,0.638
			s0.672,0.435,0.837,0.523l1.626-2.476l1.09,0.152c-0.051,0.94-0.118,2.097-0.2,3.468c-0.083,1.372-0.124,2.573-0.124,3.602v17.379
			c0,0.445,0.083,0.829,0.248,1.153c0.165,0.324,0.432,0.568,0.8,0.733c0.305,0.127,0.692,0.238,1.162,0.334
			c0.47,0.095,0.851,0.155,1.143,0.181V105.665z M71.435,93.725V82.509c-0.102-0.317-0.272-0.669-0.513-1.057
			s-0.526-0.727-0.855-1.019c-0.354-0.305-0.789-0.559-1.302-0.762s-1.105-0.305-1.777-0.305c-1.482,0-2.728,0.768-3.735,2.304
			s-1.511,3.65-1.511,6.341c0,1.066,0.098,2.031,0.294,2.895s0.536,1.669,1.017,2.418c0.456,0.711,1.033,1.279,1.729,1.704
			c0.697,0.426,1.577,0.638,2.642,0.638c0.912,0,1.691-0.193,2.338-0.581C70.409,94.7,70.966,94.246,71.435,93.725z"/>
		<path fill="#FFFFFF" d="M86.917,80.957c0,0.708-0.257,1.315-0.771,1.821c-0.515,0.506-1.127,0.759-1.838,0.759
			s-1.323-0.253-1.838-0.759c-0.514-0.506-0.771-1.113-0.771-1.821c0-0.708,0.254-1.319,0.762-1.831s1.124-0.769,1.847-0.769
			s1.339,0.256,1.847,0.769S86.917,80.249,86.917,80.957z M86.917,95.02c0,0.711-0.257,1.317-0.771,1.819
			c-0.515,0.501-1.127,0.752-1.838,0.752s-1.323-0.251-1.838-0.752c-0.514-0.501-0.771-1.108-0.771-1.819s0.257-1.324,0.771-1.837
			c0.515-0.515,1.127-0.771,1.838-0.771s1.323,0.257,1.838,0.771C86.66,93.696,86.917,94.309,86.917,95.02z"/>
		<path fill="#FFFFFF" d="M99.104,80.957c0,0.708-0.257,1.315-0.771,1.821c-0.515,0.506-1.127,0.759-1.838,0.759
			s-1.323-0.253-1.838-0.759c-0.514-0.506-0.771-1.113-0.771-1.821c0-0.708,0.254-1.319,0.762-1.831s1.124-0.769,1.847-0.769
			s1.339,0.256,1.847,0.769S99.104,80.249,99.104,80.957z M99.104,95.02c0,0.711-0.257,1.317-0.771,1.819
			c-0.515,0.501-1.127,0.752-1.838,0.752s-1.323-0.251-1.838-0.752c-0.514-0.501-0.771-1.108-0.771-1.819s0.257-1.324,0.771-1.837
			c0.515-0.515,1.127-0.771,1.838-0.771s1.323,0.257,1.838,0.771C98.847,93.696,99.104,94.309,99.104,95.02z"/>
		<path fill="#21D7FF" d="M110.492,95.02c0,0.711-0.257,1.317-0.771,1.819c-0.515,0.501-1.127,0.752-1.838,0.752
			s-1.323-0.251-1.838-0.752c-0.514-0.501-0.771-1.108-0.771-1.819s0.257-1.324,0.771-1.837c0.515-0.515,1.127-0.771,1.838-0.771
			s1.323,0.257,1.838,0.771C110.235,93.696,110.492,94.309,110.492,95.02z"/>
		<path fill="#21D7FF" d="M129.668,68.208l-13.149,37.077h-2.485l13.107-37.077H129.668z"/>
		<path fill="#21D7FF" d="M148.178,76.282c0,0.47-0.133,0.812-0.4,1.028s-0.609,0.324-1.028,0.324c-0.279,0-0.949-0.136-2.009-0.409
			s-2.25-0.486-3.57-0.638c0.571,0.787,1.104,1.444,1.6,1.971s0.908,0.968,1.238,1.323c0.343,0.368,0.609,0.692,0.8,0.971
			s0.286,0.578,0.286,0.895c0,0.343-0.152,0.641-0.457,0.895s-0.628,0.381-0.971,0.381c-0.229,0-0.444-0.067-0.647-0.2
			c-0.203-0.134-0.375-0.321-0.514-0.562c-0.203-0.368-0.403-0.958-0.6-1.771c-0.197-0.812-0.632-2.006-1.305-3.58
			c-0.609,1.511-1.035,2.708-1.276,3.59s-0.451,1.469-0.628,1.761c-0.165,0.254-0.333,0.444-0.505,0.571
			c-0.171,0.127-0.39,0.19-0.657,0.19c-0.355,0-0.683-0.121-0.981-0.362s-0.447-0.546-0.447-0.914c0-0.305,0.089-0.59,0.267-0.857
			s0.451-0.603,0.819-1.009c0.317-0.33,0.739-0.781,1.266-1.352s1.051-1.219,1.571-1.942c-1.244,0.127-2.403,0.333-3.476,0.619
			c-1.073,0.286-1.774,0.429-2.104,0.429c-0.419,0-0.762-0.104-1.028-0.314c-0.267-0.209-0.4-0.555-0.4-1.038
			c0-0.432,0.133-0.765,0.4-1s0.609-0.353,1.028-0.353c0.381,0,1.05,0.133,2.009,0.4c0.958,0.267,2.148,0.47,3.57,0.609
			c-0.495-0.673-1.016-1.311-1.562-1.914s-0.971-1.063-1.276-1.381c-0.355-0.381-0.625-0.708-0.809-0.98
			c-0.185-0.273-0.276-0.568-0.276-0.886c0-0.343,0.152-0.641,0.457-0.895s0.628-0.381,0.971-0.381c0.229,0,0.441,0.063,0.638,0.19
			c0.196,0.127,0.371,0.317,0.523,0.571c0.178,0.305,0.413,0.987,0.705,2.047s0.692,2.161,1.2,3.304
			c0.571-1.295,0.987-2.428,1.247-3.399c0.26-0.971,0.479-1.622,0.657-1.952c0.14-0.241,0.308-0.428,0.505-0.562
			c0.196-0.133,0.416-0.2,0.657-0.2c0.355,0,0.682,0.121,0.981,0.362c0.298,0.241,0.447,0.546,0.447,0.914
			c0,0.521-0.353,1.13-1.057,1.828c-0.705,0.698-1.66,1.809-2.866,3.333c1.371-0.152,2.562-0.358,3.57-0.619
			c1.01-0.26,1.679-0.391,2.009-0.391c0.419,0,0.762,0.114,1.028,0.343S148.178,75.837,148.178,76.282z"/>
		<path fill="#FFFFFF" d="M157.243,71.959c0,0.838-0.184,1.603-0.552,2.295s-0.8,1.292-1.295,1.799
			c-0.508,0.521-1.066,0.987-1.676,1.4s-1.098,0.714-1.466,0.904l-0.647-1.124c0.521-0.305,1.019-0.619,1.495-0.943
			c0.477-0.323,0.841-0.631,1.095-0.923c0.343-0.381,0.616-0.777,0.819-1.19s0.33-0.956,0.381-1.628h-0.914
			c-0.8,0-1.422-0.203-1.866-0.609s-0.667-0.971-0.667-1.695c0-0.521,0.203-1.012,0.609-1.476s0.958-0.695,1.657-0.695
			c1.079,0,1.854,0.359,2.323,1.076S157.243,70.804,157.243,71.959z M164.289,71.959c0,0.838-0.184,1.603-0.552,2.295
			s-0.8,1.292-1.295,1.799c-0.508,0.521-1.066,0.987-1.676,1.4s-1.098,0.714-1.466,0.904l-0.647-1.124
			c0.521-0.305,1.019-0.619,1.495-0.943c0.477-0.323,0.841-0.631,1.095-0.923c0.343-0.381,0.616-0.777,0.819-1.19
			s0.33-0.956,0.381-1.628h-0.914c-0.8,0-1.422-0.203-1.866-0.609s-0.667-0.971-0.667-1.695c0-0.521,0.203-1.012,0.609-1.476
			s0.958-0.695,1.657-0.695c1.079,0,1.854,0.359,2.323,1.076S164.289,70.804,164.289,71.959z"/>
		<path fill="#FFFFFF" d="M174.496,80.957c0,0.708-0.257,1.315-0.771,1.821c-0.515,0.506-1.127,0.759-1.838,0.759
			s-1.323-0.253-1.838-0.759c-0.514-0.506-0.771-1.113-0.771-1.821c0-0.708,0.254-1.319,0.762-1.831s1.124-0.769,1.847-0.769
			s1.339,0.256,1.847,0.769S174.496,80.249,174.496,80.957z M174.496,95.02c0,0.711-0.257,1.317-0.771,1.819
			c-0.515,0.501-1.127,0.752-1.838,0.752s-1.323-0.251-1.838-0.752c-0.514-0.501-0.771-1.108-0.771-1.819s0.257-1.324,0.771-1.837
			c0.515-0.515,1.127-0.771,1.838-0.771s1.323,0.257,1.838,0.771C174.238,93.696,174.496,94.309,174.496,95.02z"/>
		<path fill="#BABABA" d="M199.918,96.867l-6.569,0.419l-0.287-0.267v-1.752l-0.152-0.038c-0.66,0.736-1.474,1.339-2.444,1.809
			c-0.97,0.47-1.968,0.705-2.995,0.705c-1.065,0-2.095-0.238-3.09-0.714c-0.995-0.477-1.861-1.146-2.596-2.009
			c-0.748-0.876-1.341-1.93-1.778-3.161c-0.438-1.231-0.656-2.59-0.656-4.075c0-1.358,0.234-2.647,0.704-3.866
			c0.469-1.219,1.116-2.285,1.94-3.199c0.773-0.851,1.721-1.53,2.843-2.038c1.122-0.508,2.266-0.762,3.432-0.762
			c0.875,0,1.734,0.111,2.577,0.333c0.843,0.222,1.568,0.504,2.177,0.847v-6.544c0-0.534-0.089-1.021-0.267-1.459
			s-0.425-0.773-0.743-1.002c-0.355-0.242-0.835-0.416-1.438-0.524s-1.253-0.188-1.952-0.239V68.15l7.693-0.419l0.286,0.285v25.31
			c0,0.444,0.086,0.822,0.257,1.132c0.172,0.311,0.422,0.574,0.752,0.79c0.241,0.152,0.59,0.247,1.047,0.285
			s0.876,0.063,1.257,0.076V96.867z M193.024,93.573V82.585c-0.102-0.33-0.266-0.686-0.494-1.066s-0.513-0.73-0.855-1.047
			c-0.367-0.317-0.798-0.581-1.292-0.791c-0.494-0.209-1.07-0.314-1.729-0.314c-0.761,0-1.461,0.197-2.101,0.59
			s-1.207,0.958-1.701,1.695c-0.469,0.711-0.839,1.616-1.112,2.713c-0.273,1.099-0.409,2.314-0.409,3.647
			c0,1.066,0.101,2.035,0.304,2.904c0.203,0.87,0.545,1.679,1.026,2.428c0.443,0.711,1.01,1.282,1.701,1.714
			s1.511,0.647,2.461,0.647c1.014,0,1.853-0.222,2.518-0.667C192.008,94.595,192.568,94.106,193.024,93.573z"/>
		<path fill="#BABABA" d="M218.428,92.792c-0.787,1.498-1.841,2.691-3.161,3.58s-2.837,1.333-4.551,1.333
			c-1.511,0-2.834-0.267-3.97-0.8c-1.137-0.533-2.073-1.257-2.809-2.171s-1.286-1.98-1.647-3.199
			c-0.362-1.219-0.543-2.507-0.543-3.866c0-1.219,0.193-2.415,0.581-3.589c0.387-1.174,0.955-2.231,1.704-3.171
			c0.724-0.901,1.622-1.628,2.694-2.181c1.073-0.552,2.276-0.828,3.609-0.828c1.371,0,2.545,0.216,3.523,0.647
			s1.771,1.022,2.38,1.771c0.584,0.711,1.019,1.549,1.304,2.514c0.286,0.965,0.429,2.012,0.429,3.142v1.257h-12.435
			c0,1.234,0.117,2.354,0.352,3.359c0.235,1.005,0.606,1.889,1.114,2.653c0.495,0.738,1.143,1.32,1.942,1.746
			c0.8,0.427,1.752,0.64,2.856,0.64c1.13,0,2.104-0.265,2.923-0.794c0.819-0.53,1.609-1.483,2.371-2.862L218.428,92.792z
			 M214.219,85.632c0-0.709-0.061-1.468-0.181-2.278c-0.121-0.81-0.314-1.487-0.581-2.032c-0.292-0.582-0.692-1.057-1.2-1.424
			s-1.162-0.551-1.961-0.551c-1.333,0-2.441,0.554-3.323,1.661c-0.883,1.107-1.362,2.648-1.438,4.623H214.219z"/>
		<path fill="#BABABA" d="M237.28,92.792c-0.787,1.498-1.841,2.691-3.161,3.58s-2.837,1.333-4.551,1.333
			c-1.511,0-2.834-0.267-3.97-0.8c-1.137-0.533-2.073-1.257-2.809-2.171s-1.286-1.98-1.647-3.199
			c-0.362-1.219-0.543-2.507-0.543-3.866c0-1.219,0.193-2.415,0.581-3.589c0.387-1.174,0.955-2.231,1.704-3.171
			c0.724-0.901,1.622-1.628,2.694-2.181c1.073-0.552,2.276-0.828,3.609-0.828c1.371,0,2.545,0.216,3.523,0.647
			s1.771,1.022,2.38,1.771c0.584,0.711,1.019,1.549,1.304,2.514c0.286,0.965,0.429,2.012,0.429,3.142v1.257h-12.435
			c0,1.234,0.117,2.354,0.352,3.359c0.235,1.005,0.606,1.889,1.114,2.653c0.495,0.738,1.143,1.32,1.942,1.746
			c0.8,0.427,1.752,0.64,2.856,0.64c1.13,0,2.104-0.265,2.923-0.794c0.819-0.53,1.609-1.483,2.371-2.862L237.28,92.792z
			 M233.072,85.632c0-0.709-0.061-1.468-0.181-2.278c-0.121-0.81-0.314-1.487-0.581-2.032c-0.292-0.582-0.692-1.057-1.2-1.424
			s-1.162-0.551-1.961-0.551c-1.333,0-2.441,0.554-3.323,1.661c-0.883,1.107-1.362,2.648-1.438,4.623H233.072z"/>
		<path fill="#BABABA" d="M256.609,80.662c0.749,0.889,1.33,1.92,1.743,3.094c0.412,1.175,0.619,2.517,0.619,4.028
			c0,1.485-0.248,2.841-0.743,4.066s-1.149,2.269-1.961,3.132c-0.851,0.876-1.796,1.549-2.837,2.019s-2.146,0.705-3.313,0.705
			c-1.13,0-2.057-0.127-2.78-0.381s-1.314-0.552-1.771-0.895h-0.152v5.65c0,0.458,0.089,0.84,0.267,1.146
			c0.178,0.305,0.451,0.528,0.819,0.668c0.305,0.114,0.739,0.225,1.305,0.334c0.564,0.108,1.031,0.168,1.399,0.181v1.257h-10.493
			v-1.257c0.394-0.025,0.774-0.057,1.143-0.095s0.698-0.102,0.99-0.19c0.381-0.127,0.647-0.349,0.8-0.667s0.229-0.692,0.229-1.124
			V82.356c0-0.381-0.095-0.749-0.286-1.104s-0.438-0.641-0.743-0.857c-0.229-0.152-0.546-0.27-0.952-0.352s-0.8-0.137-1.181-0.162
			v-1.257l6.398-0.419l0.267,0.229v2.114l0.152,0.038c0.66-0.762,1.479-1.396,2.457-1.904s1.949-0.762,2.914-0.762
			c1.168,0,2.238,0.248,3.208,0.743C255.076,79.157,255.911,79.824,256.609,80.662z M253.505,94.163
			c0.508-0.787,0.882-1.701,1.124-2.742s0.362-2.203,0.362-3.485c0-0.939-0.102-1.898-0.305-2.875s-0.521-1.828-0.952-2.552
			c-0.432-0.736-0.997-1.333-1.695-1.79s-1.536-0.686-2.514-0.686c-0.939,0-1.739,0.207-2.399,0.619s-1.231,0.904-1.714,1.476V93.23
			c0.114,0.343,0.301,0.698,0.562,1.066c0.26,0.368,0.549,0.686,0.866,0.952c0.394,0.317,0.819,0.575,1.276,0.771
			c0.457,0.197,1.016,0.295,1.676,0.295c0.711,0,1.396-0.187,2.057-0.562C252.508,95.379,253.061,94.849,253.505,94.163z"/>
		<path fill="#BABABA" d="M268.263,95.02c0,0.711-0.257,1.317-0.771,1.819c-0.515,0.501-1.127,0.752-1.838,0.752
			s-1.323-0.251-1.838-0.752c-0.514-0.501-0.771-1.108-0.771-1.819s0.257-1.324,0.771-1.837c0.515-0.515,1.127-0.771,1.838-0.771
			s1.323,0.257,1.838,0.771C268.006,93.696,268.263,94.309,268.263,95.02z"/>
		<path fill="#BABABA" d="M284.64,88.012c0.521,0.457,0.92,0.984,1.2,1.581s0.419,1.327,0.419,2.19c0,1.739-0.651,3.161-1.952,4.266
			s-2.986,1.657-5.056,1.657c-1.092,0-2.098-0.197-3.019-0.59s-1.577-0.755-1.971-1.085l-0.381,1.238h-1.428l-0.19-6.532h1.314
			c0.102,0.497,0.317,1.077,0.647,1.739c0.33,0.662,0.73,1.261,1.2,1.796c0.495,0.561,1.088,1.032,1.781,1.414
			c0.691,0.382,1.469,0.573,2.333,0.573c1.219,0,2.158-0.278,2.818-0.833c0.66-0.556,0.99-1.351,0.99-2.385
			c0-0.533-0.105-0.993-0.314-1.38c-0.21-0.387-0.518-0.727-0.924-1.019c-0.419-0.292-0.933-0.555-1.542-0.791
			c-0.609-0.234-1.289-0.466-2.038-0.695c-0.597-0.178-1.26-0.422-1.99-0.733s-1.355-0.676-1.875-1.095
			c-0.559-0.444-1.016-0.99-1.371-1.638s-0.533-1.409-0.533-2.285c0-1.536,0.571-2.837,1.714-3.904s2.672-1.6,4.589-1.6
			c0.736,0,1.488,0.095,2.257,0.286c0.768,0.19,1.393,0.419,1.875,0.686l0.438-0.99h1.371l0.286,6.037h-1.314
			c-0.267-1.351-0.841-2.451-1.724-3.299c-0.882-0.848-1.958-1.271-3.228-1.271c-1.041,0-1.86,0.262-2.457,0.787
			c-0.597,0.524-0.895,1.157-0.895,1.898c0,0.571,0.098,1.047,0.295,1.428s0.492,0.705,0.886,0.971
			c0.381,0.254,0.86,0.492,1.438,0.714s1.292,0.473,2.143,0.752c0.838,0.267,1.628,0.578,2.371,0.933
			C283.545,87.187,284.158,87.581,284.64,88.012z"/>
		<path fill="#BABABA" d="M309.529,97.21h-9.236v-1.257c0.292-0.025,0.616-0.051,0.971-0.076s0.647-0.076,0.876-0.152
			c0.355-0.114,0.619-0.314,0.791-0.6c0.171-0.286,0.257-0.657,0.257-1.114v-9.655c0-1.333-0.315-2.361-0.945-3.085
			s-1.397-1.085-2.3-1.085c-0.662,0-1.275,0.104-1.842,0.314c-0.566,0.209-1.072,0.466-1.518,0.771
			c-0.433,0.317-0.763,0.635-0.993,0.952c-0.229,0.317-0.407,0.584-0.534,0.8V93.82c0,0.432,0.085,0.787,0.257,1.066
			c0.171,0.279,0.435,0.495,0.79,0.647c0.279,0.127,0.568,0.222,0.866,0.286s0.625,0.108,0.981,0.133v1.257h-9.198v-1.257
			c0.29-0.025,0.592-0.054,0.908-0.086c0.315-0.031,0.58-0.079,0.794-0.143c0.353-0.114,0.618-0.314,0.794-0.6
			c0.176-0.286,0.265-0.657,0.265-1.115V72.132c0-0.432-0.099-0.864-0.295-1.296c-0.197-0.432-0.454-0.756-0.771-0.972
			c-0.229-0.165-0.632-0.283-1.209-0.353s-1.044-0.118-1.399-0.143V68.15l6.951-0.419l0.267,0.286v13.102h0.076
			c0.419-0.419,0.801-0.791,1.145-1.114c0.343-0.324,0.794-0.664,1.354-1.019c0.483-0.305,1.052-0.559,1.707-0.762
			c0.655-0.203,1.389-0.305,2.203-0.305c1.679,0,2.969,0.53,3.872,1.59s1.354,2.586,1.354,4.58v9.769c0,0.444,0.08,0.803,0.24,1.076
			c0.16,0.273,0.425,0.485,0.796,0.638c0.294,0.114,0.559,0.2,0.795,0.257c0.237,0.058,0.547,0.099,0.93,0.124V97.21z"/>
		<path fill="#BABABA" d="M328.477,92.792c-0.787,1.498-1.841,2.691-3.161,3.58s-2.837,1.333-4.551,1.333
			c-1.511,0-2.834-0.267-3.97-0.8c-1.137-0.533-2.073-1.257-2.809-2.171s-1.286-1.98-1.647-3.199
			c-0.362-1.219-0.543-2.507-0.543-3.866c0-1.219,0.193-2.415,0.581-3.589c0.387-1.174,0.955-2.231,1.704-3.171
			c0.724-0.901,1.622-1.628,2.694-2.181c1.073-0.552,2.276-0.828,3.609-0.828c1.371,0,2.545,0.216,3.523,0.647
			s1.771,1.022,2.38,1.771c0.584,0.711,1.019,1.549,1.304,2.514c0.286,0.965,0.429,2.012,0.429,3.142v1.257h-12.435
			c0,1.234,0.117,2.354,0.352,3.359c0.235,1.005,0.606,1.889,1.114,2.653c0.495,0.738,1.143,1.32,1.942,1.746
			c0.8,0.427,1.752,0.64,2.856,0.64c1.13,0,2.104-0.265,2.923-0.794c0.819-0.53,1.609-1.483,2.371-2.862L328.477,92.792z
			 M324.269,85.632c0-0.709-0.061-1.468-0.181-2.278c-0.121-0.81-0.314-1.487-0.581-2.032c-0.292-0.582-0.692-1.057-1.2-1.424
			s-1.162-0.551-1.961-0.551c-1.333,0-2.441,0.554-3.323,1.661c-0.883,1.107-1.362,2.648-1.438,4.623H324.269z"/>
		<path fill="#BABABA" d="M347.33,92.792c-0.787,1.498-1.842,2.691-3.162,3.58c-1.32,0.889-2.837,1.333-4.551,1.333
			c-1.511,0-2.834-0.267-3.97-0.8c-1.137-0.533-2.073-1.257-2.809-2.171s-1.286-1.98-1.647-3.199
			c-0.362-1.219-0.543-2.507-0.543-3.866c0-1.219,0.193-2.415,0.581-3.589c0.387-1.174,0.955-2.231,1.704-3.171
			c0.724-0.901,1.622-1.628,2.694-2.181c1.073-0.552,2.276-0.828,3.609-0.828c1.371,0,2.545,0.216,3.523,0.647
			s1.772,1.022,2.381,1.771c0.582,0.711,1.018,1.549,1.303,2.514c0.287,0.965,0.43,2.012,0.43,3.142v1.257h-12.436
			c0,1.234,0.117,2.354,0.352,3.359c0.235,1.005,0.606,1.889,1.114,2.653c0.495,0.738,1.143,1.32,1.942,1.746
			c0.8,0.427,1.752,0.64,2.856,0.64c1.13,0,2.104-0.265,2.923-0.794c0.82-0.53,1.609-1.483,2.371-2.862L347.33,92.792z
			 M343.121,85.632c0-0.709-0.061-1.468-0.181-2.278c-0.121-0.81-0.314-1.487-0.581-2.032c-0.292-0.582-0.692-1.057-1.2-1.424
			s-1.162-0.551-1.961-0.551c-1.333,0-2.441,0.554-3.323,1.661c-0.883,1.107-1.362,2.648-1.438,4.623H343.121z"/>
		<path fill="#BABABA" d="M361.098,96.391c-0.826,0.343-1.606,0.632-2.343,0.867c-0.736,0.234-1.638,0.352-2.704,0.352
			c-1.574,0-2.682-0.397-3.323-1.19c-0.641-0.793-0.962-1.914-0.962-3.361V80.338h-3.389V78.51h3.465v-5.846h3.467v5.846h5.389
			v1.828h-5.352v10.493c0,0.787,0.029,1.444,0.086,1.971c0.058,0.527,0.193,0.987,0.41,1.38c0.202,0.368,0.507,0.647,0.914,0.838
			c0.405,0.19,0.951,0.286,1.637,0.286c0.317,0,0.784-0.028,1.4-0.086c0.615-0.057,1.05-0.13,1.305-0.219V96.391z"/>
		<path fill="#BABABA" d="M369.495,95.02c0,0.711-0.257,1.317-0.771,1.819c-0.515,0.501-1.127,0.752-1.838,0.752
			s-1.323-0.251-1.838-0.752c-0.514-0.501-0.771-1.108-0.771-1.819s0.257-1.324,0.771-1.837c0.515-0.515,1.127-0.771,1.838-0.771
			s1.323,0.257,1.838,0.771C369.238,93.696,369.495,94.309,369.495,95.02z"/>
		<path fill="#BABABA" d="M380.007,95.02c0,0.711-0.257,1.317-0.771,1.819c-0.515,0.501-1.127,0.752-1.838,0.752
			s-1.323-0.251-1.838-0.752c-0.514-0.501-0.771-1.108-0.771-1.819s0.257-1.324,0.771-1.837c0.515-0.515,1.127-0.771,1.838-0.771
			s1.323,0.257,1.838,0.771C379.75,93.696,380.007,94.309,380.007,95.02z"/>
		<path fill="#BABABA" d="M390.519,95.02c0,0.711-0.257,1.317-0.771,1.819c-0.515,0.501-1.127,0.752-1.838,0.752
			s-1.323-0.251-1.838-0.752c-0.514-0.501-0.771-1.108-0.771-1.819s0.257-1.324,0.771-1.837c0.515-0.515,1.127-0.771,1.838-0.771
			s1.323,0.257,1.838,0.771C390.262,93.696,390.519,94.309,390.519,95.02z"/>
	</g>
	<g>
		<g>
			<path fill="#FFFFFF" d="M30.656,109.062c-1.857,7.738-1.5,14.887,6.648,18.513c9.902,4.408,19.595-0.307,28.14-5.571
				c7.224-4.451,14.438-8.351,23.22-8.044c10.214,0.357,14.173,8.967,14.341,18.102c0.017,0.922,1.555,0.612,1.707-0.123
				c4.007-19.422,25.603-11.854,39.175-9.044c5.47,1.132,11.982,2.481,17.273-0.036c5.602-2.666,5.608-9.821,5.055-15.084
				c-0.083-0.787-1.77-0.373-1.684,0.451c0.793,7.545-0.746,14.415-9.429,14.738c-7.127,0.266-14.428-2.194-21.333-3.64
				c-12.993-2.72-27.512-3.02-30.764,12.738c0.569-0.041,1.138-0.082,1.707-0.123c-0.124-6.736-1.722-13.551-7.894-17.184
				c-5.016-2.952-11.505-2.315-16.904-1.015c-8.464,2.038-14.968,7.606-22.629,11.408c-7.371,3.658-15.296,4.284-22.199-0.719
				c-5.103-3.698-3.99-10.21-2.722-15.491C32.563,108.107,30.837,108.306,30.656,109.062L30.656,109.062z"/>
		</g>
	</g>
	<g>
		<g>
			<path fill="#FFFFFF" d="M178,109.504c4.453,56.193,86.036-19.365,110.864,9.178c4.17,4.794,5.737,11.45,6.574,17.578
				c0.056,0.41,1.539,0.08,1.489-0.399c-0.441-4.243-0.203-9.039,3.322-11.975c3.489-2.907,9.002-2.561,13.215-2.183
				c12.23,1.098,24.189,5.19,36.046,8.168c16.186,4.064,46.311,11.665,51.184-11.705c0.771-3.699,0.722-7.56,0.463-11.309
				c-0.026-0.387-1.522-0.097-1.488,0.399c0.832,12.083-2.492,23.777-15.865,25.96c-12.111,1.977-25.291-1.976-36.909-4.973
				c-11.224-2.896-22.609-6.617-34.239-7.394c-6.512-0.435-14.515,0.606-16.802,7.754c-0.781,2.44-0.678,5.143-0.417,7.654
				c0.497-0.133,0.993-0.266,1.489-0.399c-1.446-10.591-5.77-21.087-16.972-24.02c-9.98-2.612-21.151,0.718-30.648,3.723
				c-12.147,3.845-23.875,8.948-36.154,12.388c-9.083,2.545-21.335,5.084-28.444-2.981c-3.75-4.254-4.788-10.416-5.22-15.866
				C179.458,108.714,177.961,109.01,178,109.504L178,109.504z"/>
		</g>
	</g>
	<g>
		<g>
			<path fill="#FFFFFF" d="M38.614,59.94c0.29-6.458,4.845-5.968,9.714-4.883c2.797,0.623,5.493,1.176,8.282,0.247
				c5.671-1.89,4.812-10.063,3.989-14.553c-0.621,0.167-1.242,0.333-1.863,0.499c1.18,5.018,1.886,12.386,7.734,14.074
				c5.607,1.619,14.13-5.854,13.917,4.736c-0.021,1.019,1.875,0.774,1.894-0.12c0.114-5.65-2.431-7.978-7.98-7.062
				c-3.878,0.64-7.428,2.418-10.312-1.439c-2.187-2.924-2.575-7.227-3.389-10.688c-0.216-0.919-2.033-0.425-1.863,0.499
				c0.682,3.721,1.221,8.115-1.003,11.449c-2.356,3.531-9.142,0.735-12.41,0.227c-5.306-0.826-8.364,1.841-8.602,7.135
				C36.675,61.076,38.573,60.836,38.614,59.94L38.614,59.94z"/>
		</g>
	</g>
	<g>
		<g>
			<path fill="#FFFFFF" d="M105.329,56.7c-0.951-5.076,4.9-8.349,9.446-6.235c1.215,0.565,2.38,1.013,3.668,1.357
				c1.569,0.419,2.875,0.452,4.413,0.047c5.468-1.437,6.833-10.353,5.645-14.792c-0.106-0.396-1.758,0.09-1.818,0.487
				c-0.744,4.873,0.796,13.058,7.092,13.487c2.598,0.177,4.793-0.681,7.19-1.615c6.975-2.72,10.485,6.488,8.464,11.235
				c-0.114,0.267,1.598,0.119,1.79-0.332c2.216-5.205-1.417-12.653-7.728-12.043c-4.201,0.406-8.381,3.407-12.212,0.04
				c-3.01-2.645-3.333-7.623-2.778-11.26c-0.606,0.163-1.212,0.325-1.818,0.487c0.86,3.212,0.083,14.589-5.707,13.811
				c-3.172-0.426-5.676-2.598-8.885-2.776c-4.346-0.241-9.38,4.318-8.581,8.588C103.576,57.537,105.408,57.119,105.329,56.7
				L105.329,56.7z"/>
		</g>
	</g>
	<g>
		<g>
			<g>
				<path fill="#FFFFFF" d="M61.347,135.051c-2.971,2.052-3.13,5.724-0.351,8.062c1.061,0.893,2.462,1.131,3.773,0.723
					c1.739-0.541,2.436-1.971,2.708-3.683c-0.599,0.16-1.198,0.321-1.796,0.481c1.649,1.853,4.065,3.082,6.212,1.191
					c2.156-1.9,0.403-5.703-1.11-7.342c-0.343-0.372-2.084,0.292-1.75,0.654c1.322,1.433,2.145,3.343,1.847,5.315
					c-0.042,0.283-0.371,1.573-0.789,1.502c-1.077-0.182-1.979-1.209-2.66-1.975c-0.272-0.306-1.73,0.066-1.796,0.481
					c-0.089,0.564-0.497,2.795-1.279,2.756c-0.968-0.048-1.851-0.894-2.434-1.589c-1.753-2.089-1.353-4.939,0.867-6.473
					C63.578,134.61,61.703,134.805,61.347,135.051L61.347,135.051z"/>
			</g>
		</g>
		<g>
			<g>
				<path fill="#FFFFFF" d="M73.417,134.838c0.813,2.944,0.973,5.964,1.101,9c0.028,0.664,1.896,0.27,1.863-0.499
					c-0.129-3.037-0.288-6.057-1.101-9C75.084,133.629,73.223,134.132,73.417,134.838L73.417,134.838z"/>
			</g>
		</g>
		<g>
			<g>
				<path fill="#FFFFFF" d="M74.387,139.332c2.114-0.452,4.189-1.063,6.215-1.819c1.25-0.467,0.054-0.589-0.621-0.337
					c-1.705,0.636-3.444,1.173-5.225,1.554c-0.314,0.067-0.912,0.169-1.1,0.477C73.498,139.464,74.328,139.344,74.387,139.332
					L74.387,139.332z"/>
			</g>
		</g>
		<g>
			<g>
				<path fill="#FFFFFF" d="M78.99,131.994c-0.585,3.379-1.404,7.452-0.568,10.85c0.137,0.559,2.004,0.073,1.863-0.499
					c-0.822-3.343-0.02-7.285,0.558-10.621C80.95,131.102,79.086,131.436,78.99,131.994L78.99,131.994z"/>
			</g>
		</g>
		<g>
			<g>
				<path fill="#FFFFFF" d="M84.73,142.271c0.074-2.143,0.138-4.19,1.382-6.024c-0.579,0.11-1.158,0.22-1.736,0.33
					c1.696,2.544,2.804,5.597,2.724,8.684c-0.022,0.855,1.854,0.499,1.872-0.199c0.086-3.318-1.049-6.507-2.875-9.248
					c-0.36-0.54-1.467-0.067-1.736,0.33c-1.305,1.923-1.424,4.066-1.502,6.328C82.829,143.324,84.707,142.971,84.73,142.271
					L84.73,142.271z"/>
			</g>
		</g>
		<g>
			<g>
				<path fill="#FFFFFF" d="M84.095,143.597c1.652-0.866,3.389-1.28,5.224-1.555c0.417-0.062,0.968-0.273,1.022-0.768
					c0.049-0.452-0.487-0.694-0.868-0.637c-2.173,0.325-4.254,0.793-6.214,1.82C82.135,143.047,83.145,144.095,84.095,143.597
					L84.095,143.597z"/>
			</g>
		</g>
		<g>
			<g>
				<path fill="#FFFFFF" d="M90.598,137.23c0.524,1.779,1.582,4.27,0.912,6.117c-0.244,0.673,1.631,0.438,1.868-0.215
					c0.708-1.953-0.365-4.529-0.917-6.401C92.255,136.034,90.396,136.545,90.598,137.23L90.598,137.23z"/>
			</g>
		</g>
		<g>
			<g>
				<path fill="#FFFFFF" d="M89.004,138.15c2.623-2.051,5.5-3.523,8.685-4.495c1.075-0.328,0.911-0.992-0.177-0.66
					c-3.626,1.107-6.956,2.7-9.95,5.042C86.792,138.639,88.654,138.424,89.004,138.15L89.004,138.15z"/>
			</g>
		</g>
		<g>
			<g>
				<path fill="#FFFFFF" d="M107.274,140.548c0.464,3.235,0.847,6.481,1.312,9.716c0.045,0.317,1.925-0.068,1.863-0.499
					c-0.465-3.235-0.847-6.481-1.312-9.716C109.092,139.732,107.213,140.118,107.274,140.548L107.274,140.548z"/>
			</g>
		</g>
		<g>
			<g>
				<path fill="#FFFFFF" d="M105.798,141.323c2.386-2.578,5.587-3.971,9.121-3.764c0.361,0.021,2.121-0.653,1.223-0.706
					c-4.391-0.258-9.013,1.4-12.021,4.648C103.773,141.878,105.514,141.63,105.798,141.323L105.798,141.323z"/>
			</g>
		</g>
		<g>
			<g>
				<path fill="#FFFFFF" d="M111.762,145.617c-0.395,2.893,2.89,4.263,5.286,3.648c2.203-0.565,3.507-3.571,1.653-5.241
					c-1.504-1.354-4.087-1.241-5.843-0.537c-0.789,0.316-1.56,0.898-1.793,1.748c-0.297,1.079,0.687,2.129,1.398,2.78
					c0.493,0.451,2.244-0.263,1.729-0.734c-0.728-0.666-2.031-2.141-0.743-2.936c0.897-0.554,2.312-0.283,3.177,0.177
					c1.302,0.693,1.434,2.69,0.375,3.668c-0.571,0.526-1.708-0.047-2.231-0.367c-0.84-0.514-1.274-1.476-1.144-2.435
					C113.729,144.636,111.85,144.973,111.762,145.617L111.762,145.617z"/>
			</g>
		</g>
		<g>
			<g>
				<path fill="#FFFFFF" d="M82.65,155.633c-0.919-2.871-4.593,0.092-5.518,1.404c-1.353,1.918-1.74,4.646-0.414,6.667
					c1.081,1.646,3.225,1.957,5,1.551c2.655-0.605,4.347-3.11,5.271-5.481c0.36-0.924-1.501-0.766-1.755-0.115
					c-0.905,2.322-3.159,5.948-6.058,4.043c-1.004-0.66-1.401-1.973-1.412-3.11c-0.006-0.694,0.176-1.38,0.388-2.035
					c0.192-0.596,2.216-3.729,2.633-2.425C81.025,156.877,82.882,156.358,82.65,155.633L82.65,155.633z"/>
			</g>
		</g>
		<g>
			<g>
				<path fill="#FFFFFF" d="M88.18,163.952c-0.834-1.297-1.02-2.861-0.661-4.345c0.189-0.783,0.582-1.515,1.447-1.152
					c0.716,0.3,1.352,0.896,1.798,1.522c1.383,1.943,1.863,4.839,2.28,7.149c0.131,0.727,2.001,0.264,1.863-0.499
					c-0.588-3.258-1.346-7.829-4.772-9.264c-1.58-0.662-3.3,0.066-4.125,1.502c-1.016,1.77-0.604,4.215,0.449,5.851
					C86.84,165.308,88.641,164.669,88.18,163.952L88.18,163.952z"/>
			</g>
		</g>
		<g>
			<g>
				<path fill="#FFFFFF" d="M88.604,165.252c2.358-2.094,5.237-3.102,8.249-3.861c1.123-0.283,0.874-1.191-0.243-0.909
					c-3.453,0.871-6.795,2.083-9.495,4.48C86.311,165.676,88.162,165.645,88.604,165.252L88.604,165.252z"/>
			</g>
		</g>
		<g>
			<g>
				<path fill="#FFFFFF" d="M97.217,157.037c0.448,3.107,0.798,6.281,2.085,9.177c0.354,0.797,2.197,0.252,1.863-0.499
					c-1.287-2.896-1.637-6.069-2.085-9.177C98.961,155.713,97.093,156.175,97.217,157.037L97.217,157.037z"/>
			</g>
		</g>
		<g>
			<g>
				<path fill="#FFFFFF" d="M93.769,159.528c2.883-1.452,5.764-2.874,8.9-3.695c1.153-0.302,0.809-1.58-0.343-1.278
					c-3.301,0.864-6.348,2.345-9.383,3.874C91.806,159.001,92.826,160.003,93.769,159.528L93.769,159.528z"/>
			</g>
		</g>
		<g>
			<g>
				<path fill="#FFFFFF" d="M107.234,156.848c-2.902,0.991-4.774,4.213-3.358,7.149c0.586,1.215,1.767,1.723,3.072,1.562
					c2.133-0.263,3.735-1.819,4.978-3.455c0.419-0.551-1.407-0.308-1.702,0.081c-0.558,0.733-1.824,2.608-2.92,2.556
					c-0.914-0.044-1.501-0.982-1.775-1.747c-0.752-2.1,0.182-4.859,2.38-5.61c0.131-0.045,0.828-0.369,0.536-0.601
					C108.142,156.542,107.546,156.742,107.234,156.848L107.234,156.848z"/>
			</g>
		</g>
		<g>
			<g>
				<path fill="#FFFFFF" d="M110.484,156.699c0.33,2.912,0.895,6.175,2.144,8.848c0.23,0.493,2.032-0.138,1.863-0.499
					c-1.25-2.673-1.813-5.936-2.144-8.848C112.301,155.791,110.424,156.167,110.484,156.699L110.484,156.699z"/>
			</g>
		</g>
		<g>
			<g>
				<path fill="#FFFFFF" d="M110.03,162.186c3.727-0.21,8.134-1.521,7.743-6.033c-0.621,0.167-1.242,0.333-1.863,0.499
					c0.624,4.312,2.476,8.33,2.811,12.692c0.05,0.654,1.92,0.248,1.863-0.499c-0.335-4.363-2.187-8.38-2.811-12.692
					c-0.099-0.683-1.926-0.226-1.863,0.499c0.303,3.498-2.774,4.282-5.642,4.443C109.322,161.148,108.744,162.258,110.03,162.186
					L110.03,162.186z"/>
			</g>
		</g>
	</g>
	<g>
		<g>
			<g>
				<path fill="#FFFFFF" d="M249.832,123.498c-0.721,2.696,0.03,6.701,2.736,8.125c0.788,0.415,1.979,0.215,2.702-0.252
					c1.307-0.845,1.25-2.657,1.212-4.036c-0.621,0.167-1.242,0.333-1.863,0.499c0.871,2.183,2.365,4.015,4.881,3.978
					c0.355-0.005,1.383-0.109,1.523-0.543c0.714-2.21,0.34-7.153-2.971-6.548c-0.738,0.135-1.656,0.924-0.348,0.685
					c0.79-0.144,1.384,1.847,1.531,2.349c0.365,1.239,0.345,2.621-0.049,3.843c0.507-0.181,1.015-0.362,1.523-0.543
					c-2.226,0.032-3.483-1.854-4.227-3.719c-0.167-0.417-1.875,0.05-1.863,0.499c0.03,1.105,0.053,2.283-0.533,3.261
					c0.607,0.036,0.687,0,0.238-0.105c-0.141-0.067-0.275-0.146-0.402-0.236c-0.455-0.295-0.808-0.75-1.119-1.183
					c-1.3-1.809-1.704-4.271-1.134-6.402C251.773,122.777,249.956,123.032,249.832,123.498L249.832,123.498z"/>
			</g>
		</g>
		<g>
			<g>
				<path fill="#FFFFFF" d="M262.011,122.596c-0.621,3.127,0.727,6.207,0.145,9.297c-0.171,0.909,1.732,0.658,1.885-0.152
					c0.583-3.098-0.764-6.173-0.145-9.297C264.075,121.539,262.171,121.787,262.011,122.596L262.011,122.596z"/>
			</g>
		</g>
		<g>
			<g>
				<path fill="#FFFFFF" d="M260.409,128.898c3.216-0.111,6.166-1.619,7.763-4.468c-0.617,0.137-1.234,0.274-1.851,0.412
					c-0.06,1.356,0.208,2.717,0.441,4.047c0.183,1.043,0.635,2.314,0.5,3.383c-0.031,0.244,1.791,0.073,1.863-0.499
					c0.12-0.956-0.266-2.085-0.435-3.017c-0.263-1.445-0.572-2.937-0.507-4.413c0.018-0.407-1.686,0.118-1.851,0.412
					c-1.105,1.972-2.799,3.302-5.12,3.382C260.712,128.154,259.173,128.941,260.409,128.898L260.409,128.898z"/>
			</g>
		</g>
		<g>
			<g>
				<path fill="#FFFFFF" d="M269.763,130.686c0.838-1.966,1.667-3.936,2.465-5.919c-0.599,0.161-1.198,0.321-1.797,0.481
					c1.804,2.192,3.525,5.732,2.26,8.556c-0.25,0.557,1.596,0.351,1.861-0.241c1.342-2.993-0.475-6.71-2.389-9.036
					c-0.395-0.48-1.604,0-1.797,0.481c-0.797,1.983-1.627,3.953-2.465,5.919C267.659,131.497,269.508,131.283,269.763,130.686
					L269.763,130.686z"/>
			</g>
		</g>
		<g>
			<g>
				<path fill="#FFFFFF" d="M270.587,131.707c2.368-0.566,4.654-1.4,6.938-2.234c1.22-0.445,0.113-1.165-0.758-0.847
					c-2.125,0.775-4.25,1.538-6.453,2.065C269.176,130.964,269.459,131.977,270.587,131.707L270.587,131.707z"/>
			</g>
		</g>
		<g>
			<g>
				<path fill="#FFFFFF" d="M277.814,126.944c0.251,2.017,0.053,4.127-0.117,6.146c-0.025,0.294,1.814,0.082,1.863-0.499
					c0.17-2.019,0.368-4.129,0.117-6.146C279.628,126.043,277.75,126.427,277.814,126.944L277.814,126.944z"/>
			</g>
		</g>
		<g>
			<g>
				<path fill="#FFFFFF" d="M274.981,127.545c3.727-1.169,7.427-2.37,11.384-2.197c0.651,0.028,2.002-0.92,0.746-0.976
					c-4.283-0.187-8.312,1.067-12.354,2.334C273.671,127.048,273.878,127.891,274.981,127.545L274.981,127.545z"/>
			</g>
		</g>
		<g>
			<g>
				<path fill="#FFFFFF" d="M271.93,142.489c-0.146,3.505-0.345,7.008-0.493,10.514c-0.041,0.98,1.853,0.71,1.889-0.139
					c0.147-3.505,0.346-7.008,0.493-10.514C273.859,141.371,271.965,141.64,271.93,142.489L271.93,142.489z"/>
			</g>
		</g>
		<g>
			<g>
				<path fill="#FFFFFF" d="M266.909,144.311c3.5-1.252,7.604-2.618,11.248-1.226c0.788,0.301,2.183-0.829,1.077-1.251
					c-4.101-1.567-8.716-0.207-12.665,1.206C265.466,143.436,265.778,144.716,266.909,144.311L266.909,144.311z"/>
			</g>
		</g>
		<g>
			<g>
				<path fill="#FFFFFF" d="M273.746,147.977c-1.539,2.407,0.531,4.827,3.154,4.861c2.113,0.028,5.013-1.398,4.922-3.853
					c-0.073-1.975-2.714-2.765-4.283-2.829c-2.479-0.101-4.634,1.363-5.625,3.581c-0.245,0.549,1.598,0.344,1.86-0.244
					c0.624-1.396,1.676-2.37,3.255-2.305c1.065,0.043,2.266,0.672,2.755,1.642c0.614,1.216-0.56,2.787-1.787,2.984
					c-2.128,0.341-3.619-2.103-2.522-3.818C275.931,147.283,274.062,147.483,273.746,147.977L273.746,147.977z"/>
			</g>
		</g>
		<g>
			<g>
				<path fill="#FFFFFF" d="M287.15,144.827c-0.275,1.23-0.353,2.512-0.447,3.766c-0.057,0.771-0.373,2.086-0.091,2.839
					c0.259,0.692,1.316,0.318,1.699-0.02c0.118-0.104,0.152-0.229,0.196-0.371c0.246-0.797-1.651-0.561-1.879,0.176
					c0.049-0.088,0.099-0.176,0.147-0.265c0.566-0.007,1.133-0.013,1.699-0.02c-0.206-0.551,0.06-1.849,0.106-2.516
					c0.088-1.253,0.171-2.537,0.447-3.766C289.217,143.811,287.32,144.073,287.15,144.827L287.15,144.827z"/>
			</g>
		</g>
		<g>
			<g>
				<path fill="#FFFFFF" d="M286.947,144.754c2.527,0.726,4.607,2.835,5.171,5.408c0.243,1.109-0.131,2.247-0.791,3.127
					c-0.529,0.708-2.404,2.106-2.083,0.302c0.125-0.703-1.751-0.379-1.861,0.241c-0.217,1.221,0.375,2.031,1.696,1.818
					c1.597-0.256,2.922-1.137,3.98-2.335c3.272-3.709-1.448-8.543-4.966-9.554C287.519,143.596,285.904,144.454,286.947,144.754
					L286.947,144.754z"/>
			</g>
		</g>
		<g>
			<g>
				<path fill="#FFFFFF" d="M294.677,150.562c-1.036,2.77,0.982,5.632,4.037,5.179c2.325-0.345,4.362-3.477,2.774-5.568
					c-1.309-1.723-4.282-1.446-6.035-0.759c-2.291,0.898-3.758,2.908-3.133,5.403c0.218,0.868,2.082,0.373,1.863-0.499
					c-0.722-2.88,2.339-4.759,4.904-3.808c1.503,0.557,1.126,2.385,0.36,3.401c-0.67,0.888-1.842,0.446-2.501-0.196
					c-0.809-0.788-0.862-1.934-0.487-2.936C296.837,149.767,294.969,149.782,294.677,150.562L294.677,150.562z"/>
			</g>
		</g>
	</g>
	<g>
		<g>
			<path fill="#FFFFFF" d="M37.026,8.052c-0.344,4.302,0.85,8.638-0.022,12.92c-0.103,0.503,1.743,0.192,1.844-0.305
				c0.886-4.35-0.307-8.747,0.042-13.115C38.916,7.223,37.074,7.453,37.026,8.052L37.026,8.052z"/>
		</g>
	</g>
	<g>
		<g>
			<path fill="#FFFFFF" d="M34.51,16.314c2.472,0.972,4.977,1.799,7.665,1.441c1.039-0.139,1.422-1.563,0.157-1.395
				c-2.385,0.318-4.566-0.465-6.753-1.325C34.771,14.718,33.401,15.878,34.51,16.314L34.51,16.314z"/>
		</g>
	</g>
	<g>
		<g>
			<path fill="#FFFFFF" d="M39.605,7.298c0.577,4.567,0.801,9.151,0.782,13.753c-0.003,0.838,1.867,0.462,1.87-0.209
				c0.02-4.698-0.2-9.38-0.789-14.043C41.381,6.108,39.51,6.542,39.605,7.298L39.605,7.298z"/>
		</g>
	</g>
	<g>
		<g>
			<path fill="#FFFFFF" d="M43.339,15.971c-0.521,2.496,0.793,5.278,3.656,5.025c2.155-0.191,4.495-1.954,4.295-4.312
				c-0.139-1.637-1.918-2.557-3.397-2.525c-2.234,0.047-3.946,1.41-4.618,3.51c-0.156,0.488,1.678,0.238,1.848-0.291
				c0.288-0.899,0.926-2.429,2.09-2.339c0.976,0.075,1.819,0.816,2.125,1.72c0.384,1.132-0.483,3.271-1.806,3.388
				c-0.871,0.077-1.623-0.768-2.002-1.442c-0.513-0.912-0.552-2.026-0.343-3.025C45.3,15.135,43.448,15.448,43.339,15.971
				L43.339,15.971z"/>
		</g>
	</g>
	<g>
		<g>
			<path fill="#FFFFFF" d="M52.479,12.091c-1.284,2.762-1.828,5.859,0.188,8.407c0.338,0.428,1.087,0.246,1.464-0.011
				c0.842-0.573,1.641-1.272,2.327-2.024c-0.499,0.09-0.997,0.181-1.495,0.271c1.5,1.159,3.439,1.713,5.069,0.465
				c1.719-1.316,0.914-3.666-0.211-5.052c-0.501-0.619-2.282,0.095-1.712,0.798c0.634,0.782,1.085,1.597,1.025,2.628
				c-0.105,1.801-1.916,0.752-2.724,0.128c-0.413-0.319-1.18-0.073-1.495,0.271c-0.595,0.651-1.271,1.241-2,1.737
				c0.488-0.004,0.976-0.007,1.464-0.011c-1.794-2.268-1.266-4.995-0.13-7.439C54.683,11.326,52.803,11.393,52.479,12.091
				L52.479,12.091z"/>
		</g>
	</g>
	<g>
		<g>
			<path fill="#FFFFFF" d="M71.152,7.235c-0.879,3.97-0.944,8.039-1.514,12.055c-0.021,0.153,1.788,0.03,1.863-0.499
				c0.562-3.964,0.614-7.986,1.482-11.906C73.059,6.546,71.247,6.81,71.152,7.235L71.152,7.235z"/>
		</g>
	</g>
	<g>
		<g>
			<path fill="#FFFFFF" d="M66.951,12.127c2.781-1.432,5.962-2.899,9.136-1.967c0.822,0.241,2.201-0.949,1.068-1.281
				c-3.846-1.13-7.625,0.358-11.038,2.115C64.988,11.576,66,12.616,66.951,12.127L66.951,12.127z"/>
		</g>
	</g>
	<g>
		<g>
			<path fill="#FFFFFF" d="M71.469,16.451c0.958,1.781,3.048,3.339,5.176,2.823c1.838-0.446,3.205-2.208,2.907-4.126
				c-0.238-1.534-2.058-2.213-3.398-2.266c-1.927-0.076-3.794,0.837-4.867,2.446c-0.666,0.998,1.071,1.355,1.573,0.602
				c0.937-1.404,3.367-2.468,4.622-0.793c0.622,0.83-0.033,2.39-0.93,2.723c-1.395,0.517-2.828-1.217-3.383-2.248
				C72.75,14.832,70.986,15.554,71.469,16.451L71.469,16.451z"/>
		</g>
	</g>
	<g>
		<g>
			<path fill="#FFFFFF" d="M49.026,27.965c0.338-0.376,0.688-0.66,1.117-0.926c0.51-0.317,0.381-0.965-0.256-0.956
				c-1.866,0.026-3.571,0.669-4.689,2.212c-0.854,1.178-1.063,2.823-0.702,4.21c0.347,1.332,1.397,2.324,2.803,2.367
				c2.218,0.067,4.032-1.708,5.321-3.304c0.723-0.895-1.065-1.002-1.527-0.43c-0.713,0.884-2.038,2.558-3.218,2.522
				c-0.817-0.024-1.312-0.952-1.516-1.654c-0.589-2.027,0.495-4.683,2.844-4.715c-0.085-0.319-0.17-0.637-0.256-0.956
				c-0.545,0.339-1.018,0.723-1.448,1.201C46.732,28.387,48.538,28.507,49.026,27.965L49.026,27.965z"/>
		</g>
	</g>
	<g>
		<g>
			<path fill="#FFFFFF" d="M53.228,32.224c1.335-1.898,2.005-4.109,3.173-6.097c-0.604,0.061-1.208,0.122-1.812,0.183
				c1.063,2.615,2.304,5.344,2.098,8.23c-0.063,0.878,1.823,0.557,1.876-0.185c0.215-3.016-0.998-5.809-2.111-8.545
				c-0.284-0.698-1.517-0.319-1.812,0.183c-1.168,1.987-1.838,4.198-3.173,6.097C50.921,32.868,52.82,32.804,53.228,32.224
				L53.228,32.224z"/>
		</g>
	</g>
	<g>
		<g>
			<path fill="#FFFFFF" d="M52.453,32.548c2.134-0.516,4.198-1.255,6.288-1.923c1.078-0.345,0.887-1.132-0.21-0.782
				c-2.089,0.667-4.153,1.407-6.288,1.923C51.128,32.036,51.348,32.815,52.453,32.548L52.453,32.548z"/>
		</g>
	</g>
	<g>
		<g>
			<path fill="#FFFFFF" d="M58.959,26.671c0.129,2.354,0.587,4.672,0.717,7.026c0.035,0.64,1.904,0.247,1.863-0.499
				c-0.129-2.354-0.587-4.672-0.717-7.026C60.788,25.532,58.918,25.926,58.959,26.671L58.959,26.671z"/>
		</g>
	</g>
	<g>
		<g>
			<path fill="#FFFFFF" d="M58.366,27.346c1.525-1.142,3.255-1.68,5.087-2.115c1.115-0.265,0.9-1.022-0.203-0.76
				c-2.277,0.542-4.454,1.275-6.345,2.691c-0.3,0.225-0.225,0.49,0.144,0.537C57.488,27.754,58.012,27.611,58.366,27.346
				L58.366,27.346z"/>
		</g>
	</g>
	<g>
		<g>
			<path fill="#FFFFFF" d="M69.878,26.223c-1.756-0.548-4.105-0.474-5.472,0.934c-0.991,1.021-1.089,2.619-0.764,3.935
				c0.309,1.25,1.109,2.412,2.472,2.53c2.156,0.187,3.732-1.577,4.679-3.266c0.158-0.281-0.668-0.164-0.738-0.151
				c-0.313,0.058-0.92,0.177-1.096,0.492c-0.419,0.748-0.889,1.477-1.543,2.04c-0.253,0.218-0.652,0.299-0.08,0.17
				c0.134-0.03-0.01,0.008-0.207-0.063c-0.917-0.332-1.393-1.378-1.625-2.25c-0.273-1.031-0.245-2.192,0.265-3.144
				c0.115-0.215,0.261-0.407,0.436-0.575c0.16-0.154,0.343-0.251,0.377-0.264c-0.233,0.084,0.245,0.011,0.434,0.021
				c0.447,0.025,0.898,0.157,1.324,0.29c0.38,0.119,0.959-0.092,1.3-0.247C69.813,26.596,70.263,26.343,69.878,26.223L69.878,26.223
				z"/>
		</g>
	</g>
	<g>
		<g>
			<path fill="#FFFFFF" d="M69.771,24.462c0.513,2.257,0.874,4.518,0.702,6.838c-0.074,1.002,1.827,0.76,1.893-0.125
				c0.18-2.439-0.192-4.838-0.731-7.212C71.429,23.059,69.564,23.549,69.771,24.462L69.771,24.462z"/>
		</g>
	</g>
	<g>
		<g>
			<path fill="#FFFFFF" d="M69.702,30.155c3.342-0.188,5.963-2.679,5.005-6.142c-0.244-0.882-1.95-0.363-1.863,0.499
				c0.31,3.092,1.104,6.15,0.81,9.273c-0.091,0.959,1.808,0.695,1.887-0.144c0.307-3.244-0.511-6.418-0.833-9.629
				c-0.621,0.167-1.242,0.333-1.863,0.499c0.633,2.289-0.52,4.146-2.975,4.284C68.818,28.856,68.431,30.226,69.702,30.155
				L69.702,30.155z"/>
		</g>
	</g>
	<g>
		<g>
			<path fill="#FFFFFF" d="M124.114,11.59c-0.953-1.868-2.853-1.713-4.489-0.803c-1.967,1.095-3.34,3.446-3.819,5.582
				c-0.673,3.004,2.383,7.531,5.773,6.984c2.809-0.453,4.066-3.504,4.552-5.976c0.415-2.112,0.57-5.666-1.695-6.854
				c-2.13-1.117-4.697,0.665-6.263,1.964c-0.851,0.706,1,0.824,1.518,0.395c0.772-0.64,2.017-1.737,3.125-1.453
				c0.833,0.213,1.227,1.234,1.427,1.966c0.62,2.27,0.107,5.054-0.966,7.11c-0.311,0.596-0.947,1.61-1.594,1.714
				c-1.134,0.183-2.237-1.237-2.826-1.994c-1.464-1.882-1.576-3.745-0.533-5.888c0.548-1.126,2.789-4.481,3.928-2.25
				C122.608,12.79,124.428,12.207,124.114,11.59L124.114,11.59z"/>
		</g>
	</g>
	<g>
		<g>
			<path fill="#FFFFFF" d="M120.087,17.775c0.72,1.882,2.134,3.241,3.594,4.571c0.506,0.461,2.259-0.258,1.727-0.743
				c-1.382-1.26-2.774-2.542-3.457-4.327C121.689,16.592,119.845,17.141,120.087,17.775L120.087,17.775z"/>
		</g>
	</g>
	<g>
		<g>
			<path fill="#FFFFFF" d="M126.054,15.153c-0.506,1.414-0.94,3.25-0.023,4.598c0.688,1.01,1.925,1.199,3.055,1.019
				c1.217-0.193,2.532-0.783,3.08-1.955c0.643-1.376-0.071-2.94-0.864-4.079c-0.308-0.441-1.99,0.318-1.863,0.499
				c0.698,1.001,1.342,2.29,1.026,3.543c-0.103,0.406-0.321,0.787-0.623,1.077c-0.07,0.067-0.147,0.127-0.225,0.186
				c0.032-0.024-0.279,0.147-0.127,0.074c-0.106,0.052,0.156-0.02,0.042-0.008c-0.043,0.005-0.196,0-0.351-0.027
				c-0.2-0.035-0.381-0.105-0.561-0.198c-0.391-0.203-0.686-0.525-0.895-0.908c-0.691-1.266-0.289-2.895,0.165-4.16
				C127.999,14.504,126.219,14.693,126.054,15.153L126.054,15.153z"/>
		</g>
	</g>
	<g>
		<g>
			<path fill="#FFFFFF" d="M133.491,15.37c-0.112,1.637,0.609,3.637,2.381,4.079c1.735,0.433,3.594-0.432,4.694-1.753
				c0.192-0.231-0.697-0.134-0.731-0.127c-0.359,0.069-0.853,0.181-1.1,0.478c-0.455,0.546-0.713,0.929-1.413,0.688
				c-0.468-0.162-0.863-0.516-1.174-0.889c-0.684-0.818-0.864-1.944-0.793-2.974C135.367,14.676,133.525,14.861,133.491,15.37
				L133.491,15.37z"/>
		</g>
	</g>
	<g>
		<g>
			<path fill="#FFFFFF" d="M133.125,18.469c1.791-0.657,3.335-1.6,4.765-2.858c0.341-0.301-0.293-0.405-0.465-0.398
				c-0.449,0.019-0.902,0.172-1.24,0.469c-1.12,0.986-2.337,1.718-3.739,2.233c-0.137,0.05-0.827,0.372-0.533,0.612
				C132.212,18.771,132.817,18.582,133.125,18.469L133.125,18.469z"/>
		</g>
	</g>
	<g>
		<g>
			<path fill="#FFFFFF" d="M131.644,15.554c2.25-1.432,4.825-2.155,7.337-2.979c1.124-0.369,0.792-1.681-0.35-1.306
				c-2.846,0.935-5.683,1.79-8.229,3.41C129.338,15.356,130.869,16.047,131.644,15.554L131.644,15.554z"/>
		</g>
	</g>
	<g>
		<g>
			<path fill="#FFFFFF" d="M139.166,13.946c0.034,1.893,0.382,3.693,0.989,5.484c0.3,0.885,2.06,0.418,1.863-0.499
				c-0.325-1.517-0.513-3.039-0.241-4.578c0.08-0.451,0.405-1.505,0.836-1.632c-0.322,0.095-0.017,0.416-0.104,0.923
				c-0.225,1.298-1.464,2.472-2.374,3.317c-0.443,0.411-0.401,1.096,0.311,1.16c2.519,0.229,5.019,1.019,7.562,0.8
				c1.068-0.092,1.416-1.538,0.148-1.429c-2.367,0.205-4.733-0.57-7.081-0.783c0.104,0.387,0.207,0.773,0.311,1.16
				c1.016-0.943,5.35-5.929,1.674-6.548c-1.181-0.199-2.154,0.741-2.683,1.673c-1.062,1.871-0.646,4.458-0.223,6.436
				c0.621-0.167,1.242-0.333,1.863-0.499c-0.566-1.67-0.928-3.341-0.96-5.109C141.04,12.808,139.15,13.065,139.166,13.946
				L139.166,13.946z"/>
		</g>
	</g>
	<g>
		<g>
			<path fill="#FFFFFF" d="M143.813,11.726c1.284,1.408,2.879,3.061,4.914,3.118c2.073,0.058,3.172-1.415,3.615-3.265
				c-0.613,0.107-1.227,0.213-1.84,0.32c-0.713,3.427-1.735,6.749-3.343,9.868c-0.152,0.295,1.592,0.16,1.84-0.32
				c1.607-3.119,2.629-6.441,3.343-9.868c0.094-0.453-1.729-0.146-1.84,0.32c-0.184,0.768-0.374,1.474-0.889,2.096
				c-0.217,0.262-1.221-0.436-1.418-0.554c-1.003-0.603-1.846-1.5-2.629-2.357C145.24,10.725,143.506,11.389,143.813,11.726
				L143.813,11.726z"/>
		</g>
	</g>
	<g>
		<g>
			<path fill="#FFFFFF" d="M143.641,35.693c-1.58-1.053-3.544-1.157-5.336-0.665c-1.332,0.366-3.08,1.663-2.5,3.23
				c0.237,0.641,0.953,1.148,1.408,1.622c0.34,0.354,0.518,0.713,0.603,1.186c0.076,0.423-0.475,1.953-1.148,1.58
				c-1.151-0.637,0.496-2.543,0.977-3.028c1.282-1.291,3.735-1.455,5.442-1.287c-0.106-0.078-0.212-0.155-0.319-0.232
				c-1.206,2.669-1.204,6.016,2.191,6.741c0.447,0.095,2.076-0.622,1.526-0.739c-3.175-0.677-2.961-3.921-1.877-6.321
				c0.086-0.191-0.209-0.222-0.319-0.232c-2.662-0.262-5.64,0.329-7.877,1.826c-1.335,0.895-3.207,3.883-0.539,4.199
				c1.765,0.209,4.103-1.364,3.756-3.288c-0.185-1.024-1.474-1.667-1.96-2.525c-0.382-0.674,0.115-1.38,0.539-1.878
				c0.812-0.956,2.888-0.074,3.681,0.455C142.336,36.635,143.927,35.883,143.641,35.693L143.641,35.693z"/>
		</g>
	</g>
	<g>
		<g>
			<path fill="#FFFFFF" d="M141.208,41.714c2.167-0.2,4.316-0.494,6.203-1.656c1.069-0.658-0.587-0.786-1.129-0.452
				c-1.46,0.899-3.119,1.035-4.79,1.188C140.627,40.875,139.909,41.834,141.208,41.714L141.208,41.714z"/>
		</g>
	</g>
	<g>
		<g>
			<path fill="#FFFFFF" d="M140.589,39.244c2.837-0.51,5.647-1.217,8.541-1.31c0.686-0.022,1.981-1.094,0.726-1.054
				c-3.061,0.098-6.009,0.796-9.01,1.335C139.967,38.374,139.305,39.475,140.589,39.244L140.589,39.244z"/>
		</g>
	</g>
	<g>
		<g>
			<path fill="#FFFFFF" d="M149.877,35.576c-0.912,1.829-4.688,8.518-0.238,8.817c3.81,0.256,5.377-4.743,7.125-7.227
				c-0.597,0.041-1.194,0.083-1.792,0.124c-1.004,2.315-1.141,6.108,0.74,8.061c2.05,2.128,4.346-1.745,4.921-3.15
				c0.226-0.551-1.619-0.332-1.858,0.252c-0.197,0.531-0.436,1.042-0.715,1.536c-0.231,0.42-0.455,0.771-0.612,0.651
				c-0.588-0.449-0.811-1.338-0.999-2.013c-0.508-1.818-0.366-3.865,0.382-5.589c0.262-0.604-1.542-0.23-1.792,0.124
				c-0.7,0.994-3.467,7.112-5.036,5.924c-2.09-1.583,0.937-6.165,1.733-7.762C151.984,34.825,150.159,35.01,149.877,35.576
				L149.877,35.576z"/>
		</g>
	</g>
	<g>
		<g>
			<path fill="#FFFFFF" d="M152.953,40.834c1.721-0.068,3.19-0.702,4.784-1.279c0.059-0.021,0.839-0.331,0.567-0.485
				c-0.309-0.176-0.896,0.023-1.193,0.13c-0.953,0.345-1.907,0.882-2.937,0.923c-0.449,0.018-0.925,0.125-1.317,0.353
				C152.567,40.646,152.594,40.848,152.953,40.834L152.953,40.834z"/>
		</g>
	</g>
	<g>
		<g>
			<path fill="#FFFFFF" d="M154.771,38.33c1.774-0.038,3.549-0.218,5.293-0.548c0.319-0.061,0.936-0.187,1.084-0.536
				c0.143-0.334-0.639-0.25-0.758-0.228c-1.595,0.302-3.208,0.46-4.83,0.495C155.023,37.524,153.529,38.356,154.771,38.33
				L154.771,38.33z"/>
		</g>
	</g>
	<g>
		<g>
			<path fill="#FFFFFF" d="M167.844,38.047c-1.341-0.864-2.864-1.439-4.465-1.045c-1.188,0.292-2.073,1.147-2.44,2.301
				c-0.561,1.765-0.05,4.567,1.822,5.38c2.445,1.062,4.784-1.42,5.994-3.209c0.248-0.365-0.208-0.524-0.5-0.528
				c-0.408-0.006-0.987,0.143-1.231,0.504c-0.502,0.741-1.049,1.453-1.746,2.022c-0.146,0.12-0.101,0.086-0.289,0.206
				c-0.062,0.039-0.126,0.075-0.19,0.11c-0.208,0.116,0.172-0.078-0.037,0.016c-0.06,0.027-0.12,0.049-0.181,0.072
				c0.265-0.098,0.069-0.027,0.008-0.011c-0.208,0.054,0.231-0.038,0.024-0.006c-0.251,0.039,0.114,0.003-0.04,0.005
				c-0.082,0.001-0.163-0.003-0.325-0.068c-0.264-0.106-0.291-0.14-0.478-0.306c-0.355-0.315-0.573-0.684-0.751-1.097
				c-0.402-0.932-0.514-2-0.309-2.987c0.104-0.505,0.236-0.826,0.535-1.207c0.105-0.134-0.028,0.008,0.137-0.143
				c0.04-0.036,0.082-0.069,0.124-0.103c-0.174,0.137-0.034,0.026,0.008,0c0.189-0.12-0.147,0.047,0.134-0.063
				c-0.275,0.108-0.095,0.033-0.027,0.014c0.163-0.045-0.236,0.033,0.04-0.006c0.254-0.036-0.083-0.003,0.081-0.006
				c0.047,0,0.37,0.026,0.202,0.006c0.229,0.027,0.484,0.087,0.672,0.15c0.619,0.207,1.195,0.533,1.742,0.884
				C166.855,39.254,168.583,38.522,167.844,38.047L167.844,38.047z"/>
		</g>
	</g>
	<g>
		<g>
			<path fill="#FFFFFF" d="M168.992,38.101c-0.269,1.143-0.307,2.333-0.327,3.502c-0.013,0.783-0.084,1.701,0.118,2.466
				c0.194,0.734,2.058,0.236,1.863-0.499c-0.204-0.77-0.117-1.666-0.104-2.453c0.018-1.073,0.075-2.168,0.321-3.215
				C171.048,37.12,169.158,37.396,168.992,38.101L168.992,38.101z"/>
		</g>
	</g>
	<g>
		<g>
			<path fill="#FFFFFF" d="M167.474,38.893c1.779-0.621,3.563-1.205,5.399-1.638c1.136-0.268,0.863-1.237-0.261-0.972
				c-2.002,0.473-3.944,1.127-5.884,1.805c-0.246,0.086-0.776,0.463-0.491,0.772C166.537,39.184,167.13,39.013,167.474,38.893
				L167.474,38.893z"/>
		</g>
	</g>
	<g>
		<g>
			<path fill="#FFFFFF" d="M171.13,41.501c0.221,1.275,0.842,2.707,2.086,3.292c1.186,0.558,2.457,0.27,3.594-0.269
				c1.54-0.73,2.561-2.488,1.4-3.952c-2.079-2.621-7.986-2.003-8.55,1.596c-0.083,0.533,1.767,0.191,1.845-0.303
				c0.145-0.926,0.599-1.94,1.645-2.012c1.057-0.072,2.182,0.379,2.983,1.046c0.737,0.614,0.957,1.493,0.51,2.345
				c-0.512,0.975-1.398,1.173-2.269,0.506c-0.834-0.64-1.208-1.756-1.38-2.749C172.914,40.545,171.039,40.974,171.13,41.501
				L171.13,41.501z"/>
		</g>
	</g>
	<g>
		<g>
			<path fill="#FFFFFF" d="M176.003,38.299c0.478,2.08,0.956,4.16,1.434,6.24c0.621-0.167,1.242-0.333,1.863-0.499
				c-0.311-1.082-0.329-2.09-0.129-3.195c0.2-1.104,1.062-2.993,1.875-1.069c0.79,1.87-1.1,2.496-1.333,4.163
				c-0.506,3.62,4.278,4.992,6.667,6.568c0.674,0.445,2.317-0.484,1.439-1.062c-1.883-1.243-7.126-2.922-6.131-5.91
				c0.303-0.912,1.149-1.53,1.445-2.463c0.311-0.979-0.303-2.11-0.79-2.932c-0.788-1.33-2.735-1.022-3.636-0.017
				c-1.553,1.732-1.901,4.228-1.271,6.417c0.243,0.845,2.06,0.357,1.863-0.499c-0.479-2.08-0.956-4.16-1.434-6.24
				C177.671,36.95,175.806,37.438,176.003,38.299L176.003,38.299z"/>
		</g>
	</g>
	<g>
		<g>
			<path fill="#FFFFFF" d="M129.379,23.889c-1.93,1.457-3.882,3.997-1.703,6.138c1.647,1.618,4.662,1.402,6.477,0.221
				c1.811-1.178,3.072-4.059,0.597-5.238c-1.924-0.917-4.76-0.503-6.384,0.845c-0.345,0.287,0.3,0.362,0.453,0.353
				c0.443-0.027,0.9-0.172,1.244-0.458c0.92-0.765,2.647-0.371,3.523,0.255c1.505,1.075,0.408,3.401-0.878,4.141
				c-1.255,0.721-3.09-0.295-3.783-1.382c-1.157-1.816,0.503-3.722,1.894-4.771C131.593,23.409,129.727,23.626,129.379,23.889
				L129.379,23.889z"/>
		</g>
	</g>
	<g>
		<g>
			<path fill="#FFFFFF" d="M134.07,25.176c1.042,2.144,2.171,4.132,2.248,6.572c0.621-0.167,1.242-0.333,1.863-0.499
				c-1.345-2.66-1.198-6.095,2.215-6.93c-0.341-0.075-0.682-0.15-1.023-0.225c-0.404,2.125-0.635,3.384-2.359,4.87
				c-0.083,0.071-0.341,0.305-0.144,0.422c1.544,0.919,2.963,2.027,4.508,2.946c0.504,0.3,2.112-0.458,1.744-0.677
				c-1.544-0.918-2.964-2.027-4.508-2.946c-0.048,0.141-0.096,0.281-0.144,0.422c0.783-0.675,1.518-1.352,2.04-2.253
				c0.515-0.888,0.524-2.085,0.711-3.07c0.087-0.457-0.818-0.275-1.023-0.225c-4.047,0.99-5.807,4.354-3.881,8.165
				c0.257,0.509,1.881,0.065,1.863-0.499c-0.077-2.44-1.206-4.429-2.248-6.572C135.668,24.133,133.867,24.758,134.07,25.176
				L134.07,25.176z"/>
		</g>
	</g>
</g>
</svg>
