<?xml version="1.0" encoding="utf-8"?>
<!-- Generator: Adobe Illustrator 15.0.0, SVG Export Plug-In . SVG Version: 6.00 Build 0)  -->
<!DOCTYPE svg PUBLIC "-//W3C//DTD SVG 1.1//EN" "http://www.w3.org/Graphics/SVG/1.1/DTD/svg11.dtd">
<svg version="1.1" xmlns="http://www.w3.org/2000/svg" xmlns:xlink="http://www.w3.org/1999/xlink" x="0px" y="0px"
	 width="699.521px" height="462px" viewBox="0 0 699.521 462" enable-background="new 0 0 699.521 462" xml:space="preserve">
<g id="Layer_2" display="none">
	<path display="inline" fill="#3F3B36" d="M699,450.84c2,6.164-2.059,11.16-7.065,11.16H9.065C4.059,462,0,457.004,0,450.84V11.16
		C0,4.997,4.059,0,9.065,0h682.87C696.941,0,701,4.997,699,11.16V450.84z"/>
</g>
<g id="Layer_1">
	<line fill="none" stroke="#6E6E6E" stroke-miterlimit="10" stroke-dasharray="2,2" x1="77.5" y1="71" x2="77.5" y2="389"/>
	<line fill="none" stroke="#6E6E6E" stroke-miterlimit="10" stroke-dasharray="2,2" x1="119.5" y1="71" x2="119.5" y2="389"/>
	<line fill="none" stroke="#6E6E6E" stroke-miterlimit="10" stroke-dasharray="2,2" x1="160.5" y1="71" x2="160.5" y2="389"/>
	<line fill="none" stroke="#6E6E6E" stroke-miterlimit="10" stroke-dasharray="2,2" x1="237.5" y1="71" x2="237.5" y2="389"/>
	<line fill="none" stroke="#6E6E6E" stroke-miterlimit="10" stroke-dasharray="2,2" x1="196.5" y1="71" x2="196.5" y2="389"/>
	<line fill="none" stroke="#6E6E6E" stroke-miterlimit="10" stroke-dasharray="2,2" x1="308.5" y1="71" x2="308.5" y2="389"/>
	<line fill="none" stroke="#6E6E6E" stroke-miterlimit="10" stroke-dasharray="2,2" x1="360.5" y1="71" x2="360.5" y2="389"/>
	<line fill="none" stroke="#6E6E6E" stroke-miterlimit="10" stroke-dasharray="2,2" x1="421.5" y1="71" x2="421.5" y2="389"/>
	<line fill="none" stroke="#6E6E6E" stroke-miterlimit="10" stroke-dasharray="2,2" x1="483.5" y1="71" x2="483.5" y2="389"/>
	<line fill="none" stroke="#6E6E6E" stroke-miterlimit="10" stroke-dasharray="2,2" x1="513.5" y1="71" x2="513.5" y2="389"/>
	<line fill="none" stroke="#6E6E6E" stroke-miterlimit="10" stroke-dasharray="2,2" x1="552.5" y1="71" x2="552.5" y2="389"/>
	<line fill="none" stroke="#6E6E6E" stroke-miterlimit="10" stroke-dasharray="2,2" x1="595.5" y1="71" x2="595.5" y2="389"/>
	<line fill="none" stroke="#6E6E6E" stroke-miterlimit="10" stroke-dasharray="2,2" x1="636.5" y1="71" x2="636.5" y2="389"/>
	<path fill="#D9D5D0" stroke="#FFFFFF" stroke-miterlimit="10" d="M551.5,96.206c0,5.685-4.608,10.294-10.294,10.294H88.794
		c-5.685,0-10.294-4.609-10.294-10.294v-0.412c0-5.685,4.609-10.294,10.294-10.294h452.412c5.686,0,10.294,4.609,10.294,10.294
		V96.206z"/>
	<path fill="#D9D5D0" stroke="#FFFFFF" stroke-miterlimit="10" d="M636.5,208.206c0,5.685-4.608,10.294-10.294,10.294H128.794
		c-5.685,0-10.294-4.609-10.294-10.294v-0.412c0-5.685,4.609-10.294,10.294-10.294h497.412c5.686,0,10.294,4.609,10.294,10.294
		V208.206z"/>
	<path fill="#D9D5D0" stroke="#FFFFFF" stroke-miterlimit="10" d="M595.5,324.206c0,5.685-4.608,10.294-10.294,10.294H205.794
		c-5.685,0-10.294-4.609-10.294-10.294v-0.412c0-5.685,4.609-10.294,10.294-10.294h379.412c5.686,0,10.294,4.609,10.294,10.294
		V324.206z"/>
	<text transform="matrix(1 0 0 1 81 80.5)" fill="#FFFFFF" font-family="'MyriadPro-Regular'" font-size="13">deep.context</text>
	<text transform="matrix(1 0 0 1 25 34.5)" fill="#FFFFFF" font-family="'MyriadPro-Regular'" font-size="14">• Illustration of deep.context association under async server (as nodejs) for each incoming request.</text>
	<text transform="matrix(1 0 0 1 94 408.5)" fill="#FFFFFF" font-family="'MyriadPro-Regular'" font-size="12">request reception</text>
	<text transform="matrix(1 0 0 1 94 429.5)" fill="#FFFFFF" font-family="'MyriadPro-Regular'" font-size="12">request end</text>
	<text transform="matrix(1 0 0 1 123 192.5)" fill="#FFFFFF" font-family="'MyriadPro-Regular'" font-size="13">deep.context</text>
	<text transform="matrix(1 0 0 1 200 307.5)" fill="#FFFFFF" font-family="'MyriadPro-Regular'" font-size="13">deep.context</text>
	<path fill="#C5D96D" stroke="#E6E2CC" stroke-miterlimit="10" d="M118.5,123c0,5.799-4.701,10.5-10.5,10.5H87
		c-5.799,0-10.5-4.701-10.5-10.5l0,0c0-5.799,4.701-10.5,10.5-10.5h21C113.799,112.5,118.5,117.201,118.5,123L118.5,123z"/>
	<path fill="#C5D96D" stroke="#E6E2CC" stroke-miterlimit="10" d="M421.5,123c0,5.799-4.701,10.5-10.5,10.5h-41
		c-5.799,0-10.5-4.701-10.5-10.5l0,0c0-5.799,4.701-10.5,10.5-10.5h41C416.799,112.5,421.5,117.201,421.5,123L421.5,123z"/>
	<path fill="#C5D96D" stroke="#E6E2CC" stroke-miterlimit="10" d="M551.5,123c0,5.799-4.701,10.5-10.5,10.5h-18
		c-5.799,0-10.5-4.701-10.5-10.5l0,0c0-5.799,4.701-10.5,10.5-10.5h18C546.799,112.5,551.5,117.201,551.5,123L551.5,123z"/>
	<path fill="#C5D96D" stroke="#E6E2CC" stroke-miterlimit="10" d="M195.5,123c0,5.799-4.701,10.5-10.5,10.5h-14
		c-5.799,0-10.5-4.701-10.5-10.5l0,0c0-5.799,4.701-10.5,10.5-10.5h14C190.799,112.5,195.5,117.201,195.5,123L195.5,123z"/>
	<path fill="#E8E49C" stroke="#E6E2CC" stroke-miterlimit="10" d="M160.5,235c0,5.799-4.701,10.5-10.5,10.5h-21
		c-5.799,0-10.5-4.701-10.5-10.5l0,0c0-5.799,4.701-10.5,10.5-10.5h21C155.799,224.5,160.5,229.201,160.5,235L160.5,235z"/>
	<path fill="#E8E49C" stroke="#E6E2CC" stroke-miterlimit="10" d="M308.5,235c0,5.799-4.701,10.5-10.5,10.5h-51
		c-5.799,0-10.5-4.701-10.5-10.5l0,0c0-5.799,4.701-10.5,10.5-10.5h51C303.799,224.5,308.5,229.201,308.5,235L308.5,235z"/>
	<path fill="#E8E49C" stroke="#E6E2CC" stroke-miterlimit="10" d="M482.5,235c0,5.799-4.701,10.5-10.5,10.5h-41
		c-5.799,0-10.5-4.701-10.5-10.5l0,0c0-5.799,4.701-10.5,10.5-10.5h41C477.799,224.5,482.5,229.201,482.5,235L482.5,235z"/>
	<path fill="#E8E49C" stroke="#E6E2CC" stroke-miterlimit="10" d="M636.5,235c0,5.799-4.701,10.5-10.5,10.5h-21
		c-5.799,0-10.5-4.701-10.5-10.5l0,0c0-5.799,4.701-10.5,10.5-10.5h21C631.799,224.5,636.5,229.201,636.5,235L636.5,235z"/>
	<path fill="#18C0EB" stroke="#E6E2CC" stroke-miterlimit="10" d="M237.5,352c0,5.799-4.701,10.5-10.5,10.5h-21
		c-5.799,0-10.5-4.701-10.5-10.5l0,0c0-5.799,4.701-10.5,10.5-10.5h21C232.799,341.5,237.5,346.201,237.5,352L237.5,352z"/>
	<path fill="#18C0EB" stroke="#E6E2CC" stroke-miterlimit="10" d="M359.5,352c0,5.799-4.701,10.5-10.5,10.5h-31
		c-5.799,0-10.5-4.701-10.5-10.5l0,0c0-5.799,4.701-10.5,10.5-10.5h31C354.799,341.5,359.5,346.201,359.5,352L359.5,352z"/>
	<path fill="#18C0EB" stroke="#E6E2CC" stroke-miterlimit="10" d="M513.5,352c0,5.799-4.701,10.5-10.5,10.5h-10
		c-5.799,0-10.5-4.701-10.5-10.5l0,0c0-5.799,4.701-10.5,10.5-10.5h10C508.799,341.5,513.5,346.201,513.5,352L513.5,352z"/>
	<path fill="#18C0EB" stroke="#E6E2CC" stroke-miterlimit="10" d="M594.5,352c0,5.799-4.701,10.5-10.5,10.5h-21
		c-5.799,0-10.5-4.701-10.5-10.5l0,0c0-5.799,4.701-10.5,10.5-10.5h21C589.799,341.5,594.5,346.201,594.5,352L594.5,352z"/>
	<text transform="matrix(1 0 0 1 95 100)" font-family="'MyriadPro-Regular'" font-size="13">• nodejs request</text>
	<text transform="matrix(1 0 0 1 211 100)" font-family="'MyriadPro-Regular'" font-size="13">• jQuery Reference</text>
	<text transform="matrix(1 0 0 1 335 100)" font-family="'MyriadPro-Regular'" font-size="13">• OCM modes</text>
	<text transform="matrix(1 0 0 1 435 100)" font-family="'MyriadPro-Regular'" font-size="13">•...</text>
	<text transform="matrix(1 0 0 1 465 212)" font-family="'MyriadPro-Regular'" font-size="13">•...</text>
	<text transform="matrix(1 0 0 1 564 327)" font-family="'MyriadPro-Regular'" font-size="13">•...</text>
	<text transform="matrix(1 0 0 1 135 212)" font-family="'MyriadPro-Regular'" font-size="13">• nodejs request</text>
	<text transform="matrix(1 0 0 1 245 212)" font-family="'MyriadPro-Regular'" font-size="13">• jQuery Reference</text>
	<text transform="matrix(1 0 0 1 365 212)" font-family="'MyriadPro-Regular'" font-size="13">• OCM modes</text>
	<text transform="matrix(1 0 0 1 212 328)" font-family="'MyriadPro-Regular'" font-size="13">• nodejs request</text>
	<text transform="matrix(1 0 0 1 322 328)" font-family="'MyriadPro-Regular'" font-size="13">• jQuery Reference</text>
	<text transform="matrix(1 0 0 1 452 328)" font-family="'MyriadPro-Regular'" font-size="13">• OCM modes</text>
	<text transform="matrix(1 0 0 1 28.1406 106)"><tspan x="0" y="0" fill="#C9C4BB" font-family="'MyriadPro-Regular'" font-size="13">User 1</tspan><tspan x="-7.462" y="13" fill="#C9C4BB" font-family="'MyriadPro-Regular'" font-size="13">request</tspan></text>
	<text transform="matrix(1 0 0 1 28.1406 217)"><tspan x="0" y="0" fill="#C9C4BB" font-family="'MyriadPro-Regular'" font-size="13">User 2</tspan><tspan x="-7.462" y="13" fill="#C9C4BB" font-family="'MyriadPro-Regular'" font-size="13">request</tspan></text>
	<text transform="matrix(1 0 0 1 28.1406 333.4438)"><tspan x="0" y="0" fill="#C9C4BB" font-family="'MyriadPro-Regular'" font-size="13">User 3</tspan><tspan x="-7.462" y="13" fill="#C9C4BB" font-family="'MyriadPro-Regular'" font-size="13">request</tspan></text>
	<line fill="none" stroke="#A1A1A1" stroke-miterlimit="10" x1="61" y1="389.5" x2="662" y2="389.5"/>
	<polygon fill="#7A7A7A" points="672,389.5 657,396.5 657,382.5 672,389.5 	"/>
	<line fill="none" stroke="#A1A1A1" stroke-miterlimit="10" x1="60.5" y1="378" x2="60.5" y2="400"/>
	<circle fill="#918F80" cx="77.444" cy="122.444" r="5.444"/>
	<circle fill="#918F80" cx="119.444" cy="234.444" r="5.444"/>
	<circle fill="#918F80" cx="75.444" cy="405.443" r="5.444"/>
	<circle fill="#918F80" cx="196.444" cy="351.444" r="5.444"/>
	<g>
		<line stroke="#969188" stroke-width="4" stroke-miterlimit="10" x1="548" y1="117" x2="560" y2="129"/>
		<line stroke="#969188" stroke-width="4" stroke-miterlimit="10" x1="560" y1="117" x2="548" y2="129"/>
	</g>
	<g>
		<line stroke="#969188" stroke-width="4" stroke-miterlimit="10" x1="590" y1="346" x2="602" y2="358"/>
		<line stroke="#969188" stroke-width="4" stroke-miterlimit="10" x1="602" y1="346" x2="590" y2="358"/>
	</g>
	<g>
		<line stroke="#969188" stroke-width="4" stroke-miterlimit="10" x1="70" y1="421" x2="82" y2="433"/>
		<line stroke="#969188" stroke-width="4" stroke-miterlimit="10" x1="82" y1="421" x2="70" y2="433"/>
	</g>
	<g>
		<line stroke="#969188" stroke-width="4" stroke-miterlimit="10" x1="631" y1="229" x2="643" y2="241"/>
		<line stroke="#969188" stroke-width="4" stroke-miterlimit="10" x1="643" y1="229" x2="631" y2="241"/>
	</g>
	<g>
		<text transform="matrix(1 0 0 1 589 407.4434)" fill="#FFFFFF" font-family="'MyriadPro-Regular'" font-size="12">server time</text>
	</g>
</g>
</svg>
