<?xml version="1.0" encoding="utf-8"?>
<!-- Generator: Adobe Illustrator 15.0.0, SVG Export Plug-In . SVG Version: 6.00 Build 0)  -->
<!DOCTYPE svg PUBLIC "-//W3C//DTD SVG 1.1//EN" "http://www.w3.org/Graphics/SVG/1.1/DTD/svg11.dtd">
<svg version="1.1" xmlns="http://www.w3.org/2000/svg" xmlns:xlink="http://www.w3.org/1999/xlink" x="0px" y="0px" width="705px"
	 height="488px" viewBox="0 0 705 488" enable-background="new 0 0 705 488" xml:space="preserve">
<g id="Layer_2" display="none">
	<path display="inline" fill="#3F3B36" d="M705,476.212c2,6.511-1.603,11.788-6.656,11.788H9.149C4.096,488,0,482.723,0,476.212
		V11.788C0,5.278,4.096,0,9.149,0h689.195C703.397,0,707,5.278,705,11.788V476.212z"/>
</g>
<g id="Layer_1">
	<line fill="none" stroke="#6E6E6E" stroke-miterlimit="10" x1="75" y1="245.5" x2="677" y2="245.5"/>
	<polygon fill="#7A7A7A" points="680.17,244.779 671,249.059 671,240.5 680.17,244.779 	"/>
	<line fill="none" stroke="#6E6E6E" stroke-miterlimit="10" x1="75" y1="363.5" x2="637" y2="363.5"/>
	<polygon fill="#7A7A7A" points="640.17,362.779 631,367.059 631,358.5 640.17,362.779 	"/>
	<line fill="none" stroke="#6E6E6E" stroke-miterlimit="10" x1="75" y1="133.5" x2="593" y2="133.5"/>
	<line fill="none" stroke="#6E6E6E" stroke-miterlimit="10" stroke-dasharray="2,2" x1="86.5" y1="82" x2="86.5" y2="400"/>
	<line fill="none" stroke="#6E6E6E" stroke-miterlimit="10" stroke-dasharray="2,2" x1="128.5" y1="82" x2="128.5" y2="400"/>
	<line fill="none" stroke="#6E6E6E" stroke-miterlimit="10" stroke-dasharray="2,2" x1="169.5" y1="82" x2="169.5" y2="400"/>
	<line fill="none" stroke="#6E6E6E" stroke-miterlimit="10" stroke-dasharray="2,2" x1="246.5" y1="82" x2="246.5" y2="400"/>
	<line fill="none" stroke="#6E6E6E" stroke-miterlimit="10" stroke-dasharray="2,2" x1="205.5" y1="82" x2="205.5" y2="400"/>
	<line fill="none" stroke="#6E6E6E" stroke-miterlimit="10" stroke-dasharray="2,2" x1="317.5" y1="82" x2="317.5" y2="400"/>
	<line fill="none" stroke="#6E6E6E" stroke-miterlimit="10" stroke-dasharray="2,2" x1="369.5" y1="82" x2="369.5" y2="400"/>
	<line fill="none" stroke="#6E6E6E" stroke-miterlimit="10" stroke-dasharray="2,2" x1="430.5" y1="82" x2="430.5" y2="400"/>
	<line fill="none" stroke="#6E6E6E" stroke-miterlimit="10" stroke-dasharray="2,2" x1="492.5" y1="82" x2="492.5" y2="400"/>
	<line fill="none" stroke="#6E6E6E" stroke-miterlimit="10" stroke-dasharray="2,2" x1="522.5" y1="82" x2="522.5" y2="400"/>
	<line fill="none" stroke="#6E6E6E" stroke-miterlimit="10" stroke-dasharray="2,2" x1="561.5" y1="82" x2="561.5" y2="400"/>
	<line fill="none" stroke="#6E6E6E" stroke-miterlimit="10" stroke-dasharray="2,2" x1="604.5" y1="82" x2="604.5" y2="400"/>
	<line fill="none" stroke="#6E6E6E" stroke-miterlimit="10" stroke-dasharray="2,2" x1="645.5" y1="82" x2="645.5" y2="400"/>
	<path fill="#D9D5D0" stroke="#FFFFFF" stroke-miterlimit="10" d="M560.5,107.206c0,5.685-4.608,10.294-10.294,10.294H97.794
		c-5.685,0-10.294-4.609-10.294-10.294v-0.412c0-5.685,4.609-10.294,10.294-10.294h452.412c5.686,0,10.294,4.609,10.294,10.294
		V107.206z"/>
	<path fill="#D9D5D0" stroke="#FFFFFF" stroke-miterlimit="10" d="M645.5,219.206c0,5.685-4.608,10.294-10.294,10.294H137.794
		c-5.685,0-10.294-4.609-10.294-10.294v-0.412c0-5.685,4.609-10.294,10.294-10.294h497.412c5.686,0,10.294,4.609,10.294,10.294
		V219.206z"/>
	<path fill="#D9D5D0" stroke="#FFFFFF" stroke-miterlimit="10" d="M604.5,335.206c0,5.685-4.608,10.294-10.294,10.294H214.794
		c-5.685,0-10.294-4.609-10.294-10.294v-0.412c0-5.685,4.609-10.294,10.294-10.294h379.412c5.686,0,10.294,4.609,10.294,10.294
		V335.206z"/>
	<text transform="matrix(1 0 0 1 90 91.5)" fill="#FFFFFF" font-family="'MyriadPro-Regular'" font-size="13">deep.context</text>
	<text transform="matrix(1 0 0 1 75.3984 41.5)" fill="#FFFFFF" font-family="'MyriadPro-Regular'" font-size="14">• Illustration of deep.context association under async server (as nodejs) for each incoming request.</text>
	<text transform="matrix(1 0 0 1 103 419.5)" fill="#FFFFFF" font-family="'MyriadPro-Regular'" font-size="12">request reception</text>
	<text transform="matrix(1 0 0 1 103 440.5)" fill="#FFFFFF" font-family="'MyriadPro-Regular'" font-size="12">request end</text>
	<text transform="matrix(1 0 0 1 132 203.5)" fill="#FFFFFF" font-family="'MyriadPro-Regular'" font-size="13">deep.context</text>
	<text transform="matrix(1 0 0 1 209 318.5)" fill="#FFFFFF" font-family="'MyriadPro-Regular'" font-size="13">deep.context</text>
	<path fill="#C5D96D" stroke="#E6E2CC" stroke-miterlimit="10" d="M127.5,134c0,5.799-4.701,10.5-10.5,10.5H96
		c-5.799,0-10.5-4.701-10.5-10.5l0,0c0-5.799,4.701-10.5,10.5-10.5h21C122.799,123.5,127.5,128.201,127.5,134L127.5,134z"/>
	<path fill="#C5D96D" stroke="#E6E2CC" stroke-miterlimit="10" d="M430.5,134c0,5.799-4.701,10.5-10.5,10.5h-41
		c-5.799,0-10.5-4.701-10.5-10.5l0,0c0-5.799,4.701-10.5,10.5-10.5h41C425.799,123.5,430.5,128.201,430.5,134L430.5,134z"/>
	<path fill="#C5D96D" stroke="#E6E2CC" stroke-miterlimit="10" d="M560.5,134c0,5.799-4.701,10.5-10.5,10.5h-18
		c-5.799,0-10.5-4.701-10.5-10.5l0,0c0-5.799,4.701-10.5,10.5-10.5h18C555.799,123.5,560.5,128.201,560.5,134L560.5,134z"/>
	<path fill="#C5D96D" stroke="#E6E2CC" stroke-miterlimit="10" d="M204.5,134c0,5.799-4.701,10.5-10.5,10.5h-14
		c-5.799,0-10.5-4.701-10.5-10.5l0,0c0-5.799,4.701-10.5,10.5-10.5h14C199.799,123.5,204.5,128.201,204.5,134L204.5,134z"/>
	<path fill="#E8E49C" stroke="#E6E2CC" stroke-miterlimit="10" d="M169.5,246c0,5.799-4.701,10.5-10.5,10.5h-21
		c-5.799,0-10.5-4.701-10.5-10.5l0,0c0-5.799,4.701-10.5,10.5-10.5h21C164.799,235.5,169.5,240.201,169.5,246L169.5,246z"/>
	<path fill="#E8E49C" stroke="#E6E2CC" stroke-miterlimit="10" d="M317.5,246c0,5.799-4.701,10.5-10.5,10.5h-51
		c-5.799,0-10.5-4.701-10.5-10.5l0,0c0-5.799,4.701-10.5,10.5-10.5h51C312.799,235.5,317.5,240.201,317.5,246L317.5,246z"/>
	<path fill="#E8E49C" stroke="#E6E2CC" stroke-miterlimit="10" d="M491.5,246c0,5.799-4.701,10.5-10.5,10.5h-41
		c-5.799,0-10.5-4.701-10.5-10.5l0,0c0-5.799,4.701-10.5,10.5-10.5h41C486.799,235.5,491.5,240.201,491.5,246L491.5,246z"/>
	<path fill="#E8E49C" stroke="#E6E2CC" stroke-miterlimit="10" d="M645.5,246c0,5.799-4.701,10.5-10.5,10.5h-21
		c-5.799,0-10.5-4.701-10.5-10.5l0,0c0-5.799,4.701-10.5,10.5-10.5h21C640.799,235.5,645.5,240.201,645.5,246L645.5,246z"/>
	<path fill="#18C0EB" stroke="#E6E2CC" stroke-miterlimit="10" d="M246.5,363c0,5.799-4.701,10.5-10.5,10.5h-21
		c-5.799,0-10.5-4.701-10.5-10.5l0,0c0-5.799,4.701-10.5,10.5-10.5h21C241.799,352.5,246.5,357.201,246.5,363L246.5,363z"/>
	<path fill="#18C0EB" stroke="#E6E2CC" stroke-miterlimit="10" d="M368.5,363c0,5.799-4.701,10.5-10.5,10.5h-31
		c-5.799,0-10.5-4.701-10.5-10.5l0,0c0-5.799,4.701-10.5,10.5-10.5h31C363.799,352.5,368.5,357.201,368.5,363L368.5,363z"/>
	<path fill="#18C0EB" stroke="#E6E2CC" stroke-miterlimit="10" d="M522.5,363c0,5.799-4.701,10.5-10.5,10.5h-10
		c-5.799,0-10.5-4.701-10.5-10.5l0,0c0-5.799,4.701-10.5,10.5-10.5h10C517.799,352.5,522.5,357.201,522.5,363L522.5,363z"/>
	<path fill="#18C0EB" stroke="#E6E2CC" stroke-miterlimit="10" d="M603.5,363c0,5.799-4.701,10.5-10.5,10.5h-21
		c-5.799,0-10.5-4.701-10.5-10.5l0,0c0-5.799,4.701-10.5,10.5-10.5h21C598.799,352.5,603.5,357.201,603.5,363L603.5,363z"/>
	<text transform="matrix(1 0 0 1 104 111)" font-family="'MyriadPro-Regular'" font-size="13">• nodejs request</text>
	<text transform="matrix(1 0 0 1 220 111)" font-family="'MyriadPro-Regular'" font-size="13">• jQuery Reference</text>
	<text transform="matrix(1 0 0 1 344 111)" font-family="'MyriadPro-Regular'" font-size="13">• OCM modes</text>
	<text transform="matrix(1 0 0 1 444 111)" font-family="'MyriadPro-Regular'" font-size="13">•...</text>
	<text transform="matrix(1 0 0 1 474 223)" font-family="'MyriadPro-Regular'" font-size="13">•...</text>
	<text transform="matrix(1 0 0 1 573 338)" font-family="'MyriadPro-Regular'" font-size="13">•...</text>
	<text transform="matrix(1 0 0 1 144 223)" font-family="'MyriadPro-Regular'" font-size="13">• nodejs request</text>
	<text transform="matrix(1 0 0 1 254 223)" font-family="'MyriadPro-Regular'" font-size="13">• jQuery Reference</text>
	<text transform="matrix(1 0 0 1 374 223)" font-family="'MyriadPro-Regular'" font-size="13">• OCM modes</text>
	<text transform="matrix(1 0 0 1 221 339)" font-family="'MyriadPro-Regular'" font-size="13">• nodejs request</text>
	<text transform="matrix(1 0 0 1 331 339)" font-family="'MyriadPro-Regular'" font-size="13">• jQuery Reference</text>
	<text transform="matrix(1 0 0 1 461 339)" font-family="'MyriadPro-Regular'" font-size="13">• OCM modes</text>
	<text transform="matrix(1 0 0 1 37.1406 131)"><tspan x="0" y="0" fill="#C9C4BB" font-family="'MyriadPro-Regular'" font-size="13">User 1</tspan><tspan x="-7.462" y="13" fill="#C9C4BB" font-family="'MyriadPro-Regular'" font-size="13">request</tspan></text>
	<text transform="matrix(1 0 0 1 37.1406 244)"><tspan x="0" y="0" fill="#C9C4BB" font-family="'MyriadPro-Regular'" font-size="13">User 2</tspan><tspan x="-7.462" y="13" fill="#C9C4BB" font-family="'MyriadPro-Regular'" font-size="13">request</tspan></text>
	<text transform="matrix(1 0 0 1 37.1406 361.4438)"><tspan x="0" y="0" fill="#C9C4BB" font-family="'MyriadPro-Regular'" font-size="13">User 3</tspan><tspan x="-7.462" y="13" fill="#C9C4BB" font-family="'MyriadPro-Regular'" font-size="13">request</tspan></text>
	<line fill="none" stroke="#A1A1A1" stroke-miterlimit="10" x1="70" y1="400.5" x2="671" y2="400.5"/>
	<polygon fill="#7A7A7A" points="681,400.5 666,407.5 666,393.5 681,400.5 	"/>
	<polygon fill="#7A7A7A" points="596.17,132.779 587,137.059 587,128.5 596.17,132.779 	"/>
	<line fill="none" stroke="#A1A1A1" stroke-miterlimit="10" x1="69.5" y1="389" x2="69.5" y2="411"/>
	<circle fill="#918F80" cx="86.444" cy="133.444" r="5.444"/>
	<circle fill="#918F80" cx="128.444" cy="245.444" r="5.444"/>
	<circle fill="#918F80" cx="84.444" cy="416.443" r="5.444"/>
	<circle fill="#918F80" cx="205.444" cy="362.444" r="5.444"/>
	<g>
		<line stroke="#969188" stroke-width="4" stroke-miterlimit="10" x1="557" y1="128" x2="569" y2="140"/>
		<line stroke="#969188" stroke-width="4" stroke-miterlimit="10" x1="569" y1="128" x2="557" y2="140"/>
	</g>
	<g>
		<line stroke="#969188" stroke-width="4" stroke-miterlimit="10" x1="599" y1="357" x2="611" y2="369"/>
		<line stroke="#969188" stroke-width="4" stroke-miterlimit="10" x1="611" y1="357" x2="599" y2="369"/>
	</g>
	<g>
		<line stroke="#969188" stroke-width="4" stroke-miterlimit="10" x1="79" y1="432" x2="91" y2="444"/>
		<line stroke="#969188" stroke-width="4" stroke-miterlimit="10" x1="91" y1="432" x2="79" y2="444"/>
	</g>
	<g>
		<line stroke="#969188" stroke-width="4" stroke-miterlimit="10" x1="640" y1="240" x2="652" y2="252"/>
		<line stroke="#969188" stroke-width="4" stroke-miterlimit="10" x1="652" y1="240" x2="640" y2="252"/>
	</g>
	<g>
		<text transform="matrix(1 0 0 1 608 418.4434)" fill="#FFFFFF" font-family="'MyriadPro-Regular'" font-size="12">server time</text>
	</g>
	<g>
		<g>
			<circle fill="none" stroke="#14A2C6" stroke-miterlimit="10" stroke-dasharray="2.1541,1.077" cx="26.91" cy="23" r="3.09"/>
		</g>
		<path fill="none" stroke="#75736C" stroke-miterlimit="10" stroke-dasharray="2.0091,2.0091" d="M12.5,62V22.5
			c0-6.627,5.373-12,12-12H66"/>
	</g>
	<g>
		<g>
			<circle fill="none" stroke="#14A2C6" stroke-miterlimit="10" stroke-dasharray="2.1541,1.077" cx="681.59" cy="23" r="3.09"/>
		</g>
		<path fill="none" stroke="#75736C" stroke-miterlimit="10" stroke-dasharray="2.0091,2.0091" d="M695.5,62V22.5
			c0-6.627-4.873-12-11.5-12h-42"/>
	</g>
	<g>
		<g>
			<circle fill="none" stroke="#14A2C6" stroke-miterlimit="10" stroke-dasharray="2.1541,1.077" cx="681.59" cy="464.5" r="3.09"/>
		</g>
		<path fill="none" stroke="#75736C" stroke-miterlimit="10" stroke-dasharray="2.0091,2.0091" d="M695.5,426v39
			c0,6.627-4.873,12.5-11.5,12.5h-42"/>
	</g>
	<g>
		<g>
			<circle fill="none" stroke="#14A2C6" stroke-miterlimit="10" stroke-dasharray="2.1541,1.077" cx="28.91" cy="464.5" r="3.09"/>
		</g>
		<path fill="none" stroke="#75736C" stroke-miterlimit="10" stroke-dasharray="2.0091,2.0091" d="M14.5,426v39
			c0,6.627,5.373,12.5,12,12.5H68"/>
	</g>
</g>
</svg>
