<?xml version="1.0" encoding="utf-8"?>
<!-- Generator: Adobe Illustrator 15.0.0, SVG Export Plug-In . SVG Version: 6.00 Build 0)  -->
<!DOCTYPE svg PUBLIC "-//W3C//DTD SVG 1.1//EN" "http://www.w3.org/Graphics/SVG/1.1/DTD/svg11.dtd">
<svg version="1.1" id="Layer_1" xmlns="http://www.w3.org/2000/svg" xmlns:xlink="http://www.w3.org/1999/xlink" x="0px" y="0px"
	 width="1000px" height="1000px" viewBox="0 0 1000 1000" enable-background="new 0 0 1000 1000" xml:space="preserve">
<linearGradient id="triangle36_89_" gradientUnits="userSpaceOnUse" x1="217.9634" y1="204.2788" x2="219.0781" y2="205.3936" gradientTransform="matrix(105 0 0 172 -22896 -35120)">
	<stop  offset="0" style="stop-color:#2C3D00"/>
	<stop  offset="1" style="stop-color:#304300"/>
</linearGradient>
<polygon id="triangle36" fill="url(#triangle36_89_)" points="1,-2 21,185 115,102 "/>
<linearGradient id="triangle36_90_" gradientUnits="userSpaceOnUse" x1="219.1782" y1="202.5928" x2="220.3127" y2="203.7273" gradientTransform="matrix(158 0 0 96 -34609 -19471)">
	<stop  offset="0" style="stop-color:#2A3800"/>
	<stop  offset="1" style="stop-color:#314000"/>
</linearGradient>
<polygon id="triangle36_1_" fill="url(#triangle36_90_)" points="1,-2 115,102 168,0 "/>
<linearGradient id="triangle36_91_" gradientUnits="userSpaceOnUse" x1="218.8354" y1="203.686" x2="219.865" y2="204.7156" gradientTransform="matrix(146 0 0 126 -31852 -25651)">
	<stop  offset="0" style="stop-color:#324200"/>
	<stop  offset="1" style="stop-color:#374500"/>
</linearGradient>
<polygon id="triangle36_2_" fill="url(#triangle36_91_)" points="115,102 168,0 261,132 "/>
<linearGradient id="triangle36_92_" gradientUnits="userSpaceOnUse" x1="218.9834" y1="203.9634" x2="219.9824" y2="204.9625" gradientTransform="matrix(146 0 0 149 -31852 -30293)">
	<stop  offset="0" style="stop-color:#3B4E00"/>
	<stop  offset="1" style="stop-color:#425601"/>
</linearGradient>
<polygon id="triangle36_3_" fill="url(#triangle36_92_)" points="115,102 261,132 162,251 "/>
<linearGradient id="triangle36_93_" gradientUnits="userSpaceOnUse" x1="218.9067" y1="203.9663" x2="219.9067" y2="204.9663" gradientTransform="matrix(141 0 0 149 -30841 -30293)">
	<stop  offset="0" style="stop-color:#2E4200"/>
	<stop  offset="1" style="stop-color:#374C00"/>
</linearGradient>
<polygon id="triangle36_4_" fill="url(#triangle36_93_)" points="21,185 115,102 162,251 "/>
<linearGradient id="triangle36_94_" gradientUnits="userSpaceOnUse" x1="218.7949" y1="204.3647" x2="219.7949" y2="205.3646" gradientTransform="matrix(141 0 0 174 -30841 -35360)">
	<stop  offset="0" style="stop-color:#314800"/>
	<stop  offset="1" style="stop-color:#395500"/>
</linearGradient>
<polygon id="triangle36_5_" fill="url(#triangle36_94_)" points="21,185 162,251 27,359 "/>
<linearGradient id="triangle36_95_" gradientUnits="userSpaceOnUse" x1="218.9282" y1="204.7129" x2="219.9281" y2="205.7128" gradientTransform="matrix(135 0 0 261 -29509 -53216)">
	<stop  offset="0" style="stop-color:#3B5D01"/>
	<stop  offset="1" style="stop-color:#426401"/>
</linearGradient>
<polygon id="triangle36_6_" fill="url(#triangle36_95_)" points="27,359 162,251 104,512 "/>
<linearGradient id="triangle36_96_" gradientUnits="userSpaceOnUse" x1="219.1245" y1="205.022" x2="220.1245" y2="206.022" gradientTransform="matrix(175 0 0 261 -38272 -53216)">
	<stop  offset="0" style="stop-color:#446B02"/>
	<stop  offset="1" style="stop-color:#456401"/>
</linearGradient>
<polygon id="triangle36_7_" fill="url(#triangle36_96_)" points="104,512 162,251 279,462 "/>
<linearGradient id="triangle36_97_" gradientUnits="userSpaceOnUse" x1="219.6802" y1="204.686" x2="220.6802" y2="205.686" gradientTransform="matrix(231 0 0 223 -50590 -45507)">
	<stop  offset="0" style="stop-color:#3F5501"/>
	<stop  offset="1" style="stop-color:#4B5E01"/>
</linearGradient>
<polygon id="triangle36_8_" fill="url(#triangle36_97_)" points="162,251 261,132 393,355 "/>
<linearGradient id="triangle36_98_" gradientUnits="userSpaceOnUse" x1="219.7095" y1="204.5796" x2="220.7095" y2="205.5796" gradientTransform="matrix(231 0 0 211 -50590 -42916)">
	<stop  offset="0" style="stop-color:#435C01"/>
	<stop  offset="1" style="stop-color:#516D01"/>
</linearGradient>
<polygon id="triangle36_9_" fill="url(#triangle36_98_)" points="162,251 279,462 393,355 "/>
<linearGradient id="triangle36_99_" gradientUnits="userSpaceOnUse" x1="219.6348" y1="204.5889" x2="220.6339" y2="205.588" gradientTransform="matrix(208 0 0 223 -45408 -45507)">
	<stop  offset="0" style="stop-color:#4D5D01"/>
	<stop  offset="1" style="stop-color:#5D6D01"/>
</linearGradient>
<polygon id="triangle36_10_" fill="url(#triangle36_99_)" points="261,132 393,355 469,210 "/>
<linearGradient id="triangle36_100_" gradientUnits="userSpaceOnUse" x1="219.6631" y1="204.0771" x2="220.664" y2="205.0781" gradientTransform="matrix(208 0 0 164 -45408 -33439)">
	<stop  offset="0" style="stop-color:#495601"/>
	<stop  offset="1" style="stop-color:#565E01"/>
</linearGradient>
<polygon id="triangle36_11_" fill="url(#triangle36_100_)" points="261,132 469,210 453,46 "/>
<linearGradient id="triangle36_101_" gradientUnits="userSpaceOnUse" x1="219.7646" y1="203.5312" x2="220.7973" y2="204.5639" gradientTransform="matrix(226 0 0 128 -49479 -26065)">
	<stop  offset="0" style="stop-color:#364201"/>
	<stop  offset="1" style="stop-color:#455001"/>
</linearGradient>
<polygon id="triangle36_12_" fill="url(#triangle36_101_)" points="168,0 261,132 394,0 "/>
<linearGradient id="triangle36_102_" gradientUnits="userSpaceOnUse" x1="219.3418" y1="203.7012" x2="220.3918" y2="204.7512" gradientTransform="matrix(192 0 0 128 -41872 -26065)">
	<stop  offset="0" style="stop-color:#4A5601"/>
	<stop  offset="1" style="stop-color:#4E5401"/>
</linearGradient>
<polygon id="triangle36_13_" fill="url(#triangle36_102_)" points="261,132 453,46 394,0 "/>
<linearGradient id="triangle36_103_" gradientUnits="userSpaceOnUse" x1="218.9927" y1="198.9009" x2="220.0507" y2="199.9589" gradientTransform="matrix(158 0 0 42 -34225 -8349)">
	<stop  offset="0" style="stop-color:#494C01"/>
	<stop  offset="1" style="stop-color:#4E4F01"/>
</linearGradient>
<polygon id="triangle36_14_" fill="url(#triangle36_103_)" points="394,0 453,46 552,31 "/>
<linearGradient id="triangle36_104_" gradientUnits="userSpaceOnUse" x1="218.5859" y1="204.3438" x2="219.5859" y2="205.3438" gradientTransform="matrix(133 0 0 164 -28641 -33439)">
	<stop  offset="0" style="stop-color:#575C01"/>
	<stop  offset="1" style="stop-color:#626701"/>
</linearGradient>
<polygon id="triangle36_15_" fill="url(#triangle36_104_)" points="453,46 469,210 586,175 "/>
<linearGradient id="triangle36_105_" gradientUnits="userSpaceOnUse" x1="218.9136" y1="203.7651" x2="219.9136" y2="204.7651" gradientTransform="matrix(133 0 0 144 -28641 -29334)">
	<stop  offset="0" style="stop-color:#585B01"/>
	<stop  offset="1" style="stop-color:#5D5C01"/>
</linearGradient>
<polygon id="triangle36_16_" fill="url(#triangle36_105_)" points="453,46 552,31 586,175 "/>
<linearGradient id="triangle36_106_" gradientUnits="userSpaceOnUse" x1="219.0303" y1="204.0693" x2="220.0295" y2="205.0686" gradientTransform="matrix(164 0 0 144 -35393 -29334)">
	<stop  offset="0" style="stop-color:#656001"/>
	<stop  offset="1" style="stop-color:#676001"/>
</linearGradient>
<polygon id="triangle36_17_" fill="url(#triangle36_106_)" points="552,31 716,145 586,175 "/>
<linearGradient id="triangle36_107_" gradientUnits="userSpaceOnUse" x1="219.1953" y1="204.083" x2="220.1953" y2="205.083" gradientTransform="matrix(180 0 0 145 -39088 -29361)">
	<stop  offset="0" style="stop-color:#617302"/>
	<stop  offset="1" style="stop-color:#6C7701"/>
</linearGradient>
<polygon id="triangle36_18_" fill="url(#triangle36_107_)" points="393,355 469,210 573,350 "/>
<linearGradient id="triangle36_108_" gradientUnits="userSpaceOnUse" x1="218.6445" y1="204.0918" x2="219.6445" y2="205.0918" gradientTransform="matrix(117 0 0 175 -25089 -35576)">
	<stop  offset="0" style="stop-color:#697201"/>
	<stop  offset="1" style="stop-color:#6B7001"/>
</linearGradient>
<polygon id="triangle36_19_" fill="url(#triangle36_108_)" points="469,210 586,175 573,350 "/>
<linearGradient id="triangle36_109_" gradientUnits="userSpaceOnUse" x1="218.9102" y1="204.542" x2="219.9102" y2="205.542" gradientTransform="matrix(143 0 0 205 -30731 -41786)">
	<stop  offset="0" style="stop-color:#6A6801"/>
	<stop  offset="1" style="stop-color:#6F6C01"/>
</linearGradient>
<polygon id="triangle36_20_" fill="url(#triangle36_109_)" points="586,175 716,145 573,350 "/>
<linearGradient id="triangle36_110_" gradientUnits="userSpaceOnUse" x1="219.7295" y1="204.0938" x2="220.7295" y2="205.0938" gradientTransform="matrix(247 0 0 152 -54009 -30658)">
	<stop  offset="0" style="stop-color:#5E8001"/>
	<stop  offset="1" style="stop-color:#6D8902"/>
</linearGradient>
<polygon id="triangle36_21_" fill="url(#triangle36_110_)" points="279,462 393,355 526,507 "/>
<linearGradient id="triangle36_111_" gradientUnits="userSpaceOnUse" x1="219.5229" y1="203.9106" x2="220.5229" y2="204.9106" gradientTransform="matrix(180 0 0 157 -39088 -31693)">
	<stop  offset="0" style="stop-color:#667C01"/>
	<stop  offset="1" style="stop-color:#788C01"/>
</linearGradient>
<polygon id="triangle36_22_" fill="url(#triangle36_111_)" points="393,355 573,350 526,507 "/>
<linearGradient id="triangle36_112_" gradientUnits="userSpaceOnUse" x1="219.7749" y1="204.0103" x2="220.7749" y2="205.0103" gradientTransform="matrix(247 0 0 149 -54009 -29933)">
	<stop  offset="0" style="stop-color:#597E01"/>
	<stop  offset="1" style="stop-color:#6A9001"/>
</linearGradient>
<polygon id="triangle36_23_" fill="url(#triangle36_112_)" points="279,462 526,507 338,611 "/>
<linearGradient id="triangle36_113_" gradientUnits="userSpaceOnUse" x1="219.416" y1="204.3105" x2="220.416" y2="205.3105" gradientTransform="matrix(175 0 0 191 -38272 -38585)">
	<stop  offset="0" style="stop-color:#477301"/>
	<stop  offset="1" style="stop-color:#4D7901"/>
</linearGradient>
<polygon id="triangle36_24_" fill="url(#triangle36_113_)" points="104,512 279,462 191,653 "/>
<linearGradient id="triangle36_114_" gradientUnits="userSpaceOnUse" x1="218.8667" y1="204.5361" x2="219.8667" y2="205.5363" gradientTransform="matrix(147 0 0 191 -31997 -38585)">
	<stop  offset="0" style="stop-color:#537C01"/>
	<stop  offset="1" style="stop-color:#558701"/>
</linearGradient>
<polygon id="triangle36_25_" fill="url(#triangle36_114_)" points="279,462 338,611 191,653 "/>
<linearGradient id="triangle36_115_" gradientUnits="userSpaceOnUse" x1="218.8037" y1="204.292" x2="219.8037" y2="205.292" gradientTransform="matrix(146 0 0 161 -31922 -32355)">
	<stop  offset="0" style="stop-color:#437201"/>
	<stop  offset="1" style="stop-color:#447801"/>
</linearGradient>
<polygon id="triangle36_26_" fill="url(#triangle36_115_)" points="104,512 191,653 45,673 "/>
<linearGradient id="triangle36_116_" gradientUnits="userSpaceOnUse" x1="217.0542" y1="205.1108" x2="218.0542" y2="206.1108" gradientTransform="matrix(77 0 0 314 -16691 -64026)">
	<stop  offset="0" style="stop-color:#385C01"/>
	<stop  offset="1" style="stop-color:#3F6E01"/>
</linearGradient>
<polygon id="triangle36_27_" fill="url(#triangle36_116_)" points="27,359 104,512 45,673 "/>
<linearGradient id="triangle36_117_" gradientUnits="userSpaceOnUse" x1="195.4023" y1="205.4365" x2="197.0674" y2="207.1014" gradientTransform="matrix(12 0 0 712 -2344 -146360)">
	<stop  offset="0" style="stop-color:#2A3E00"/>
	<stop  offset="1" style="stop-color:#315300"/>
</linearGradient>
<polygon id="triangle36_28_" fill="url(#triangle36_117_)" points="1,-2 21,185 -1,725 "/>
<linearGradient id="triangle36_118_" gradientUnits="userSpaceOnUse" x1="203.9458" y1="205.4414" x2="205.2877" y2="206.7833" gradientTransform="matrix(18 0 0 540 -3670 -110756)">
	<stop  offset="0" style="stop-color:#2E4800"/>
	<stop  offset="1" style="stop-color:#376000"/>
</linearGradient>
<polygon id="triangle36_29_" fill="url(#triangle36_118_)" points="21,185 27,359 -1,725 "/>
<linearGradient id="triangle36_119_" gradientUnits="userSpaceOnUse" x1="212.5005" y1="205.3774" x2="213.5005" y2="206.3774" gradientTransform="matrix(36 0 0 366 -7648 -74738)">
	<stop  offset="0" style="stop-color:#365C01"/>
	<stop  offset="1" style="stop-color:#3A6E01"/>
</linearGradient>
<polygon id="triangle36_30_" fill="url(#triangle36_119_)" points="27,359 45,673 -1,725 "/>
<linearGradient id="triangle36_120_" gradientUnits="userSpaceOnUse" x1="219.0723" y1="204.3232" x2="220.0723" y2="205.3232" gradientTransform="matrix(146 0 0 192 -31922 -38600)">
	<stop  offset="0" style="stop-color:#3D7201"/>
	<stop  offset="1" style="stop-color:#447F01"/>
</linearGradient>
<polygon id="triangle36_31_" fill="url(#triangle36_120_)" points="45,673 191,653 115,845 "/>
<linearGradient id="triangle36_121_" gradientUnits="userSpaceOnUse" x1="218.1113" y1="204.2217" x2="219.1658" y2="205.2762" gradientTransform="matrix(106 0 0 172 -23118 -34460)">
	<stop  offset="0" style="stop-color:#3B7301"/>
	<stop  offset="1" style="stop-color:#3E7801"/>
</linearGradient>
<polygon id="triangle36_32_" fill="url(#triangle36_121_)" points="-1,725 45,673 115,845 "/>
<linearGradient id="triangle36_122_" gradientUnits="userSpaceOnUse" x1="219.168" y1="204.585" x2="220.168" y2="205.585" gradientTransform="matrix(177 0 0 192 -38703 -38600)">
	<stop  offset="0" style="stop-color:#448301"/>
	<stop  offset="1" style="stop-color:#4F8C01"/>
</linearGradient>
<polygon id="triangle36_33_" fill="url(#triangle36_122_)" points="115,845 191,653 292,792 "/>
<linearGradient id="triangle36_123_" gradientUnits="userSpaceOnUse" x1="219.1387" y1="204.1768" x2="220.1387" y2="205.1768" gradientTransform="matrix(147 0 0 181 -31997 -36376)">
	<stop  offset="0" style="stop-color:#569101"/>
	<stop  offset="1" style="stop-color:#5B9501"/>
</linearGradient>
<polygon id="triangle36_34_" fill="url(#triangle36_123_)" points="191,653 338,611 292,792 "/>
<linearGradient id="triangle36_124_" gradientUnits="userSpaceOnUse" x1="219.438" y1="204.5005" x2="220.438" y2="205.5005" gradientTransform="matrix(212 0 0 181 -46261 -36376)">
	<stop  offset="0" style="stop-color:#5E9C01"/>
	<stop  offset="1" style="stop-color:#669901"/>
</linearGradient>
<polygon id="triangle36_35_" fill="url(#triangle36_124_)" points="292,792 338,611 504,721 "/>
<linearGradient id="triangle36_125_" gradientUnits="userSpaceOnUse" x1="219.5386" y1="204.4741" x2="220.5396" y2="205.4751" gradientTransform="matrix(188 0 0 214 -40911 -43278)">
	<stop  offset="0" style="stop-color:#679401"/>
	<stop  offset="1" style="stop-color:#78A101"/>
</linearGradient>
<polygon id="triangle36_36_" fill="url(#triangle36_125_)" points="338,611 526,507 504,721 "/>
<linearGradient id="triangle36_126_" gradientUnits="userSpaceOnUse" x1="218.3516" y1="204.7617" x2="219.3516" y2="205.7617" gradientTransform="matrix(120 0 0 214 -25717 -43278)">
	<stop  offset="0" style="stop-color:#78A101"/>
	<stop  offset="1" style="stop-color:#88A701"/>
</linearGradient>
<polygon id="triangle36_37_" fill="url(#triangle36_126_)" points="504,721 526,507 624,642 "/>
<linearGradient id="triangle36_127_" gradientUnits="userSpaceOnUse" x1="219.292" y1="204.2871" x2="220.292" y2="205.2871" gradientTransform="matrix(197 0 0 157 -42712 -31693)">
	<stop  offset="0" style="stop-color:#89A002"/>
	<stop  offset="1" style="stop-color:#959E01"/>
</linearGradient>
<polygon id="triangle36_38_" fill="url(#triangle36_127_)" points="526,507 573,350 723,506 "/>
<linearGradient id="triangle36_128_" gradientUnits="userSpaceOnUse" x1="219.6064" y1="203.6777" x2="220.6056" y2="204.6768" gradientTransform="matrix(197 0 0 136 -42712 -27211)">
	<stop  offset="0" style="stop-color:#8FA902"/>
	<stop  offset="1" style="stop-color:#A5B902"/>
</linearGradient>
<polygon id="triangle36_39_" fill="url(#triangle36_128_)" points="526,507 624,642 723,506 "/>
<linearGradient id="triangle36_129_" gradientUnits="userSpaceOnUse" x1="219.583" y1="204.6445" x2="220.5829" y2="205.6445" gradientTransform="matrix(225 0 0 207 -48853 -42198)">
	<stop  offset="0" style="stop-color:#767601"/>
	<stop  offset="1" style="stop-color:#756801"/>
</linearGradient>
<polygon id="triangle36_40_" fill="url(#triangle36_129_)" points="573,350 716,145 798,352 "/>
<linearGradient id="triangle36_130_" gradientUnits="userSpaceOnUse" x1="219.835" y1="203.9199" x2="220.835" y2="204.9199" gradientTransform="matrix(225 0 0 156 -48853 -31487)">
	<stop  offset="0" style="stop-color:#8B8D01"/>
	<stop  offset="1" style="stop-color:#A09901"/>
</linearGradient>
<polygon id="triangle36_41_" fill="url(#triangle36_130_)" points="573,350 723,506 798,352 "/>
<linearGradient id="triangle36_131_" gradientUnits="userSpaceOnUse" x1="218.5566" y1="204.4863" x2="219.5566" y2="205.4863" gradientTransform="matrix(119 0 0 207 -25284 -42198)">
	<stop  offset="0" style="stop-color:#756401"/>
	<stop  offset="1" style="stop-color:#816B01"/>
</linearGradient>
<polygon id="triangle36_42_" fill="url(#triangle36_131_)" points="716,145 798,352 835,230 "/>
<linearGradient id="triangle36_132_" gradientUnits="userSpaceOnUse" x1="218.8569" y1="202.5571" x2="219.8577" y2="203.5579" gradientTransform="matrix(126 0 0 93 -26831 -18722)">
	<stop  offset="0" style="stop-color:#6C5A01"/>
	<stop  offset="1" style="stop-color:#735B01"/>
</linearGradient>
<polygon id="triangle36_43_" fill="url(#triangle36_132_)" points="716,145 835,230 842,137 "/>
<linearGradient id="triangle36_133_" gradientUnits="userSpaceOnUse" x1="220.2651" y1="194.7085" x2="221.3688" y2="195.8122" gradientTransform="matrix(372 0 0 27 -81519 -5259)">
	<stop  offset="0" style="stop-color:#525101"/>
	<stop  offset="1" style="stop-color:#554C00"/>
</linearGradient>
<polygon id="triangle36_44_" fill="url(#triangle36_133_)" points="394,0 552,31 766,0 "/>
<linearGradient id="triangle36_134_" gradientUnits="userSpaceOnUse" x1="219.8032" y1="203.6821" x2="220.8024" y2="204.6813" gradientTransform="matrix(214 0 0 141 -46443 -28743)">
	<stop  offset="0" style="stop-color:#5C5400"/>
	<stop  offset="1" style="stop-color:#5D4F00"/>
</linearGradient>
<polygon id="triangle36_45_" fill="url(#triangle36_134_)" points="552,31 716,145 766,0 "/>
<linearGradient id="triangle36_135_" gradientUnits="userSpaceOnUse" x1="218.4653" y1="204.0049" x2="219.4833" y2="205.0227" gradientTransform="matrix(126 0 0 141 -26831 -28743)">
	<stop  offset="0" style="stop-color:#6B5901"/>
	<stop  offset="1" style="stop-color:#675100"/>
</linearGradient>
<polygon id="triangle36_46_" fill="url(#triangle36_135_)" points="716,145 842,137 766,0 "/>
<linearGradient id="triangle36_136_" gradientUnits="userSpaceOnUse" x1="219.1167" y1="203.5981" x2="220.1368" y2="204.6183" gradientTransform="matrix(149 0 0 133 -31864 -27095)">
	<stop  offset="0" style="stop-color:#5B4500"/>
	<stop  offset="1" style="stop-color:#6B4D01"/>
</linearGradient>
<polygon id="triangle36_47_" fill="url(#triangle36_136_)" points="766,0 842,137 916,-1 "/>
<linearGradient id="triangle36_137_" gradientUnits="userSpaceOnUse" x1="218.3315" y1="202.9497" x2="219.3315" y2="203.9497" gradientTransform="matrix(112 0 0 98 -23618 -19757)">
	<stop  offset="0" style="stop-color:#7E6001"/>
	<stop  offset="1" style="stop-color:#785701"/>
</linearGradient>
<polygon id="triangle36_48_" fill="url(#triangle36_137_)" points="835,230 842,137 947,132 "/>
<linearGradient id="triangle36_138_" gradientUnits="userSpaceOnUse" x1="218.0244" y1="203.5273" x2="219.1118" y2="204.6147" gradientTransform="matrix(105 0 0 123 -22064 -25025)">
	<stop  offset="0" style="stop-color:#715301"/>
	<stop  offset="1" style="stop-color:#714C01"/>
</linearGradient>
<polygon id="triangle36_49_" fill="url(#triangle36_138_)" points="842,137 916,-1 947,132 "/>
<linearGradient id="triangle36_139_" gradientUnits="userSpaceOnUse" x1="218.6914" y1="203.6768" x2="219.6914" y2="204.6768" gradientTransform="matrix(137 0 0 122 -29180 -24603)">
	<stop  offset="0" style="stop-color:#947A01"/>
	<stop  offset="1" style="stop-color:#896901"/>
</linearGradient>
<polygon id="triangle36_50_" fill="url(#triangle36_139_)" points="798,352 835,230 935,292 "/>
<linearGradient id="triangle36_140_" gradientUnits="userSpaceOnUse" x1="219.2314" y1="204.1934" x2="220.2316" y2="205.1934" gradientTransform="matrix(183 0 0 154 -39421 -31073)">
	<stop  offset="0" style="stop-color:#B6AE02"/>
	<stop  offset="1" style="stop-color:#9E8602"/>
</linearGradient>
<polygon id="triangle36_51_" fill="url(#triangle36_140_)" points="723,506 798,352 906,435 "/>
<linearGradient id="triangle36_141_" gradientUnits="userSpaceOnUse" x1="218.9634" y1="203.7651" x2="219.9634" y2="204.7651" gradientTransform="matrix(137 0 0 143 -29180 -28867)">
	<stop  offset="0" style="stop-color:#947901"/>
	<stop  offset="1" style="stop-color:#977401"/>
</linearGradient>
<polygon id="triangle36_52_" fill="url(#triangle36_141_)" points="798,352 935,292 906,435 "/>
<linearGradient id="triangle36_142_" gradientUnits="userSpaceOnUse" x1="219.5117" y1="204.0967" x2="220.5117" y2="205.0967" gradientTransform="matrix(183 0 0 170 -39421 -34286)">
	<stop  offset="0" style="stop-color:#BAB102"/>
	<stop  offset="1" style="stop-color:#B29702"/>
</linearGradient>
<polygon id="triangle36_53_" fill="url(#triangle36_142_)" points="723,506 906,435 894,605 "/>
<linearGradient id="triangle36_143_" gradientUnits="userSpaceOnUse" x1="219.1479" y1="204.6206" x2="220.1479" y2="205.6206" gradientTransform="matrix(152 0 0 236 -32789 -47675)">
	<stop  offset="0" style="stop-color:#7EAE02"/>
	<stop  offset="1" style="stop-color:#95C402"/>
</linearGradient>
<polygon id="triangle36_54_" fill="url(#triangle36_143_)" points="504,721 624,642 656,878 "/>
<linearGradient id="triangle36_144_" gradientUnits="userSpaceOnUse" x1="219.8301" y1="204.3916" x2="220.8555" y2="205.417" gradientTransform="matrix(231 0 0 202 -50637 -40521)">
	<stop  offset="0" style="stop-color:#4A9101"/>
	<stop  offset="1" style="stop-color:#56A402"/>
</linearGradient>
<polygon id="triangle36_55_" fill="url(#triangle36_144_)" points="115,845 292,792 346,1003 "/>
<linearGradient id="triangle36_145_" gradientUnits="userSpaceOnUse" x1="219.4585" y1="204.2817" x2="220.4885" y2="205.3117" gradientTransform="matrix(231 0 0 152 -50637 -30168)">
	<stop  offset="0" style="stop-color:#479201"/>
	<stop  offset="1" style="stop-color:#4A9E01"/>
</linearGradient>
<polygon id="triangle36_56_" fill="url(#triangle36_145_)" points="115,845 346,1003 117,997 "/>
<linearGradient id="triangle36_146_" gradientUnits="userSpaceOnUse" x1="218.0679" y1="204.1475" x2="218.996" y2="205.0757" gradientTransform="matrix(101 0 0 152 -22006 -30168)">
	<stop  offset="0" style="stop-color:#408701"/>
	<stop  offset="1" style="stop-color:#3B8801"/>
</linearGradient>
<polygon id="triangle36_57_" fill="url(#triangle36_146_)" points="115,845 117,997 2,999 "/>
<linearGradient id="triangle36_147_" gradientUnits="userSpaceOnUse" x1="217.9556" y1="204.8843" x2="219.0182" y2="205.9469" gradientTransform="matrix(106 0 0 240 -23118 -48416)">
	<stop  offset="0" style="stop-color:#397301"/>
	<stop  offset="1" style="stop-color:#3B7F01"/>
</linearGradient>
<polygon id="triangle36_58_" fill="url(#triangle36_147_)" points="-1,725 115,845 2,999 "/>
<linearGradient id="triangle36_148_" gradientUnits="userSpaceOnUse" x1="219.8931" y1="169.8735" x2="220.8931" y2="170.8735" gradientTransform="matrix(304 0 0 8 -66539 -363)">
	<stop  offset="0" style="stop-color:#64BF01"/>
	<stop  offset="1" style="stop-color:#7CD107"/>
</linearGradient>
<polygon id="triangle36_59_" fill="url(#triangle36_148_)" points="346,1003 500,995 650,1000 "/>
<linearGradient id="triangle36_149_" gradientUnits="userSpaceOnUse" x1="219.0801" y1="203.3682" x2="220.1158" y2="204.4039" gradientTransform="matrix(156 0 0 113 -33677 -22101)">
	<stop  offset="0" style="stop-color:#84D40D"/>
	<stop  offset="1" style="stop-color:#99DE10"/>
</linearGradient>
<polygon id="triangle36_60_" fill="url(#triangle36_149_)" points="500,995 656,878 650,1000 "/>
<linearGradient id="triangle36_150_" gradientUnits="userSpaceOnUse" x1="218.7417" y1="203.5229" x2="219.7417" y2="204.5229" gradientTransform="matrix(143 0 0 113 -30654 -22101)">
	<stop  offset="0" style="stop-color:#A0E316"/>
	<stop  offset="1" style="stop-color:#B0E31F"/>
</linearGradient>
<polygon id="triangle36_61_" fill="url(#triangle36_150_)" points="650,1000 656,878 793,945 "/>
<linearGradient id="triangle36_151_" gradientUnits="userSpaceOnUse" x1="219.1694" y1="203.6792" x2="220.1694" y2="204.6792" gradientTransform="matrix(153 0 0 136 -32858 -26908)">
	<stop  offset="0" style="stop-color:#ADDF11"/>
	<stop  offset="1" style="stop-color:#C5E326"/>
</linearGradient>
<polygon id="triangle36_62_" fill="url(#triangle36_151_)" points="656,878 809,809 793,945 "/>
<linearGradient id="triangle36_152_" gradientUnits="userSpaceOnUse" x1="217.9092" y1="203.9326" x2="218.9102" y2="204.9336" gradientTransform="matrix(101 0 0 136 -21229 -26908)">
	<stop  offset="0" style="stop-color:#CEEA30"/>
	<stop  offset="1" style="stop-color:#D5E318"/>
</linearGradient>
<polygon id="triangle36_63_" fill="url(#triangle36_152_)" points="793,945 809,809 894,880 "/>
<linearGradient id="triangle36_153_" gradientUnits="userSpaceOnUse" x1="218.9424" y1="202.5928" x2="219.9434" y2="203.5938" gradientTransform="matrix(135 0 0 92 -28727 -17865)">
	<stop  offset="0" style="stop-color:#D8E116"/>
	<stop  offset="1" style="stop-color:#E6E11A"/>
</linearGradient>
<polygon id="triangle36_64_" fill="url(#triangle36_153_)" points="809,809 894,880 944,788 "/>
<linearGradient id="triangle36_154_" gradientUnits="userSpaceOnUse" x1="217.9316" y1="204.4629" x2="218.9316" y2="205.4629" gradientTransform="matrix(105 0 0 170 -22012 -34286)">
	<stop  offset="0" style="stop-color:#CAA703"/>
	<stop  offset="1" style="stop-color:#BB9002"/>
</linearGradient>
<polygon id="triangle36_65_" fill="url(#triangle36_154_)" points="894,605 906,435 999,588 "/>
<linearGradient id="triangle36_155_" gradientUnits="userSpaceOnUse" x1="218.2725" y1="204.3862" x2="219.2715" y2="205.3852" gradientTransform="matrix(105 0 0 200 -22012 -40313)">
	<stop  offset="0" style="stop-color:#CBAC03"/>
	<stop  offset="1" style="stop-color:#D3AF09"/>
</linearGradient>
<polygon id="triangle36_66_" fill="url(#triangle36_155_)" points="894,605 944,788 999,588 "/>
<linearGradient id="triangle36_156_" gradientUnits="userSpaceOnUse" x1="217.5161" y1="204.019" x2="218.5623" y2="205.0652" gradientTransform="matrix(89 0 0 143 -18464 -28867)">
	<stop  offset="0" style="stop-color:#9F7902"/>
	<stop  offset="1" style="stop-color:#966901"/>
</linearGradient>
<polygon id="triangle36_67_" fill="url(#triangle36_156_)" points="906,435 935,292 1000,367 "/>
<linearGradient id="triangle36_157_" gradientUnits="userSpaceOnUse" x1="217.9624" y1="204.4722" x2="218.9616" y2="205.4714" gradientTransform="matrix(93 0 0 221 -19348 -44860)">
	<stop  offset="0" style="stop-color:#AD8302"/>
	<stop  offset="1" style="stop-color:#AF7D02"/>
</linearGradient>
<polygon id="triangle36_68_" fill="url(#triangle36_157_)" points="906,435 999,588 1000,367 "/>
<linearGradient id="triangle36_158_" gradientUnits="userSpaceOnUse" x1="216.9761" y1="203.2251" x2="218.0555" y2="204.3045" gradientTransform="matrix(72 0 0 118 -14698 -23995)">
	<stop  offset="0" style="stop-color:#714B02"/>
	<stop  offset="1" style="stop-color:#6E4801"/>
</linearGradient>
<polygon id="triangle36_69_" fill="url(#triangle36_158_)" points="916,-1 947,132 999,-1 "/>
<linearGradient id="triangle36_159_" gradientUnits="userSpaceOnUse" x1="219.2744" y1="202.6875" x2="220.2733" y2="203.6864" gradientTransform="matrix(158 0 0 95 -33784 -19074)">
	<stop  offset="0" style="stop-color:#7E5F01"/>
	<stop  offset="1" style="stop-color:#885E01"/>
</linearGradient>
<polygon id="triangle36_70_" fill="url(#triangle36_159_)" points="835,230 935,292 998,197 "/>
<linearGradient id="triangle36_160_" gradientUnits="userSpaceOnUse" x1="219.0244" y1="203.0117" x2="220.0563" y2="204.0436" gradientTransform="matrix(158 0 0 98 -33784 -19757)">
	<stop  offset="0" style="stop-color:#7C5C01"/>
	<stop  offset="1" style="stop-color:#7F5501"/>
</linearGradient>
<polygon id="triangle36_71_" fill="url(#triangle36_160_)" points="835,230 947,132 998,197 "/>
<linearGradient id="triangle36_161_" gradientUnits="userSpaceOnUse" x1="216.1235" y1="204.1025" x2="217.1819" y2="205.161" gradientTransform="matrix(60 0 0 170 -12026 -34524)">
	<stop  offset="0" style="stop-color:#946601"/>
	<stop  offset="1" style="stop-color:#966301"/>
</linearGradient>
<polygon id="triangle36_72_" fill="url(#triangle36_161_)" points="935,292 1000,367 998,197 "/>
<linearGradient id="triangle36_162_" gradientUnits="userSpaceOnUse" x1="214.6421" y1="204.0601" x2="215.7212" y2="205.1391" gradientTransform="matrix(46 0 0 171 -8920 -34901)">
	<stop  offset="0" style="stop-color:#724B01"/>
	<stop  offset="1" style="stop-color:#754A01"/>
</linearGradient>
<polygon id="triangle36_73_" fill="url(#triangle36_162_)" points="947,132 999,-1 998,197 "/>
<linearGradient id="triangle36_163_" gradientUnits="userSpaceOnUse" x1="219.9097" y1="199.6587" x2="221.0954" y2="200.8444" gradientTransform="matrix(349 0 0 46 -76180 -8232)">
	<stop  offset="0" style="stop-color:#B0E72C"/>
	<stop  offset="1" style="stop-color:#D5E841"/>
</linearGradient>
<polygon id="triangle36_74_" fill="url(#triangle36_163_)" points="650,1000 793,945 999,1001 "/>
<linearGradient id="triangle36_164_" gradientUnits="userSpaceOnUse" x1="219.5" y1="203.2393" x2="220.5805" y2="204.3198" gradientTransform="matrix(206 0 0 108 -44434 -21069)">
	<stop  offset="0" style="stop-color:#D5EC42"/>
	<stop  offset="1" style="stop-color:#E5E733"/>
</linearGradient>
<polygon id="triangle36_75_" fill="url(#triangle36_164_)" points="793,945 894,880 999,1001 "/>
<linearGradient id="triangle36_165_" gradientUnits="userSpaceOnUse" x1="218.147" y1="204.4917" x2="219.1891" y2="205.5339" gradientTransform="matrix(105 0 0 200 -22012 -40113)">
	<stop  offset="0" style="stop-color:#E8E52E"/>
	<stop  offset="1" style="stop-color:#EADD31"/>
</linearGradient>
<polygon id="triangle36_76_" fill="url(#triangle36_165_)" points="894,880 944,788 999,1001 "/>
<linearGradient id="triangle36_166_" gradientUnits="userSpaceOnUse" x1="215.6836" y1="205.1221" x2="216.7057" y2="206.1442" gradientTransform="matrix(55 0 0 400 -10912 -81513)">
	<stop  offset="0" style="stop-color:#E7CC16"/>
	<stop  offset="1" style="stop-color:#DABA1D"/>
</linearGradient>
<polygon id="triangle36_77_" fill="url(#triangle36_166_)" points="944,788 999,588 999,1001 "/>
<linearGradient id="triangle36_167_" gradientUnits="userSpaceOnUse" x1="219.1538" y1="204.7227" x2="220.1538" y2="205.7227" gradientTransform="matrix(161 0 0 236 -34658 -47675)">
	<stop  offset="0" style="stop-color:#A6C802"/>
	<stop  offset="1" style="stop-color:#B5D802"/>
</linearGradient>
<polygon id="triangle36_78_" fill="url(#triangle36_167_)" points="624,642 656,878 785,679 "/>
<linearGradient id="triangle36_168_" gradientUnits="userSpaceOnUse" x1="219.1006" y1="204.3154" x2="220.1006" y2="205.3154" gradientTransform="matrix(161 0 0 173 -34658 -34833)">
	<stop  offset="0" style="stop-color:#AAC103"/>
	<stop  offset="1" style="stop-color:#C1CA02"/>
</linearGradient>
<polygon id="triangle36_79_" fill="url(#triangle36_168_)" points="624,642 723,506 785,679 "/>
<linearGradient id="triangle36_169_" gradientUnits="userSpaceOnUse" x1="219.0068" y1="204.5361" x2="220.0085" y2="205.5378" gradientTransform="matrix(153 0 0 199 -32858 -40016)">
	<stop  offset="0" style="stop-color:#B4E10D"/>
	<stop  offset="1" style="stop-color:#CCDF0E"/>
</linearGradient>
<polygon id="triangle36_80_" fill="url(#triangle36_169_)" points="656,878 809,809 785,679 "/>
<linearGradient id="triangle36_170_" gradientUnits="userSpaceOnUse" x1="219.1987" y1="204.3247" x2="220.1996" y2="205.3256" gradientTransform="matrix(171 0 0 173 -36769 -34833)">
	<stop  offset="0" style="stop-color:#B9B702"/>
	<stop  offset="1" style="stop-color:#C2BA02"/>
</linearGradient>
<polygon id="triangle36_81_" fill="url(#triangle36_170_)" points="723,506 894,605 785,679 "/>
<linearGradient id="triangle36_171_" gradientUnits="userSpaceOnUse" x1="218.9478" y1="203.8716" x2="219.9478" y2="204.8716" gradientTransform="matrix(159 0 0 130 -34055 -25802)">
	<stop  offset="0" style="stop-color:#D7E012"/>
	<stop  offset="1" style="stop-color:#DFDC0F"/>
</linearGradient>
<polygon id="triangle36_82_" fill="url(#triangle36_171_)" points="809,809 944,788 785,679 "/>
<linearGradient id="triangle36_172_" gradientUnits="userSpaceOnUse" x1="219.1904" y1="204.2959" x2="220.1896" y2="205.295" gradientTransform="matrix(159 0 0 183 -34055 -36794)">
	<stop  offset="0" style="stop-color:#CBB603"/>
	<stop  offset="1" style="stop-color:#DBD209"/>
</linearGradient>
<polygon id="triangle36_83_" fill="url(#triangle36_172_)" points="894,605 944,788 785,679 "/>
<linearGradient id="triangle36_173_" gradientUnits="userSpaceOnUse" x1="218.4702" y1="204.4946" x2="219.5005" y2="205.5249" gradientTransform="matrix(117 0 0 202 -25266 -40521)">
	<stop  offset="0" style="stop-color:#5DA701"/>
	<stop  offset="1" style="stop-color:#62B501"/>
</linearGradient>
<polygon id="triangle36_84_" fill="url(#triangle36_173_)" points="292,792 346,1003 409,856 "/>
<linearGradient id="triangle36_174_" gradientUnits="userSpaceOnUse" x1="219.7085" y1="203.6675" x2="220.7085" y2="204.6675" gradientTransform="matrix(212 0 0 135 -46261 -26790)">
	<stop  offset="0" style="stop-color:#5C9B01"/>
	<stop  offset="1" style="stop-color:#6BA801"/>
</linearGradient>
<polygon id="triangle36_85_" fill="url(#triangle36_174_)" points="292,792 504,721 409,856 "/>
<linearGradient id="triangle36_175_" gradientUnits="userSpaceOnUse" x1="218.8857" y1="203.9888" x2="219.9282" y2="205.0311" gradientTransform="matrix(154 0 0 138 -33389 -27273)">
	<stop  offset="0" style="stop-color:#64C001"/>
	<stop  offset="1" style="stop-color:#6EC401"/>
</linearGradient>
<polygon id="triangle36_86_" fill="url(#triangle36_175_)" points="346,1003 500,995 409,856 "/>
<linearGradient id="triangle36_176_" gradientUnits="userSpaceOnUse" x1="219.8223" y1="203.668" x2="220.8737" y2="204.7194" gradientTransform="matrix(247 0 0 130 -53879 -25625)">
	<stop  offset="0" style="stop-color:#77CC01"/>
	<stop  offset="1" style="stop-color:#83CB02"/>
</linearGradient>
<polygon id="triangle36_87_" fill="url(#triangle36_176_)" points="500,995 656,878 409,856 "/>
<linearGradient id="triangle36_177_" gradientUnits="userSpaceOnUse" x1="219.6709" y1="204.2148" x2="220.6709" y2="205.2148" gradientTransform="matrix(247 0 0 157 -53879 -31322)">
	<stop  offset="0" style="stop-color:#78AF02"/>
	<stop  offset="1" style="stop-color:#81C302"/>
</linearGradient>
<polygon id="triangle36_88_" fill="url(#triangle36_177_)" points="504,721 656,878 409,856 "/>
</svg>
