<?xml version="1.0" encoding="utf-8"?>
<!-- Generator: Adobe Illustrator 15.0.0, SVG Export Plug-In . SVG Version: 6.00 Build 0)  -->
<!DOCTYPE svg PUBLIC "-//W3C//DTD SVG 1.1//EN" "http://www.w3.org/Graphics/SVG/1.1/DTD/svg11.dtd">
<svg version="1.1" id="Layer_1" xmlns="http://www.w3.org/2000/svg" xmlns:xlink="http://www.w3.org/1999/xlink" x="0px" y="0px"
	 width="218px" height="217px" viewBox="0 0 218 217" enable-background="new 0 0 218 217" xml:space="preserve">
<path fill="#64CCE6" d="M109.167,215.366c-58.71,0-106.475-47.764-106.475-106.475S50.456,2.416,109.167,2.416
	s106.475,47.765,106.475,106.475S167.877,215.366,109.167,215.366z M109.167,20.271c-48.866,0-88.621,39.755-88.621,88.621
	c0,48.865,39.755,88.62,88.621,88.62c48.865,0,88.62-39.755,88.62-88.62C197.787,60.025,158.032,20.271,109.167,20.271z"/>
<path fill="#4B4641" d="M107,105.289c0,0.945-0.766,1.711-1.711,1.711H79.711c-0.945,0-1.711-0.766-1.711-1.711V79.711
	C78,78.766,78.766,78,79.711,78h25.578c0.945,0,1.711,0.766,1.711,1.711V105.289z"/>
<path fill="#736F6B" d="M171,105.289c0,0.945-0.766,1.711-1.711,1.711h-25.578c-0.945,0-1.711-0.766-1.711-1.711V79.711
	c0-0.945,0.766-1.711,1.711-1.711h25.578c0.945,0,1.711,0.766,1.711,1.711V105.289z"/>
<path fill="#E0F5FA" d="M139,105.289c0,0.945-0.766,1.711-1.711,1.711h-25.578c-0.945,0-1.711-0.766-1.711-1.711V79.711
	c0-0.945,0.766-1.711,1.711-1.711h25.578c0.945,0,1.711,0.766,1.711,1.711V105.289z"/>
<path fill="#64CCE6" d="M139,73.289c0,0.945-0.766,1.711-1.711,1.711h-25.578c-0.945,0-1.711-0.766-1.711-1.711V47.711
	c0-0.945,0.766-1.711,1.711-1.711h25.578c0.945,0,1.711,0.766,1.711,1.711V73.289z"/>
<path fill="#1FAECE" d="M139,137.29c0,0.945-0.766,1.71-1.711,1.71h-25.578c-0.945,0-1.711-0.766-1.711-1.71V111.71
	c0-0.945,0.766-1.71,1.711-1.71h25.578c0.945,0,1.711,0.766,1.711,1.71V137.29z"/>
<path fill="#A6E2F2" d="M107,137.29c0,0.945-0.766,1.71-1.711,1.71H79.711c-0.945,0-1.711-0.766-1.711-1.71V111.71
	c0-0.945,0.766-1.71,1.711-1.71h25.578c0.945,0,1.711,0.766,1.711,1.71V137.29z"/>
<path fill="#FFFFFF" d="M107,169.289c0,0.945-0.766,1.711-1.711,1.711H79.711c-0.945,0-1.711-0.766-1.711-1.711v-25.578
	c0-0.945,0.766-1.711,1.711-1.711h25.578c0.945,0,1.711,0.766,1.711,1.711V169.289z"/>
<path fill="#625E5A" d="M75,137.29c0,0.945-0.766,1.71-1.71,1.71H47.71c-0.944,0-1.71-0.766-1.71-1.71V111.71
	c0-0.945,0.766-1.71,1.71-1.71h25.58c0.944,0,1.71,0.766,1.71,1.71V137.29z"/>
</svg>
