<?xml version="1.0" encoding="utf-8"?>
<!-- Generator: Adobe Illustrator 15.0.0, SVG Export Plug-In . SVG Version: 6.00 Build 0)  -->
<!DOCTYPE svg PUBLIC "-//W3C//DTD SVG 1.1//EN" "http://www.w3.org/Graphics/SVG/1.1/DTD/svg11.dtd">
<svg version="1.1" id="Layer_1" xmlns="http://www.w3.org/2000/svg" xmlns:xlink="http://www.w3.org/1999/xlink" x="0px" y="0px"
	 width="400px" height="30px" viewBox="0 0 400 30" enable-background="new 0 0 400 30" xml:space="preserve">
<g>
	<g>
		<line fill="none" stroke="#B8B5A4" stroke-miterlimit="10" x1="208" y1="14.5" x2="209" y2="14.5"/>
		<path fill="none" stroke="#B8B5A4" stroke-miterlimit="10" stroke-dasharray="2.0091,2.0091" d="M211,14.5h183.402
			c3.363-1,6.081-2.746,2.521-6.527c-2.151-2.287-4.654-1.056-5.252,1.449"/>
		<path fill="none" stroke="#B8B5A4" stroke-miterlimit="10" d="M391.461,10.264c-0.007,0.32,0.016,0.653,0.072,0.998"/>
	</g>
</g>
<g>
	<g>
		<line fill="none" stroke="#B8B5A4" stroke-miterlimit="10" x1="192" y1="14.5" x2="191" y2="14.5"/>
		<path fill="none" stroke="#B8B5A4" stroke-miterlimit="10" stroke-dasharray="1.9992,1.9992" d="M189,14.5H6.018
			c-3.363-1-6.081-2.746-2.521-6.527c2.152-2.288,4.942-1.055,5.538,1.454"/>
		<path fill="none" stroke="#B8B5A4" stroke-miterlimit="10" d="M8.959,10.264c0.007,0.32-0.016,0.653-0.073,0.998"/>
	</g>
</g>
<g>
	<circle fill="none" stroke="#14A2C6" stroke-miterlimit="10" stroke-dasharray="2.1541,1.077" cx="200.09" cy="14.754" r="3.09"/>
</g>
</svg>
