<?xml version="1.0" encoding="utf-8"?>
<!-- Generator: Adobe Illustrator 15.0.0, SVG Export Plug-In . SVG Version: 6.00 Build 0)  -->
<!DOCTYPE svg PUBLIC "-//W3C//DTD SVG 1.1//EN" "http://www.w3.org/Graphics/SVG/1.1/DTD/svg11.dtd">
<svg version="1.1" id="Layer_1" xmlns="http://www.w3.org/2000/svg" xmlns:xlink="http://www.w3.org/1999/xlink" x="0px" y="0px"
	 width="307px" height="41.5px" viewBox="0 0 307 41.5" enable-background="new 0 0 307 41.5" xml:space="preserve">
<g>
	<g>
		<polyline fill="none" stroke="#969581" stroke-miterlimit="10" points="158.001,23.611 159.001,23.611 159.507,22.75 		"/>
		
			<line fill="none" stroke="#969581" stroke-miterlimit="10" stroke-dasharray="1.7491,1.7491" x1="160.393" y1="21.241" x2="161.721" y2="18.978"/>
		<polyline fill="none" stroke="#969581" stroke-miterlimit="10" points="162.162,18.224 162.668,17.361 162.178,16.489 		"/>
		
			<line fill="none" stroke="#969581" stroke-miterlimit="10" stroke-dasharray="1.8287,1.8287" x1="161.283" y1="14.895" x2="159.939" y2="12.503"/>
		<polyline fill="none" stroke="#969581" stroke-miterlimit="10" points="159.491,11.706 159.001,10.834 158.001,10.834 		"/>
		<line fill="none" stroke="#969581" stroke-miterlimit="10" stroke-dasharray="2,2" x1="156" y1="10.5" x2="154" y2="10.5"/>
		<polyline fill="none" stroke="#969581" stroke-miterlimit="10" points="152.668,10.834 151.668,10.834 151.179,11.706 		"/>
		
			<line fill="none" stroke="#969581" stroke-miterlimit="10" stroke-dasharray="1.8287,1.8287" x1="150.283" y1="13.3" x2="148.939" y2="15.692"/>
		<polyline fill="none" stroke="#969581" stroke-miterlimit="10" points="148.492,16.489 148.002,17.361 148.508,18.224 		"/>
		
			<line fill="none" stroke="#969581" stroke-miterlimit="10" stroke-dasharray="1.7491,1.7491" x1="149.393" y1="19.732" x2="150.72" y2="21.995"/>
		<polyline fill="none" stroke="#969581" stroke-miterlimit="10" points="151.163,22.75 151.668,23.611 152.668,23.611 		"/>
		<line fill="none" stroke="#969581" stroke-miterlimit="10" stroke-dasharray="2,2" x1="154" y1="23.5" x2="157" y2="23.5"/>
	</g>
</g>
<g>
	<g>
		<line fill="none" stroke="#969581" stroke-miterlimit="10" x1="162" y1="17.5" x2="163" y2="17.5"/>
		<polyline fill="none" stroke="#969581" stroke-miterlimit="10" stroke-dasharray="2.0049,2.0049" points="165,17.5 220.479,17.5 
			223.333,19.78 		"/>
		<polyline fill="none" stroke="#969581" stroke-miterlimit="10" points="224.061,20.635 224.836,21.266 224.836,22.266 		"/>
		<polyline fill="none" stroke="#969581" stroke-miterlimit="10" stroke-dasharray="2.0238,2.0238" points="224.5,24 224.5,28.439 
			222.453,30.396 		"/>
		<polyline fill="none" stroke="#969581" stroke-miterlimit="10" points="222.083,31.266 221.385,31.98 220.385,31.98 		"/>
		<polyline fill="none" stroke="#969581" stroke-miterlimit="10" stroke-dasharray="2.5376,2.5376" points="218,31.5 216.238,31.5 
			214.646,30.07 		"/>
		<polyline fill="none" stroke="#969581" stroke-miterlimit="10" points="213.607,29.727 212.848,29.075 212.848,28.075 		"/>
		<polyline fill="none" stroke="#969581" stroke-miterlimit="10" stroke-dasharray="2.0501,2.0501" points="212.5,26 212.5,24.989 
			213.669,23.307 		"/>
	</g>
</g>
<g>
	<g>
		<line fill="none" stroke="#969581" stroke-miterlimit="10" x1="148" y1="17.5" x2="147" y2="17.5"/>
		<polyline fill="none" stroke="#969581" stroke-miterlimit="10" stroke-dasharray="2.0049,2.0049" points="145,17.5 89.234,17.5 
			86.523,19.78 		"/>
		<polyline fill="none" stroke="#969581" stroke-miterlimit="10" points="85.651,20.635 84.875,21.266 84.875,22.266 		"/>
		<polyline fill="none" stroke="#969581" stroke-miterlimit="10" stroke-dasharray="2.0239,2.0239" points="84.5,24 84.5,28.439 
			86.547,30.396 		"/>
		<polyline fill="none" stroke="#969581" stroke-miterlimit="10" points="87.629,31.266 88.327,31.98 89.327,31.98 		"/>
		<polyline fill="none" stroke="#969581" stroke-miterlimit="10" stroke-dasharray="2.5375,2.5375" points="92,31.5 93.473,31.5 
			95.209,30.07 		"/>
		<polyline fill="none" stroke="#969581" stroke-miterlimit="10" points="96.105,29.727 96.864,29.075 96.864,28.075 		"/>
		<polyline fill="none" stroke="#969581" stroke-miterlimit="10" stroke-dasharray="2.0501,2.0501" points="96.5,26 96.5,24.989 
			95.331,23.307 		"/>
	</g>
</g>
<circle fill="#14A2C6" cx="155.09" cy="17.257" r="3.59"/>
</svg>
