<?xml version="1.0" encoding="utf-8"?>
<!-- Generator: Adobe Illustrator 15.0.0, SVG Export Plug-In . SVG Version: 6.00 Build 0)  -->
<!DOCTYPE svg PUBLIC "-//W3C//DTD SVG 1.1//EN" "http://www.w3.org/Graphics/SVG/1.1/DTD/svg11.dtd">
<svg version="1.1" id="Layer_1" xmlns="http://www.w3.org/2000/svg" xmlns:xlink="http://www.w3.org/1999/xlink" x="0px" y="0px"
	 width="500.002px" height="41.5px" viewBox="0 0 500.002 41.5" enable-background="new 0 0 500.002 41.5" xml:space="preserve">
<g>
	<g>
		<polyline fill="none" stroke="#969581" stroke-miterlimit="10" points="258.001,20.612 259.001,20.612 259.507,19.75 		"/>
		
			<line fill="none" stroke="#969581" stroke-miterlimit="10" stroke-dasharray="1.7491,1.7491" x1="260.392" y1="18.241" x2="261.72" y2="15.978"/>
		<polyline fill="none" stroke="#969581" stroke-miterlimit="10" points="262.162,15.224 262.668,14.361 262.178,13.489 		"/>
		
			<line fill="none" stroke="#969581" stroke-miterlimit="10" stroke-dasharray="1.8287,1.8287" x1="261.283" y1="11.895" x2="259.939" y2="9.503"/>
		<polyline fill="none" stroke="#969581" stroke-miterlimit="10" points="259.491,8.706 259.001,7.834 258.001,7.834 		"/>
		<line fill="none" stroke="#969581" stroke-miterlimit="10" stroke-dasharray="2,2" x1="256" y1="7.5" x2="254" y2="7.5"/>
		<polyline fill="none" stroke="#969581" stroke-miterlimit="10" points="252.668,7.834 251.668,7.834 251.179,8.706 		"/>
		
			<line fill="none" stroke="#969581" stroke-miterlimit="10" stroke-dasharray="1.8287,1.8287" x1="250.283" y1="10.3" x2="248.939" y2="12.692"/>
		<polyline fill="none" stroke="#969581" stroke-miterlimit="10" points="248.492,13.489 248.002,14.361 248.508,15.224 		"/>
		
			<line fill="none" stroke="#969581" stroke-miterlimit="10" stroke-dasharray="1.7491,1.7491" x1="249.393" y1="16.732" x2="250.72" y2="18.995"/>
		<polyline fill="none" stroke="#969581" stroke-miterlimit="10" points="251.163,19.75 251.668,20.612 252.668,20.612 		"/>
		<line fill="none" stroke="#969581" stroke-miterlimit="10" stroke-dasharray="2,2" x1="254" y1="20.5" x2="257" y2="20.5"/>
	</g>
</g>
<g>
	<g>
		<line fill="none" stroke="#969581" stroke-miterlimit="10" x1="262" y1="14.5" x2="263" y2="14.5"/>
		<polyline fill="none" stroke="#969581" stroke-miterlimit="10" stroke-dasharray="2.0018,2.0018" points="265,14.5 480.478,14.5 
			483.335,16.781 		"/>
		<polyline fill="none" stroke="#969581" stroke-miterlimit="10" points="484.061,17.635 484.836,18.266 484.836,19.266 		"/>
		<polyline fill="none" stroke="#969581" stroke-miterlimit="10" stroke-dasharray="2.0238,2.0238" points="484.5,21 484.5,25.439 
			482.453,27.396 		"/>
		<polyline fill="none" stroke="#969581" stroke-miterlimit="10" points="482.083,28.265 481.385,28.981 480.385,28.981 		"/>
		<polyline fill="none" stroke="#969581" stroke-miterlimit="10" stroke-dasharray="2.5376,2.5376" points="478,28.5 476.238,28.5 
			474.646,27.07 		"/>
		<polyline fill="none" stroke="#969581" stroke-miterlimit="10" points="473.607,26.726 472.848,26.075 472.848,25.075 		"/>
		<line fill="none" stroke="#969581" stroke-miterlimit="10" x1="472.5" y1="23" x2="472.5" y2="22"/>
	</g>
</g>
<g>
	<g>
		<line fill="none" stroke="#969581" stroke-miterlimit="10" x1="248" y1="14.5" x2="247" y2="14.5"/>
		<polyline fill="none" stroke="#969581" stroke-miterlimit="10" stroke-dasharray="1.9846,1.9846" points="245,14.5 19.234,14.5 
			16.505,16.786 		"/>
		<polyline fill="none" stroke="#969581" stroke-miterlimit="10" points="15.651,17.635 14.875,18.266 14.875,19.266 		"/>
		<polyline fill="none" stroke="#969581" stroke-miterlimit="10" stroke-dasharray="2.0239,2.0239" points="14.5,21 14.5,25.439 
			16.547,27.396 		"/>
		<polyline fill="none" stroke="#969581" stroke-miterlimit="10" points="17.629,28.265 18.327,28.981 19.327,28.981 		"/>
		<polyline fill="none" stroke="#969581" stroke-miterlimit="10" stroke-dasharray="2.5375,2.5375" points="22,28.5 23.473,28.5 
			25.209,27.07 		"/>
		<polyline fill="none" stroke="#969581" stroke-miterlimit="10" points="26.105,26.726 26.864,26.075 26.864,25.075 		"/>
		<line fill="none" stroke="#969581" stroke-miterlimit="10" x1="26.5" y1="23" x2="26.5" y2="22"/>
	</g>
</g>
<circle fill="#14A2C6" cx="255.09" cy="14.257" r="3.59"/>
</svg>
