<?xml version="1.0" encoding="utf-8"?>
<!-- Generator: Adobe Illustrator 15.0.0, SVG Export Plug-In . SVG Version: 6.00 Build 0)  -->
<!DOCTYPE svg PUBLIC "-//W3C//DTD SVG 1.1//EN" "http://www.w3.org/Graphics/SVG/1.1/DTD/svg11.dtd">
<svg version="1.1" id="Layer_1" xmlns="http://www.w3.org/2000/svg" xmlns:xlink="http://www.w3.org/1999/xlink" x="0px" y="0px"
	 width="500.002px" height="41.5px" viewBox="0 0 500.002 41.5" enable-background="new 0 0 500.002 41.5" xml:space="preserve">
<g>
	<g>
		<line fill="none" stroke="#969581" stroke-miterlimit="10" x1="245" y1="13.5" x2="244" y2="13.5"/>
		<path fill="none" stroke="#969581" stroke-miterlimit="10" stroke-dasharray="1.9936,1.9936" d="M242,13.5H22.234
			c-3.363,1-4.959,5.606-1.4,9.389c2.667,2.833,8.758,0.811,8.271-2.194c-0.417-2.573-1.743-3.151-2.952-3.064"/>
		<path fill="none" stroke="#969581" stroke-miterlimit="10" d="M25.089,17.958c-0.547,0.166-0.922,0.376-0.922,0.376"/>
	</g>
</g>
<g>
	<g>
		<line fill="none" stroke="#969581" stroke-miterlimit="10" x1="260" y1="13.5" x2="261" y2="13.5"/>
		<path fill="none" stroke="#969581" stroke-miterlimit="10" stroke-dasharray="1.9936,1.9936" d="M263,13.5h219.403
			c3.363,1,4.959,5.606,1.4,9.389c-2.667,2.833-8.758,0.811-8.271-2.194c0.417-2.573,1.925-3.151,3.133-3.064"/>
		<path fill="none" stroke="#969581" stroke-miterlimit="10" d="M479.548,17.958c0.547,0.166,0.922,0.376,0.922,0.376"/>
	</g>
</g>
<g>
	<circle fill="none" stroke="#14A2C6" stroke-miterlimit="10" stroke-dasharray="1.877,0.9385" cx="252.09" cy="13.257" r="3.59"/>
</g>
</svg>
